<svg width="25" height="24" viewBox="0 0 25 24" fill="none" xmlns="http://www.w3.org/2000/svg">
<g clip-path="url(#clip0_130_516)">
<path fill-rule="evenodd" clip-rule="evenodd" d="M0.5 9.60352L15.1457 0L24.5 6.08008L22.9911 6.54492L16.4951 2.32813L16.4183 2.27539C16.132 2.09449 15.7488 1.99617 15.3529 2.00203C14.9571 2.00789 14.5809 2.11745 14.3071 2.30664L13.7785 2.66992L13.7608 2.6582L11.2805 4.39648L1.7815 10.4336L0.5 9.60352ZM4.45965 15.0098L4.37106 15.3848C4.1378 16.3848 3.75984 18.0098 3.6063 18.584C3.59584 18.6184 3.57898 18.6519 3.5561 18.6836C3.53874 18.714 3.51267 18.7418 3.47933 18.7656C3.30383 18.9133 3.14494 19.0693 3.00394 19.2324C2.90092 19.3471 2.82523 19.4716 2.77953 19.6016C2.75717 19.6658 2.75717 19.7326 2.77953 19.7969C2.80474 19.8559 2.85373 19.9092 2.92126 19.9512C4.3622 20.9082 5.89173 21.875 7.29134 22.8516C7.50106 22.98 7.75129 23.0761 8.02397 23.1329C8.29664 23.1896 8.58496 23.2056 8.86811 23.1797C9.39849 23.1345 9.92206 23.0593 10.4331 22.9551C10.9882 22.8742 11.5347 22.7691 12.0689 22.6406C12.6011 22.5052 13.0915 22.3067 13.5157 22.0547L14.7205 21.2227C14.7368 21.2071 14.7556 21.1927 14.7766 21.1797C14.812 21.1563 14.9154 21.0879 15.0719 20.9961C15.8691 20.4805 16.8435 19.8457 16.2913 19.3184L15.8868 19.0508L15.5915 19.2266L15.2047 19.4395C14.998 19.5586 14.8061 19.6719 14.6319 19.7852C14.5144 19.8629 14.3551 19.9065 14.189 19.9065C14.0229 19.9065 13.8635 19.8629 13.7461 19.7852C13.6286 19.7075 13.5626 19.6021 13.5626 19.4922C13.5626 19.3823 13.6286 19.2769 13.7461 19.1992C13.9321 19.0762 14.1565 18.9434 14.3898 18.8086L14.4193 18.793C15.2018 18.334 16.0965 17.8164 15.6594 17.3867L15.1841 17.0723C15.0719 17.1484 14.9537 17.2207 14.8356 17.293C14.7175 17.3652 14.5404 17.4727 14.3868 17.5586L14.3484 17.5781C14.1476 17.6953 13.9587 17.8047 13.7844 17.9199C13.7263 17.9584 13.6572 17.9889 13.5812 18.0097C13.5052 18.0306 13.4238 18.0413 13.3415 18.0413C13.2593 18.0413 13.1778 18.0306 13.1018 18.0097C13.0258 17.9889 12.9568 17.9584 12.8986 17.9199C12.8405 17.8814 12.7943 17.8358 12.7628 17.7855C12.7314 17.7352 12.7152 17.6814 12.7152 17.627C12.7152 17.5725 12.7314 17.5187 12.7628 17.4684C12.7943 17.4181 12.8405 17.3725 12.8986 17.334C13.0787 17.2148 13.3002 17.084 13.5335 16.9434L13.5689 16.9219C14.3514 16.4648 15.2461 15.9453 14.812 15.5156C14.6467 15.4082 14.4783 15.3008 14.3189 15.1895L12.9961 16.0645C12.8786 16.1422 12.7193 16.1858 12.5531 16.1858C12.387 16.1858 12.2277 16.1422 12.1102 16.0645C11.9928 15.9868 11.9268 15.8814 11.9268 15.7715C11.9268 15.6616 11.9928 15.5562 12.1102 15.4785L14.7677 13.7207C15.0171 13.5643 15.2082 13.3718 15.3258 13.1582C15.4244 12.9826 15.4327 12.7904 15.3494 12.6113C15.3221 12.5573 15.2854 12.5055 15.2402 12.457C15.1966 12.4103 15.145 12.3671 15.0866 12.3281C15.0273 12.2884 14.9609 12.2536 14.8888 12.2246C14.816 12.1958 14.7388 12.1722 14.6585 12.1543C14.3881 12.1006 14.0985 12.1075 13.8346 12.1738C13.5053 12.2601 13.2088 12.3935 12.9665 12.5645L6.57972 16.8086C6.46226 16.8863 6.30294 16.9299 6.13681 16.9299C5.97069 16.9299 5.81137 16.8863 5.6939 16.8086C5.57643 16.7309 5.51044 16.6255 5.51044 16.5156C5.51044 16.4057 5.57643 16.3004 5.6939 16.2227L5.97146 16.041L4.44783 15.0117L4.45965 15.0098ZM7.45669 15.0645L11.2539 12.5527L11.1831 12.5391C10.678 12.4294 10.2328 12.2239 9.90288 11.9481C9.57299 11.6724 9.37298 11.3385 9.32773 10.9882C9.28247 10.6378 9.39398 10.2863 9.64837 9.97757C9.90276 9.6688 10.2888 9.41632 10.7585 9.25156C11.2281 9.0868 11.7607 9.01702 12.2898 9.05092C12.819 9.08481 13.3214 9.22088 13.7345 9.4422C14.1476 9.66351 14.4532 9.9603 14.6133 10.2956C14.7734 10.6309 14.7809 10.99 14.6348 11.3281C14.7762 11.3415 14.9155 11.3631 15.0512 11.3926C15.2216 11.4297 15.385 11.4795 15.5384 11.541C15.6935 11.6042 15.8371 11.6789 15.9665 11.7637C16.0227 11.8009 16.076 11.84 16.126 11.8809L19.7283 9.45508C19.405 9.2332 19.2267 8.936 19.2323 8.62783C19.2378 8.31966 19.4266 8.02533 19.7579 7.80859L16.4626 5.58203C16.1274 5.79678 15.6777 5.9154 15.2111 5.9121C14.7445 5.90881 14.2987 5.78389 13.9705 5.56445L4.92913 11.6992C5.25642 11.9185 5.43993 12.2143 5.43993 12.5225C5.43993 12.8306 5.25642 13.1264 4.92913 13.3457L7.47146 15.0645H7.45669ZM16.5453 13.3887C16.3726 13.7479 16.0683 14.0733 15.6594 14.3359L15.2254 14.6211L15.7392 14.9609L15.7864 14.9961L15.8278 15.0332C16.0698 15.2261 16.2147 15.4642 16.2422 15.7142C16.2698 15.9642 16.1785 16.2137 15.9813 16.4277H15.9961C16.0304 16.4431 16.0629 16.4601 16.0935 16.4785L16.5955 16.8125C16.6135 16.8228 16.6293 16.8346 16.6427 16.8477L16.6811 16.8809C16.9643 17.1147 17.1129 17.4075 17.1004 17.707C17.0769 17.9542 16.9524 18.1925 16.7402 18.3965L17.2392 18.7246L17.2864 18.7617L17.3219 18.7949C18.5443 19.9004 17.1211 20.8203 15.9724 21.5625C15.8957 21.623 15.7687 21.6973 15.6772 21.7578C15.2756 22.0352 14.7913 22.4102 14.378 22.6562C13.2205 23.3496 12.0807 23.5352 10.7608 23.748C10.1718 23.8687 9.5667 23.9518 8.95374 23.9961C8.49728 24.0294 8.03532 23.996 7.60057 23.8981C7.16583 23.8002 6.76894 23.6403 6.43799 23.4297L2.07382 20.543C1.85389 20.4071 1.69196 20.2353 1.60433 20.0449C1.52357 19.8486 1.51547 19.6422 1.58071 19.4434C1.64068 19.2567 1.74008 19.0765 1.87598 18.9082C2.03383 18.7086 2.2176 18.5184 2.4252 18.3398C2.5374 17.916 2.78248 16.8359 3.01575 15.8438C3.14862 15.248 3.27854 14.6875 3.37598 14.2813L0.922244 12.623L15.4409 2.92969L23.7766 8.56445L16.5453 13.3887Z" fill="#D5DED5"/>
</g>
<defs>
<clipPath id="clip0_130_516">
<rect width="24" height="24" fill="white" transform="translate(0.5)"/>
</clipPath>
</defs>
</svg>
