<svg width="2790" height="1218" viewBox="0 0 2790 1218" fill="none" xmlns="http://www.w3.org/2000/svg">
<rect width="2790" height="1218" rx="8" fill="url(#paint0_linear_123_1100)"/>
<path d="M2615.67 1095.22L2616.56 1095.02C2616.12 1096.53 2615.7 1098.1 2615.28 1099.73C2614.86 1101.36 2614.55 1102.8 2614.33 1104.06C2614.26 1104.43 2614.22 1104.69 2614.22 1104.84C2614.22 1105.06 2614.27 1105.23 2614.36 1105.36C2614.46 1105.47 2614.59 1105.53 2614.75 1105.53C2615.15 1105.53 2615.66 1105.27 2616.3 1104.73C2617.19 1103.98 2617.89 1103.08 2618.39 1102.03C2618.9 1100.98 2619.16 1099.92 2619.16 1098.84C2619.16 1097.21 2618.62 1095.86 2617.56 1094.81C2616.51 1093.76 2615.14 1093.23 2613.45 1093.23C2611.83 1093.23 2610.32 1093.68 2608.94 1094.56C2607.55 1095.44 2606.39 1096.78 2605.45 1098.59C2604.53 1100.4 2604.06 1102.22 2604.06 1104.08C2604.06 1105.3 2604.34 1106.47 2604.91 1107.59C2605.33 1108.44 2606.01 1109.13 2606.94 1109.67C2607.86 1110.2 2608.88 1110.47 2609.97 1110.47C2612.32 1110.47 2614.8 1109.42 2617.39 1107.33L2617.92 1107.95C2615.27 1110.32 2612.39 1111.5 2609.28 1111.5C2607.01 1111.5 2605.23 1110.88 2603.95 1109.64C2602.68 1108.4 2602.05 1106.71 2602.05 1104.58C2602.05 1102.41 2602.59 1100.36 2603.69 1098.44C2604.78 1096.5 2606.26 1094.96 2608.12 1093.83C2610 1092.69 2611.9 1092.12 2613.83 1092.12C2615.2 1092.12 2616.47 1092.42 2617.64 1093C2618.81 1093.58 2619.7 1094.34 2620.31 1095.27C2620.94 1096.19 2621.25 1097.14 2621.25 1098.11C2621.25 1099.63 2620.74 1101.15 2619.72 1102.66C2618.7 1104.16 2617.34 1105.34 2615.66 1106.22C2614.45 1106.84 2613.5 1107.16 2612.81 1107.16C2612.57 1107.16 2612.39 1107.09 2612.25 1106.97C2612.12 1106.83 2612.06 1106.66 2612.06 1106.44C2612.06 1106.15 2612.27 1105.37 2612.67 1104.11C2611.76 1105.13 2610.91 1105.9 2610.12 1106.41C2609.34 1106.92 2608.63 1107.17 2607.98 1107.17C2607.57 1107.17 2607.19 1106.94 2606.84 1106.48C2606.51 1106.02 2606.34 1105.41 2606.34 1104.66C2606.34 1103.33 2606.78 1101.9 2607.66 1100.34C2608.54 1098.79 2609.56 1097.63 2610.72 1096.86C2611.88 1096.09 2613.12 1095.7 2614.47 1095.7C2614.69 1095.7 2615 1095.72 2615.41 1095.75L2615.67 1095.22ZM2614.06 1097.27C2613.62 1097.17 2613.27 1097.12 2612.98 1097.12C2612.19 1097.12 2611.46 1097.36 2610.8 1097.83C2610.14 1098.3 2609.57 1099.1 2609.08 1100.23C2608.59 1101.37 2608.34 1102.52 2608.34 1103.69C2608.34 1104.25 2608.45 1104.67 2608.66 1104.94C2608.86 1105.2 2609.15 1105.33 2609.52 1105.33C2609.89 1105.33 2610.26 1105.22 2610.61 1105.02C2611.11 1104.72 2611.55 1104.32 2611.94 1103.81C2612.33 1103.29 2612.59 1102.83 2612.72 1102.44L2613.25 1100.34L2614.06 1097.27ZM2634.7 1092.19L2635.14 1094.02C2635.55 1095.68 2635.95 1097.14 2636.34 1098.39C2636.74 1099.64 2637.76 1102.53 2639.39 1107.06C2639.55 1106.49 2639.86 1105.22 2640.33 1103.25C2640.93 1100.69 2641.33 1099.08 2641.53 1098.42C2642.11 1096.49 2642.68 1095.08 2643.22 1094.17C2643.76 1093.27 2644.36 1092.61 2645.03 1092.22C2645.7 1091.82 2646.45 1091.62 2647.3 1091.62C2647.97 1091.62 2648.49 1091.76 2648.84 1092.02C2649.21 1092.28 2649.39 1092.59 2649.39 1092.95C2649.39 1093.21 2649.29 1093.44 2649.09 1093.64C2648.91 1093.84 2648.68 1093.94 2648.42 1093.94C2648.23 1093.94 2648.02 1093.89 2647.77 1093.78C2647.24 1093.57 2646.93 1093.45 2646.83 1093.42C2646.64 1093.38 2646.44 1093.36 2646.22 1093.36C2645.71 1093.36 2645.27 1093.53 2644.91 1093.88C2644.26 1094.48 2643.55 1095.99 2642.77 1098.42C2641.99 1100.85 2641.01 1104.73 2639.81 1110.06L2639.28 1112.39C2638.09 1109.78 2637.29 1107.92 2636.88 1106.83C2636.31 1105.36 2635.67 1103.51 2634.95 1101.27L2633.23 1095.86C2633.03 1097.11 2632.54 1099.22 2631.77 1102.19C2631.01 1105.15 2630.55 1106.85 2630.41 1107.3C2629.93 1108.7 2629.41 1109.78 2628.86 1110.53C2628.32 1111.28 2627.72 1111.83 2627.06 1112.17C2626.42 1112.52 2625.7 1112.69 2624.92 1112.69C2623.94 1112.69 2623.14 1112.47 2622.52 1112.03C2622.04 1111.71 2621.8 1111.3 2621.8 1110.8C2621.8 1110.58 2621.89 1110.39 2622.06 1110.22C2622.24 1110.04 2622.45 1109.95 2622.7 1109.95C2623.03 1109.95 2623.38 1110.12 2623.75 1110.47C2624.42 1111.08 2625.03 1111.39 2625.58 1111.39C2626.17 1111.39 2626.76 1111.12 2627.33 1110.59C2628.18 1109.78 2629.01 1108.08 2629.8 1105.48C2630.76 1102.35 2631.68 1098.37 2632.56 1093.55C2632.2 1093.55 2631.5 1093.65 2630.47 1093.86C2629.44 1094.07 2628.57 1094.36 2627.88 1094.75C2627.19 1095.12 2626.66 1095.62 2626.28 1096.23C2625.92 1096.84 2625.73 1097.47 2625.73 1098.14C2625.73 1098.47 2625.78 1098.81 2625.88 1099.16C2625.94 1099.39 2626.07 1099.67 2626.28 1100C2626.52 1100.39 2626.64 1100.68 2626.64 1100.88C2626.64 1101.12 2626.55 1101.34 2626.36 1101.52C2626.18 1101.69 2625.96 1101.78 2625.69 1101.78C2625.29 1101.78 2624.95 1101.58 2624.67 1101.17C2624.39 1100.76 2624.25 1100.12 2624.25 1099.28C2624.25 1097.89 2624.6 1096.7 2625.3 1095.72C2626.01 1094.74 2626.95 1094 2628.12 1093.5C2628.88 1093.19 2630.32 1092.89 2632.47 1092.59C2633.26 1092.49 2634.01 1092.35 2634.7 1092.19ZM2656.05 1097.75L2657.31 1097.47C2656.55 1099.91 2655.85 1102.35 2655.22 1104.8C2654.76 1106.55 2654.44 1108.01 2654.27 1109.17C2654.17 1109.76 2654.12 1110.49 2654.11 1111.39C2654.09 1112.89 2653.92 1114.1 2653.61 1115.02C2653.17 1116.3 2652.35 1117.33 2651.16 1118.11C2649.97 1118.89 2648.56 1119.28 2646.92 1119.28C2645.52 1119.28 2644.41 1118.95 2643.59 1118.28C2642.79 1117.62 2642.39 1116.87 2642.39 1116.02C2642.39 1115.17 2642.71 1114.39 2643.36 1113.66C2643.84 1113.1 2644.84 1112.44 2646.36 1111.66C2647.13 1111.25 2647.85 1110.83 2648.53 1110.41C2647.76 1110.8 2647.16 1111 2646.73 1111C2646.35 1111 2646.01 1110.82 2645.7 1110.47C2645.41 1110.1 2645.27 1109.62 2645.27 1109.03C2645.27 1107.11 2645.83 1105.21 2646.97 1103.33C2648.11 1101.43 2649.49 1100.01 2651.09 1099.06C2652.08 1098.48 2653.32 1098.19 2654.81 1098.19C2655.1 1098.19 2655.46 1098.2 2655.89 1098.22L2656.05 1097.75ZM2654.3 1100.06C2653.8 1099.97 2653.35 1099.92 2652.97 1099.92C2651.98 1099.92 2651.13 1100.18 2650.42 1100.7C2649.71 1101.22 2649.11 1102.1 2648.61 1103.33C2647.91 1105.07 2647.56 1106.53 2647.56 1107.72C2647.56 1108.21 2647.7 1108.62 2647.97 1108.95C2648.25 1109.29 2648.56 1109.45 2648.91 1109.45C2649.32 1109.45 2649.84 1109.26 2650.45 1108.86C2651.07 1108.45 2651.57 1107.95 2651.95 1107.34C2652.35 1106.74 2652.75 1105.7 2653.16 1104.22L2654.3 1100.06ZM2652.17 1108.58C2651.46 1109.21 2650.1 1110.23 2648.08 1111.62C2646.3 1112.83 2645.2 1113.7 2644.8 1114.23C2644.39 1114.78 2644.19 1115.35 2644.19 1115.95C2644.19 1116.55 2644.45 1117.08 2644.97 1117.55C2645.5 1118.03 2646.14 1118.27 2646.89 1118.27C2647.6 1118.27 2648.29 1118.09 2648.95 1117.73C2649.62 1117.39 2650.2 1116.89 2650.69 1116.22C2651.19 1115.56 2651.53 1114.82 2651.72 1113.98C2651.91 1113.15 2652.01 1112.05 2652.02 1110.67C2652.03 1110.37 2652.08 1109.67 2652.17 1108.58ZM2669 1097.59L2670.03 1097.38L2668.86 1101.33C2668.39 1102.9 2667.95 1104.71 2667.53 1106.77C2667.3 1107.88 2667.19 1108.6 2667.19 1108.92C2667.19 1109.24 2667.32 1109.41 2667.58 1109.41C2667.74 1109.41 2668.01 1109.3 2668.38 1109.08C2669.02 1108.69 2669.64 1108.21 2670.23 1107.64L2670.73 1108.25C2669.55 1109.33 2668.79 1109.99 2668.45 1110.22C2667.79 1110.68 2667.15 1111.02 2666.55 1111.23C2666.15 1111.38 2665.77 1111.45 2665.39 1111.45C2665.12 1111.45 2664.92 1111.39 2664.78 1111.27C2664.65 1111.14 2664.58 1110.96 2664.58 1110.72C2664.58 1110.56 2664.62 1110.35 2664.7 1110.08L2665.33 1107.95C2664.43 1109.03 2663.36 1109.95 2662.12 1110.72C2661.36 1111.2 2660.67 1111.44 2660.03 1111.44C2659.43 1111.44 2658.96 1111.22 2658.64 1110.8C2658.2 1110.22 2657.98 1109.47 2657.98 1108.55C2657.98 1107.44 2658.28 1106.21 2658.86 1104.86C2659.45 1103.51 2660.24 1102.28 2661.23 1101.17C2662.22 1100.07 2663.27 1099.26 2664.36 1098.73C2665.2 1098.34 2666.29 1098.14 2667.61 1098.14C2667.94 1098.14 2668.28 1098.16 2668.62 1098.2L2669 1097.59ZM2667.06 1099.98C2666.5 1099.87 2666.03 1099.81 2665.64 1099.81C2664.7 1099.81 2663.89 1100.07 2663.19 1100.59C2662.49 1101.1 2661.84 1102.03 2661.23 1103.38C2660.64 1104.71 2660.34 1106.04 2660.34 1107.38C2660.34 1108.08 2660.46 1108.59 2660.7 1108.91C2660.94 1109.22 2661.26 1109.38 2661.64 1109.38C2662.36 1109.38 2663.13 1108.99 2663.95 1108.22C2664.78 1107.44 2665.38 1106.32 2665.77 1104.86L2667.06 1099.98ZM2684.33 1107.69L2684.73 1108.27C2683.78 1109.33 2682.79 1110.17 2681.78 1110.8C2681.09 1111.22 2680.53 1111.44 2680.08 1111.44C2679.71 1111.44 2679.42 1111.29 2679.19 1111C2678.97 1110.71 2678.86 1110.26 2678.86 1109.64C2678.86 1109.22 2678.94 1108.62 2679.11 1107.83C2679.29 1107.03 2679.78 1105.31 2680.58 1102.69C2680.93 1101.4 2681.11 1100.64 2681.11 1100.42C2681.11 1100.07 2680.93 1099.89 2680.58 1099.89C2680.14 1099.89 2679.59 1100.11 2678.94 1100.55C2678.02 1101.15 2677.21 1101.92 2676.5 1102.86C2676.05 1103.46 2675.69 1104.36 2675.42 1105.55L2674.17 1110.98H2671.84C2672.34 1109.16 2672.73 1107.67 2673 1106.52L2675.3 1096.48C2675.71 1094.64 2676.26 1093.22 2676.94 1092.23C2677.62 1091.23 2678.52 1090.44 2679.61 1089.84C2680.71 1089.25 2681.8 1088.95 2682.88 1088.95C2683.32 1088.95 2683.68 1089.06 2683.94 1089.28C2684.2 1089.5 2684.33 1089.78 2684.33 1090.11C2684.33 1090.39 2684.2 1090.64 2683.94 1090.86C2683.69 1091.07 2683.34 1091.17 2682.91 1091.17C2682.66 1091.17 2682.33 1091.15 2681.94 1091.09C2681.04 1090.97 2680.42 1090.91 2680.08 1090.91C2679.6 1090.91 2679.21 1091.1 2678.91 1091.48C2678.6 1091.87 2678.29 1092.78 2677.97 1094.2L2676.22 1101.92C2677.46 1100.62 2678.81 1099.52 2680.27 1098.62C2681.12 1098.09 2681.81 1097.83 2682.33 1097.83C2682.73 1097.83 2683.05 1097.95 2683.28 1098.2C2683.51 1098.44 2683.62 1098.78 2683.62 1099.22C2683.62 1099.57 2683.58 1099.93 2683.5 1100.28C2683.36 1100.9 2683.05 1102.01 2682.55 1103.62C2681.87 1105.85 2681.47 1107.24 2681.34 1107.78C2681.23 1108.32 2681.17 1108.81 2681.17 1109.23C2681.17 1109.4 2681.2 1109.53 2681.25 1109.61C2681.31 1109.69 2681.4 1109.73 2681.52 1109.73C2681.77 1109.73 2682.23 1109.44 2682.92 1108.84C2683.31 1108.52 2683.78 1108.14 2684.33 1107.69ZM2696.44 1098.28H2698.66L2697.19 1103.73C2696.32 1106.9 2695.89 1108.7 2695.89 1109.14C2695.89 1109.34 2695.94 1109.49 2696.03 1109.59C2696.12 1109.7 2696.23 1109.75 2696.34 1109.75C2696.52 1109.75 2696.73 1109.67 2696.97 1109.52C2697.31 1109.28 2697.96 1108.67 2698.92 1107.7L2699.44 1108.28C2697.34 1110.46 2695.8 1111.55 2694.81 1111.55C2694.48 1111.55 2694.19 1111.42 2693.95 1111.16C2693.72 1110.91 2693.61 1110.55 2693.61 1110.08C2693.61 1109.54 2693.72 1108.81 2693.95 1107.91C2693.03 1108.97 2691.88 1109.9 2690.52 1110.7C2689.61 1111.23 2688.82 1111.5 2688.16 1111.5C2687.79 1111.5 2687.51 1111.38 2687.3 1111.14C2687.09 1110.9 2686.98 1110.52 2686.98 1110C2686.98 1109.59 2687.03 1109.16 2687.12 1108.69C2687.26 1108.03 2687.6 1106.71 2688.16 1104.73C2688.85 1102.22 2689.2 1100.72 2689.2 1100.22C2689.2 1099.93 2689.1 1099.78 2688.89 1099.78C2688.7 1099.78 2688.45 1099.88 2688.12 1100.08C2687.8 1100.27 2687.25 1100.73 2686.47 1101.47L2685.78 1100.92C2687.18 1099.67 2688.24 1098.85 2688.97 1098.47C2689.71 1098.07 2690.3 1097.88 2690.75 1097.88C2691 1097.88 2691.2 1097.97 2691.36 1098.16C2691.52 1098.33 2691.59 1098.61 2691.59 1099C2691.59 1099.72 2691.22 1101.48 2690.47 1104.3C2689.8 1106.83 2689.47 1108.27 2689.47 1108.62C2689.47 1108.84 2689.54 1109.03 2689.67 1109.19C2689.82 1109.34 2689.97 1109.42 2690.14 1109.42C2690.72 1109.42 2691.55 1108.94 2692.62 1107.98C2693.7 1107.02 2694.4 1105.92 2694.73 1104.69L2696.44 1098.28Z" fill="#1F1F9A"/>
<rect x="726" y="552" width="201" height="94" rx="8" fill="#434660"/>
<path d="M806.728 602.888H810.312V605H803.992V593.768H806.728V602.888ZM815.681 605.128C814.806 605.128 814.017 604.941 813.313 604.568C812.62 604.195 812.07 603.661 811.665 602.968C811.27 602.275 811.073 601.464 811.073 600.536C811.073 599.619 811.276 598.813 811.681 598.12C812.086 597.416 812.641 596.877 813.345 596.504C814.049 596.131 814.838 595.944 815.713 595.944C816.588 595.944 817.377 596.131 818.081 596.504C818.785 596.877 819.34 597.416 819.745 598.12C820.15 598.813 820.353 599.619 820.353 600.536C820.353 601.453 820.145 602.264 819.729 602.968C819.324 603.661 818.764 604.195 818.049 604.568C817.345 604.941 816.556 605.128 815.681 605.128ZM815.681 602.76C816.204 602.76 816.646 602.568 817.009 602.184C817.382 601.8 817.569 601.251 817.569 600.536C817.569 599.821 817.388 599.272 817.025 598.888C816.673 598.504 816.236 598.312 815.713 598.312C815.18 598.312 814.737 598.504 814.385 598.888C814.033 599.261 813.857 599.811 813.857 600.536C813.857 601.251 814.028 601.8 814.369 602.184C814.721 602.568 815.158 602.76 815.681 602.76ZM825.197 595.944C825.826 595.944 826.375 596.072 826.845 596.328C827.325 596.584 827.693 596.92 827.949 597.336V596.072H830.685V604.984C830.685 605.805 830.519 606.547 830.189 607.208C829.869 607.88 829.373 608.413 828.701 608.808C828.039 609.203 827.213 609.4 826.221 609.4C824.898 609.4 823.826 609.085 823.005 608.456C822.183 607.837 821.714 606.995 821.597 605.928H824.301C824.386 606.269 824.589 606.536 824.909 606.728C825.229 606.931 825.623 607.032 826.093 607.032C826.658 607.032 827.106 606.867 827.437 606.536C827.778 606.216 827.949 605.699 827.949 604.984V603.72C827.682 604.136 827.314 604.477 826.845 604.744C826.375 605 825.826 605.128 825.197 605.128C824.461 605.128 823.794 604.941 823.197 604.568C822.599 604.184 822.125 603.645 821.773 602.952C821.431 602.248 821.261 601.437 821.261 600.52C821.261 599.603 821.431 598.797 821.773 598.104C822.125 597.411 822.599 596.877 823.197 596.504C823.794 596.131 824.461 595.944 825.197 595.944ZM827.949 600.536C827.949 599.853 827.757 599.315 827.373 598.92C826.999 598.525 826.541 598.328 825.997 598.328C825.453 598.328 824.989 598.525 824.605 598.92C824.231 599.304 824.045 599.837 824.045 600.52C824.045 601.203 824.231 601.747 824.605 602.152C824.989 602.547 825.453 602.744 825.997 602.744C826.541 602.744 826.999 602.547 827.373 602.152C827.757 601.757 827.949 601.219 827.949 600.536ZM838.791 593.768V605H836.055V593.768H838.791ZM846.213 595.976C847.259 595.976 848.091 596.317 848.709 597C849.339 597.672 849.653 598.6 849.653 599.784V605H846.933V600.152C846.933 599.555 846.779 599.091 846.469 598.76C846.16 598.429 845.744 598.264 845.221 598.264C844.699 598.264 844.283 598.429 843.973 598.76C843.664 599.091 843.509 599.555 843.509 600.152V605H840.773V596.072H843.509V597.256C843.787 596.861 844.16 596.552 844.629 596.328C845.099 596.093 845.627 595.976 846.213 595.976Z" fill="#262626"/>
<rect x="1219" y="346" width="201" height="94" rx="8" fill="#5296E5"/>
<path d="M1280.98 397.016H1276.79L1276.12 399H1273.26L1277.32 387.768H1280.49L1284.55 399H1281.66L1280.98 397.016ZM1280.28 394.904L1278.89 390.792L1277.51 394.904H1280.28ZM1285.24 394.536C1285.24 393.608 1285.43 392.797 1285.8 392.104C1286.19 391.411 1286.72 390.877 1287.39 390.504C1288.07 390.131 1288.85 389.944 1289.72 389.944C1290.84 389.944 1291.78 390.237 1292.52 390.824C1293.28 391.411 1293.78 392.237 1294.01 393.304H1291.1C1290.86 392.621 1290.38 392.28 1289.68 392.28C1289.18 392.28 1288.78 392.477 1288.48 392.872C1288.18 393.256 1288.03 393.811 1288.03 394.536C1288.03 395.261 1288.18 395.821 1288.48 396.216C1288.78 396.6 1289.18 396.792 1289.68 396.792C1290.38 396.792 1290.86 396.451 1291.1 395.768H1294.01C1293.78 396.813 1293.28 397.635 1292.52 398.232C1291.77 398.829 1290.83 399.128 1289.72 399.128C1288.85 399.128 1288.07 398.941 1287.39 398.568C1286.72 398.195 1286.19 397.661 1285.8 396.968C1285.43 396.275 1285.24 395.464 1285.24 394.536ZM1294.93 394.52C1294.93 393.603 1295.1 392.797 1295.44 392.104C1295.8 391.411 1296.27 390.877 1296.87 390.504C1297.47 390.131 1298.13 389.944 1298.87 389.944C1299.5 389.944 1300.05 390.072 1300.52 390.328C1301 390.584 1301.36 390.92 1301.62 391.336V390.072H1304.36V399H1301.62V397.736C1301.35 398.152 1300.98 398.488 1300.5 398.744C1300.03 399 1299.48 399.128 1298.85 399.128C1298.13 399.128 1297.47 398.941 1296.87 398.568C1296.27 398.184 1295.8 397.645 1295.44 396.952C1295.1 396.248 1294.93 395.437 1294.93 394.52ZM1301.62 394.536C1301.62 393.853 1301.43 393.315 1301.04 392.92C1300.67 392.525 1300.21 392.328 1299.67 392.328C1299.12 392.328 1298.66 392.525 1298.28 392.92C1297.9 393.304 1297.72 393.837 1297.72 394.52C1297.72 395.203 1297.9 395.747 1298.28 396.152C1298.66 396.547 1299.12 396.744 1299.67 396.744C1300.21 396.744 1300.67 396.547 1301.04 396.152C1301.43 395.757 1301.62 395.219 1301.62 394.536ZM1305.79 394.52C1305.79 393.603 1305.96 392.797 1306.3 392.104C1306.66 391.411 1307.13 390.877 1307.73 390.504C1308.33 390.131 1308.99 389.944 1309.73 389.944C1310.31 389.944 1310.85 390.067 1311.33 390.312C1311.82 390.557 1312.2 390.888 1312.48 391.304V387.16H1315.22V399H1312.48V397.72C1312.22 398.147 1311.86 398.488 1311.38 398.744C1310.91 399 1310.36 399.128 1309.73 399.128C1308.99 399.128 1308.33 398.941 1307.73 398.568C1307.13 398.184 1306.66 397.645 1306.3 396.952C1305.96 396.248 1305.79 395.437 1305.79 394.52ZM1312.48 394.536C1312.48 393.853 1312.29 393.315 1311.9 392.92C1311.53 392.525 1311.07 392.328 1310.53 392.328C1309.98 392.328 1309.52 392.525 1309.14 392.92C1308.76 393.304 1308.58 393.837 1308.58 394.52C1308.58 395.203 1308.76 395.747 1309.14 396.152C1309.52 396.547 1309.98 396.744 1310.53 396.744C1311.07 396.744 1311.53 396.547 1311.9 396.152C1312.29 395.757 1312.48 395.219 1312.48 394.536ZM1325.61 394.392C1325.61 394.648 1325.6 394.915 1325.56 395.192H1319.37C1319.41 395.747 1319.59 396.173 1319.9 396.472C1320.22 396.76 1320.61 396.904 1321.07 396.904C1321.75 396.904 1322.22 396.616 1322.49 396.04H1325.4C1325.25 396.627 1324.98 397.155 1324.59 397.624C1324.2 398.093 1323.72 398.461 1323.13 398.728C1322.54 398.995 1321.89 399.128 1321.16 399.128C1320.29 399.128 1319.51 398.941 1318.83 398.568C1318.14 398.195 1317.61 397.661 1317.23 396.968C1316.84 396.275 1316.65 395.464 1316.65 394.536C1316.65 393.608 1316.84 392.797 1317.21 392.104C1317.6 391.411 1318.13 390.877 1318.81 390.504C1319.49 390.131 1320.28 389.944 1321.16 389.944C1322.03 389.944 1322.8 390.125 1323.47 390.488C1324.14 390.851 1324.66 391.368 1325.04 392.04C1325.42 392.712 1325.61 393.496 1325.61 394.392ZM1322.81 393.672C1322.81 393.203 1322.65 392.829 1322.33 392.552C1322.01 392.275 1321.61 392.136 1321.13 392.136C1320.67 392.136 1320.28 392.269 1319.96 392.536C1319.65 392.803 1319.46 393.181 1319.39 393.672H1322.81ZM1338.45 389.976C1339.56 389.976 1340.44 390.312 1341.09 390.984C1341.75 391.656 1342.08 392.589 1342.08 393.784V399H1339.36V394.152C1339.36 393.576 1339.2 393.133 1338.89 392.824C1338.6 392.504 1338.18 392.344 1337.65 392.344C1337.11 392.344 1336.69 392.504 1336.38 392.824C1336.08 393.133 1335.93 393.576 1335.93 394.152V399H1333.21V394.152C1333.21 393.576 1333.06 393.133 1332.75 392.824C1332.45 392.504 1332.04 392.344 1331.5 392.344C1330.97 392.344 1330.55 392.504 1330.24 392.824C1329.94 393.133 1329.79 393.576 1329.79 394.152V399H1327.05V390.072H1329.79V391.192C1330.07 390.819 1330.43 390.525 1330.88 390.312C1331.33 390.088 1331.83 389.976 1332.4 389.976C1333.07 389.976 1333.67 390.12 1334.19 390.408C1334.72 390.696 1335.14 391.107 1335.44 391.64C1335.75 391.149 1336.17 390.749 1336.7 390.44C1337.24 390.131 1337.82 389.976 1338.45 389.976ZM1345.37 389.144C1344.89 389.144 1344.49 389.005 1344.18 388.728C1343.89 388.44 1343.74 388.088 1343.74 387.672C1343.74 387.245 1343.89 386.893 1344.18 386.616C1344.49 386.328 1344.89 386.184 1345.37 386.184C1345.84 386.184 1346.22 386.328 1346.52 386.616C1346.83 386.893 1346.98 387.245 1346.98 387.672C1346.98 388.088 1346.83 388.44 1346.52 388.728C1346.22 389.005 1345.84 389.144 1345.37 389.144ZM1346.73 390.072V399H1343.99V390.072H1346.73ZM1348.17 394.536C1348.17 393.608 1348.35 392.797 1348.73 392.104C1349.11 391.411 1349.64 390.877 1350.31 390.504C1350.99 390.131 1351.77 389.944 1352.65 389.944C1353.77 389.944 1354.7 390.237 1355.45 390.824C1356.2 391.411 1356.7 392.237 1356.93 393.304H1354.02C1353.78 392.621 1353.3 392.28 1352.6 392.28C1352.1 392.28 1351.7 392.477 1351.4 392.872C1351.1 393.256 1350.95 393.811 1350.95 394.536C1350.95 395.261 1351.1 395.821 1351.4 396.216C1351.7 396.6 1352.1 396.792 1352.6 396.792C1353.3 396.792 1353.78 396.451 1354.02 395.768H1356.93C1356.7 396.813 1356.2 397.635 1355.45 398.232C1354.69 398.829 1353.76 399.128 1352.65 399.128C1351.77 399.128 1350.99 398.941 1350.31 398.568C1349.64 398.195 1349.11 397.661 1348.73 396.968C1348.35 396.275 1348.17 395.464 1348.17 394.536ZM1362.03 399.128C1361.25 399.128 1360.56 398.995 1359.95 398.728C1359.34 398.461 1358.86 398.099 1358.51 397.64C1358.16 397.171 1357.96 396.648 1357.92 396.072H1360.62C1360.65 396.381 1360.8 396.632 1361.05 396.824C1361.31 397.016 1361.62 397.112 1362 397.112C1362.34 397.112 1362.6 397.048 1362.78 396.92C1362.97 396.781 1363.07 396.605 1363.07 396.392C1363.07 396.136 1362.94 395.949 1362.67 395.832C1362.4 395.704 1361.97 395.565 1361.37 395.416C1360.73 395.267 1360.2 395.112 1359.77 394.952C1359.35 394.781 1358.98 394.52 1358.67 394.168C1358.36 393.805 1358.21 393.32 1358.21 392.712C1358.21 392.2 1358.34 391.736 1358.62 391.32C1358.91 390.893 1359.33 390.557 1359.87 390.312C1360.42 390.067 1361.08 389.944 1361.84 389.944C1362.96 389.944 1363.84 390.221 1364.48 390.776C1365.13 391.331 1365.5 392.067 1365.6 392.984H1363.07C1363.03 392.675 1362.89 392.429 1362.65 392.248C1362.43 392.067 1362.13 391.976 1361.76 391.976C1361.44 391.976 1361.19 392.04 1361.02 392.168C1360.85 392.285 1360.77 392.451 1360.77 392.664C1360.77 392.92 1360.9 393.112 1361.17 393.24C1361.44 393.368 1361.87 393.496 1362.45 393.624C1363.11 393.795 1363.65 393.965 1364.06 394.136C1364.48 394.296 1364.84 394.563 1365.15 394.936C1365.47 395.299 1365.64 395.789 1365.65 396.408C1365.65 396.931 1365.5 397.4 1365.2 397.816C1364.91 398.221 1364.49 398.541 1363.93 398.776C1363.39 399.011 1362.76 399.128 1362.03 399.128Z" fill="#262626"/>
<rect x="1525" y="552" width="201" height="94" rx="8" fill="#5296E5"/>
<path d="M1574.72 593.768V605H1571.98V600.376H1567.73V605H1564.99V593.768H1567.73V598.168H1571.98V593.768H1574.72ZM1580.76 605.128C1579.88 605.128 1579.1 604.941 1578.39 604.568C1577.7 604.195 1577.15 603.661 1576.74 602.968C1576.35 602.275 1576.15 601.464 1576.15 600.536C1576.15 599.619 1576.35 598.813 1576.76 598.12C1577.16 597.416 1577.72 596.877 1578.42 596.504C1579.13 596.131 1579.92 595.944 1580.79 595.944C1581.67 595.944 1582.46 596.131 1583.16 596.504C1583.86 596.877 1584.42 597.416 1584.82 598.12C1585.23 598.813 1585.43 599.619 1585.43 600.536C1585.43 601.453 1585.22 602.264 1584.81 602.968C1584.4 603.661 1583.84 604.195 1583.13 604.568C1582.42 604.941 1581.63 605.128 1580.76 605.128ZM1580.76 602.76C1581.28 602.76 1581.72 602.568 1582.09 602.184C1582.46 601.8 1582.65 601.251 1582.65 600.536C1582.65 599.821 1582.47 599.272 1582.1 598.888C1581.75 598.504 1581.31 598.312 1580.79 598.312C1580.26 598.312 1579.82 598.504 1579.46 598.888C1579.11 599.261 1578.94 599.811 1578.94 600.536C1578.94 601.251 1579.11 601.8 1579.45 602.184C1579.8 602.568 1580.24 602.76 1580.76 602.76ZM1590.51 605.128C1589.74 605.128 1589.04 604.995 1588.43 604.728C1587.83 604.461 1587.35 604.099 1586.99 603.64C1586.64 603.171 1586.45 602.648 1586.4 602.072H1589.11C1589.14 602.381 1589.28 602.632 1589.54 602.824C1589.79 603.016 1590.11 603.112 1590.48 603.112C1590.82 603.112 1591.09 603.048 1591.27 602.92C1591.46 602.781 1591.55 602.605 1591.55 602.392C1591.55 602.136 1591.42 601.949 1591.15 601.832C1590.89 601.704 1590.46 601.565 1589.86 601.416C1589.22 601.267 1588.69 601.112 1588.26 600.952C1587.83 600.781 1587.46 600.52 1587.15 600.168C1586.85 599.805 1586.69 599.32 1586.69 598.712C1586.69 598.2 1586.83 597.736 1587.11 597.32C1587.39 596.893 1587.81 596.557 1588.35 596.312C1588.91 596.067 1589.57 595.944 1590.32 595.944C1591.44 595.944 1592.32 596.221 1592.96 596.776C1593.61 597.331 1593.99 598.067 1594.08 598.984H1591.55C1591.51 598.675 1591.37 598.429 1591.14 598.248C1590.91 598.067 1590.62 597.976 1590.24 597.976C1589.92 597.976 1589.68 598.04 1589.51 598.168C1589.34 598.285 1589.25 598.451 1589.25 598.664C1589.25 598.92 1589.38 599.112 1589.65 599.24C1589.93 599.368 1590.35 599.496 1590.93 599.624C1591.59 599.795 1592.13 599.965 1592.55 600.136C1592.96 600.296 1593.33 600.563 1593.63 600.936C1593.95 601.299 1594.12 601.789 1594.13 602.408C1594.13 602.931 1593.98 603.4 1593.68 603.816C1593.39 604.221 1592.97 604.541 1592.42 604.776C1591.87 605.011 1591.24 605.128 1590.51 605.128ZM1600.78 602.68V605H1599.39C1598.4 605 1597.62 604.76 1597.07 604.28C1596.51 603.789 1596.24 602.995 1596.24 601.896V598.344H1595.15V596.072H1596.24V593.896H1598.97V596.072H1600.76V598.344H1598.97V601.928C1598.97 602.195 1599.04 602.387 1599.16 602.504C1599.29 602.621 1599.51 602.68 1599.8 602.68H1600.78ZM1610.72 600.392C1610.72 600.648 1610.7 600.915 1610.67 601.192H1604.48C1604.52 601.747 1604.7 602.173 1605.01 602.472C1605.33 602.76 1605.72 602.904 1606.18 602.904C1606.86 602.904 1607.33 602.616 1607.6 602.04H1610.51C1610.36 602.627 1610.09 603.155 1609.7 603.624C1609.31 604.093 1608.83 604.461 1608.24 604.728C1607.65 604.995 1607 605.128 1606.27 605.128C1605.4 605.128 1604.62 604.941 1603.94 604.568C1603.25 604.195 1602.72 603.661 1602.34 602.968C1601.95 602.275 1601.76 601.464 1601.76 600.536C1601.76 599.608 1601.95 598.797 1602.32 598.104C1602.7 597.411 1603.24 596.877 1603.92 596.504C1604.6 596.131 1605.39 595.944 1606.27 595.944C1607.14 595.944 1607.9 596.125 1608.58 596.488C1609.25 596.851 1609.77 597.368 1610.14 598.04C1610.53 598.712 1610.72 599.496 1610.72 600.392ZM1607.92 599.672C1607.92 599.203 1607.76 598.829 1607.44 598.552C1607.12 598.275 1606.72 598.136 1606.24 598.136C1605.78 598.136 1605.39 598.269 1605.07 598.536C1604.76 598.803 1604.57 599.181 1604.5 599.672H1607.92ZM1614.9 593.16V605H1612.16V593.16H1614.9ZM1627.07 599.24C1627.72 599.379 1628.25 599.704 1628.64 600.216C1629.04 600.717 1629.23 601.293 1629.23 601.944C1629.23 602.883 1628.9 603.629 1628.24 604.184C1627.59 604.728 1626.68 605 1625.51 605H1620.27V593.768H1625.33C1626.47 593.768 1627.36 594.029 1628 594.552C1628.65 595.075 1628.98 595.784 1628.98 596.68C1628.98 597.341 1628.8 597.891 1628.45 598.328C1628.11 598.765 1627.65 599.069 1627.07 599.24ZM1623.01 598.312H1624.8C1625.25 598.312 1625.59 598.216 1625.83 598.024C1626.07 597.821 1626.19 597.528 1626.19 597.144C1626.19 596.76 1626.07 596.467 1625.83 596.264C1625.59 596.061 1625.25 595.96 1624.8 595.96H1623.01V598.312ZM1625.03 602.792C1625.48 602.792 1625.84 602.691 1626.08 602.488C1626.34 602.275 1626.47 601.971 1626.47 601.576C1626.47 601.181 1626.33 600.872 1626.07 600.648C1625.81 600.424 1625.45 600.312 1624.99 600.312H1623.01V602.792H1625.03ZM1634.88 605.128C1634.01 605.128 1633.22 604.941 1632.52 604.568C1631.82 604.195 1631.27 603.661 1630.87 602.968C1630.47 602.275 1630.28 601.464 1630.28 600.536C1630.28 599.619 1630.48 598.813 1630.88 598.12C1631.29 597.416 1631.84 596.877 1632.55 596.504C1633.25 596.131 1634.04 595.944 1634.92 595.944C1635.79 595.944 1636.58 596.131 1637.28 596.504C1637.99 596.877 1638.54 597.416 1638.95 598.12C1639.35 598.813 1639.56 599.619 1639.56 600.536C1639.56 601.453 1639.35 602.264 1638.93 602.968C1638.53 603.661 1637.97 604.195 1637.25 604.568C1636.55 604.941 1635.76 605.128 1634.88 605.128ZM1634.88 602.76C1635.41 602.76 1635.85 602.568 1636.21 602.184C1636.59 601.8 1636.77 601.251 1636.77 600.536C1636.77 599.821 1636.59 599.272 1636.23 598.888C1635.88 598.504 1635.44 598.312 1634.92 598.312C1634.38 598.312 1633.94 598.504 1633.59 598.888C1633.24 599.261 1633.06 599.811 1633.06 600.536C1633.06 601.251 1633.23 601.8 1633.57 602.184C1633.92 602.568 1634.36 602.76 1634.88 602.76ZM1645.07 605.128C1644.2 605.128 1643.41 604.941 1642.7 604.568C1642.01 604.195 1641.46 603.661 1641.06 602.968C1640.66 602.275 1640.46 601.464 1640.46 600.536C1640.46 599.619 1640.67 598.813 1641.07 598.12C1641.48 597.416 1642.03 596.877 1642.74 596.504C1643.44 596.131 1644.23 595.944 1645.1 595.944C1645.98 595.944 1646.77 596.131 1647.47 596.504C1648.18 596.877 1648.73 597.416 1649.14 598.12C1649.54 598.813 1649.74 599.619 1649.74 600.536C1649.74 601.453 1649.54 602.264 1649.12 602.968C1648.71 603.661 1648.15 604.195 1647.44 604.568C1646.74 604.941 1645.95 605.128 1645.07 605.128ZM1645.07 602.76C1645.59 602.76 1646.04 602.568 1646.4 602.184C1646.77 601.8 1646.96 601.251 1646.96 600.536C1646.96 599.821 1646.78 599.272 1646.42 598.888C1646.06 598.504 1645.63 598.312 1645.1 598.312C1644.57 598.312 1644.13 598.504 1643.78 598.888C1643.42 599.261 1643.25 599.811 1643.25 600.536C1643.25 601.251 1643.42 601.8 1643.76 602.184C1644.11 602.568 1644.55 602.76 1645.07 602.76ZM1656.65 605L1653.93 601.256V605H1651.2V593.16H1653.93V599.704L1656.64 596.072H1660.01L1656.3 600.552L1660.04 605H1656.65ZM1662.46 595.144C1661.98 595.144 1661.59 595.005 1661.28 594.728C1660.98 594.44 1660.83 594.088 1660.83 593.672C1660.83 593.245 1660.98 592.893 1661.28 592.616C1661.59 592.328 1661.98 592.184 1662.46 592.184C1662.93 592.184 1663.32 592.328 1663.61 592.616C1663.92 592.893 1664.08 593.245 1664.08 593.672C1664.08 594.088 1663.92 594.44 1663.61 594.728C1663.32 595.005 1662.93 595.144 1662.46 595.144ZM1663.82 596.072V605H1661.09V596.072H1663.82ZM1671.24 595.976C1672.29 595.976 1673.12 596.317 1673.74 597C1674.37 597.672 1674.68 598.6 1674.68 599.784V605H1671.96V600.152C1671.96 599.555 1671.81 599.091 1671.5 598.76C1671.19 598.429 1670.78 598.264 1670.25 598.264C1669.73 598.264 1669.31 598.429 1669 598.76C1668.7 599.091 1668.54 599.555 1668.54 600.152V605H1665.8V596.072H1668.54V597.256C1668.82 596.861 1669.19 596.552 1669.66 596.328C1670.13 596.093 1670.66 595.976 1671.24 595.976ZM1679.98 595.944C1680.61 595.944 1681.16 596.072 1681.63 596.328C1682.11 596.584 1682.47 596.92 1682.73 597.336V596.072H1685.47V604.984C1685.47 605.805 1685.3 606.547 1684.97 607.208C1684.65 607.88 1684.15 608.413 1683.48 608.808C1682.82 609.203 1681.99 609.4 1681 609.4C1679.68 609.4 1678.61 609.085 1677.79 608.456C1676.96 607.837 1676.5 606.995 1676.38 605.928H1679.08C1679.17 606.269 1679.37 606.536 1679.69 606.728C1680.01 606.931 1680.4 607.032 1680.87 607.032C1681.44 607.032 1681.89 606.867 1682.22 606.536C1682.56 606.216 1682.73 605.699 1682.73 604.984V603.72C1682.46 604.136 1682.1 604.477 1681.63 604.744C1681.16 605 1680.61 605.128 1679.98 605.128C1679.24 605.128 1678.58 604.941 1677.98 604.568C1677.38 604.184 1676.91 603.645 1676.55 602.952C1676.21 602.248 1676.04 601.437 1676.04 600.52C1676.04 599.603 1676.21 598.797 1676.55 598.104C1676.91 597.411 1677.38 596.877 1677.98 596.504C1678.58 596.131 1679.24 595.944 1679.98 595.944ZM1682.73 600.536C1682.73 599.853 1682.54 599.315 1682.15 598.92C1681.78 598.525 1681.32 598.328 1680.78 598.328C1680.23 598.328 1679.77 598.525 1679.39 598.92C1679.01 599.304 1678.83 599.837 1678.83 600.52C1678.83 601.203 1679.01 601.747 1679.39 602.152C1679.77 602.547 1680.23 602.744 1680.78 602.744C1681.32 602.744 1681.78 602.547 1682.15 602.152C1682.54 601.757 1682.73 601.219 1682.73 600.536Z" fill="#262626"/>
<rect x="1862" y="558" width="201" height="94" rx="8" fill="#D86363"/>
<path d="M1935.73 608.888H1939.31V611H1932.99V599.768H1935.73V608.888ZM1944.68 611.128C1943.81 611.128 1943.02 610.941 1942.31 610.568C1941.62 610.195 1941.07 609.661 1940.67 608.968C1940.27 608.275 1940.07 607.464 1940.07 606.536C1940.07 605.619 1940.28 604.813 1940.68 604.12C1941.09 603.416 1941.64 602.877 1942.35 602.504C1943.05 602.131 1943.84 601.944 1944.71 601.944C1945.59 601.944 1946.38 602.131 1947.08 602.504C1947.79 602.877 1948.34 603.416 1948.75 604.12C1949.15 604.813 1949.35 605.619 1949.35 606.536C1949.35 607.453 1949.15 608.264 1948.73 608.968C1948.32 609.661 1947.76 610.195 1947.05 610.568C1946.35 610.941 1945.56 611.128 1944.68 611.128ZM1944.68 608.76C1945.2 608.76 1945.65 608.568 1946.01 608.184C1946.38 607.8 1946.57 607.251 1946.57 606.536C1946.57 605.821 1946.39 605.272 1946.03 604.888C1945.67 604.504 1945.24 604.312 1944.71 604.312C1944.18 604.312 1943.74 604.504 1943.39 604.888C1943.03 605.261 1942.86 605.811 1942.86 606.536C1942.86 607.251 1943.03 607.8 1943.37 608.184C1943.72 608.568 1944.16 608.76 1944.68 608.76ZM1954.2 601.944C1954.83 601.944 1955.38 602.072 1955.84 602.328C1956.32 602.584 1956.69 602.92 1956.95 603.336V602.072H1959.68V610.984C1959.68 611.805 1959.52 612.547 1959.19 613.208C1958.87 613.88 1958.37 614.413 1957.7 614.808C1957.04 615.203 1956.21 615.4 1955.22 615.4C1953.9 615.4 1952.83 615.085 1952 614.456C1951.18 613.837 1950.71 612.995 1950.6 611.928H1953.3C1953.39 612.269 1953.59 612.536 1953.91 612.728C1954.23 612.931 1954.62 613.032 1955.09 613.032C1955.66 613.032 1956.11 612.867 1956.44 612.536C1956.78 612.216 1956.95 611.699 1956.95 610.984V609.72C1956.68 610.136 1956.31 610.477 1955.84 610.744C1955.38 611 1954.83 611.128 1954.2 611.128C1953.46 611.128 1952.79 610.941 1952.2 610.568C1951.6 610.184 1951.12 609.645 1950.77 608.952C1950.43 608.248 1950.26 607.437 1950.26 606.52C1950.26 605.603 1950.43 604.797 1950.77 604.104C1951.12 603.411 1951.6 602.877 1952.2 602.504C1952.79 602.131 1953.46 601.944 1954.2 601.944ZM1956.95 606.536C1956.95 605.853 1956.76 605.315 1956.37 604.92C1956 604.525 1955.54 604.328 1955 604.328C1954.45 604.328 1953.99 604.525 1953.6 604.92C1953.23 605.304 1953.04 605.837 1953.04 606.52C1953.04 607.203 1953.23 607.747 1953.6 608.152C1953.99 608.547 1954.45 608.744 1955 608.744C1955.54 608.744 1956 608.547 1956.37 608.152C1956.76 607.757 1956.95 607.219 1956.95 606.536ZM1970.37 611.112C1969.31 611.112 1968.34 610.867 1967.45 610.376C1966.58 609.885 1965.88 609.203 1965.36 608.328C1964.85 607.443 1964.59 606.451 1964.59 605.352C1964.59 604.253 1964.85 603.267 1965.36 602.392C1965.88 601.517 1966.58 600.835 1967.45 600.344C1968.34 599.853 1969.31 599.608 1970.37 599.608C1971.42 599.608 1972.39 599.853 1973.26 600.344C1974.15 600.835 1974.84 601.517 1975.34 602.392C1975.85 603.267 1976.11 604.253 1976.11 605.352C1976.11 606.451 1975.85 607.443 1975.34 608.328C1974.83 609.203 1974.14 609.885 1973.26 610.376C1972.39 610.867 1971.42 611.112 1970.37 611.112ZM1970.37 608.616C1971.26 608.616 1971.98 608.317 1972.51 607.72C1973.05 607.123 1973.33 606.333 1973.33 605.352C1973.33 604.36 1973.05 603.571 1972.51 602.984C1971.98 602.387 1971.26 602.088 1970.37 602.088C1969.46 602.088 1968.73 602.381 1968.19 602.968C1967.66 603.555 1967.39 604.349 1967.39 605.352C1967.39 606.344 1967.66 607.139 1968.19 607.736C1968.73 608.323 1969.46 608.616 1970.37 608.616ZM1986.45 602.072V611H1983.71V609.784C1983.44 610.179 1983.06 610.499 1982.58 610.744C1982.11 610.979 1981.58 611.096 1981.01 611.096C1980.33 611.096 1979.72 610.947 1979.2 610.648C1978.68 610.339 1978.27 609.896 1977.98 609.32C1977.7 608.744 1977.55 608.067 1977.55 607.288V602.072H1980.27V606.92C1980.27 607.517 1980.43 607.981 1980.74 608.312C1981.05 608.643 1981.46 608.808 1981.98 608.808C1982.52 608.808 1982.94 608.643 1983.25 608.312C1983.56 607.981 1983.71 607.517 1983.71 606.92V602.072H1986.45ZM1993.39 608.68V611H1992C1991.01 611 1990.23 610.76 1989.68 610.28C1989.12 609.789 1988.85 608.995 1988.85 607.896V604.344H1987.76V602.072H1988.85V599.896H1991.58V602.072H1993.37V604.344H1991.58V607.928C1991.58 608.195 1991.65 608.387 1991.77 608.504C1991.9 608.621 1992.12 608.68 1992.41 608.68H1993.39Z" fill="#262626"/>
<rect x="1219" y="778" width="201" height="94" rx="8" fill="#5296E5"/>
<path d="M1309.3 819.768V821.96H1304.73V824.328H1308.15V826.456H1304.73V831H1301.99V819.768H1309.3ZM1319.16 826.392C1319.16 826.648 1319.14 826.915 1319.11 827.192H1312.92C1312.96 827.747 1313.14 828.173 1313.45 828.472C1313.77 828.76 1314.16 828.904 1314.61 828.904C1315.3 828.904 1315.77 828.616 1316.04 828.04H1318.95C1318.8 828.627 1318.53 829.155 1318.13 829.624C1317.75 830.093 1317.26 830.461 1316.68 830.728C1316.09 830.995 1315.44 831.128 1314.71 831.128C1313.84 831.128 1313.06 830.941 1312.37 830.568C1311.69 830.195 1311.16 829.661 1310.77 828.968C1310.39 828.275 1310.2 827.464 1310.2 826.536C1310.2 825.608 1310.38 824.797 1310.76 824.104C1311.14 823.411 1311.68 822.877 1312.36 822.504C1313.04 822.131 1313.82 821.944 1314.71 821.944C1315.57 821.944 1316.34 822.125 1317.01 822.488C1317.69 822.851 1318.21 823.368 1318.58 824.04C1318.97 824.712 1319.16 825.496 1319.16 826.392ZM1316.36 825.672C1316.36 825.203 1316.2 824.829 1315.88 824.552C1315.56 824.275 1315.16 824.136 1314.68 824.136C1314.22 824.136 1313.83 824.269 1313.51 824.536C1313.2 824.803 1313.01 825.181 1312.93 825.672H1316.36ZM1329.02 826.392C1329.02 826.648 1329 826.915 1328.97 827.192H1322.78C1322.82 827.747 1323 828.173 1323.31 828.472C1323.63 828.76 1324.01 828.904 1324.47 828.904C1325.16 828.904 1325.63 828.616 1325.9 828.04H1328.81C1328.66 828.627 1328.39 829.155 1327.99 829.624C1327.61 830.093 1327.12 830.461 1326.54 830.728C1325.95 830.995 1325.29 831.128 1324.57 831.128C1323.69 831.128 1322.92 830.941 1322.23 830.568C1321.55 830.195 1321.02 829.661 1320.63 828.968C1320.25 828.275 1320.06 827.464 1320.06 826.536C1320.06 825.608 1320.24 824.797 1320.62 824.104C1321 823.411 1321.53 822.877 1322.22 822.504C1322.9 822.131 1323.68 821.944 1324.57 821.944C1325.43 821.944 1326.2 822.125 1326.87 822.488C1327.55 822.851 1328.07 823.368 1328.44 824.04C1328.83 824.712 1329.02 825.496 1329.02 826.392ZM1326.22 825.672C1326.22 825.203 1326.06 824.829 1325.74 824.552C1325.42 824.275 1325.02 824.136 1324.54 824.136C1324.08 824.136 1323.69 824.269 1323.37 824.536C1323.06 824.803 1322.87 825.181 1322.79 825.672H1326.22ZM1334.09 831.128C1333.31 831.128 1332.62 830.995 1332.01 830.728C1331.4 830.461 1330.92 830.099 1330.57 829.64C1330.22 829.171 1330.02 828.648 1329.98 828.072H1332.68C1332.72 828.381 1332.86 828.632 1333.12 828.824C1333.37 829.016 1333.69 829.112 1334.06 829.112C1334.4 829.112 1334.66 829.048 1334.84 828.92C1335.04 828.781 1335.13 828.605 1335.13 828.392C1335.13 828.136 1335 827.949 1334.73 827.832C1334.47 827.704 1334.03 827.565 1333.44 827.416C1332.8 827.267 1332.26 827.112 1331.84 826.952C1331.41 826.781 1331.04 826.52 1330.73 826.168C1330.42 825.805 1330.27 825.32 1330.27 824.712C1330.27 824.2 1330.41 823.736 1330.68 823.32C1330.97 822.893 1331.39 822.557 1331.93 822.312C1332.49 822.067 1333.14 821.944 1333.9 821.944C1335.02 821.944 1335.9 822.221 1336.54 822.776C1337.19 823.331 1337.56 824.067 1337.66 824.984H1335.13C1335.09 824.675 1334.95 824.429 1334.72 824.248C1334.49 824.067 1334.19 823.976 1333.82 823.976C1333.5 823.976 1333.26 824.04 1333.08 824.168C1332.91 824.285 1332.83 824.451 1332.83 824.664C1332.83 824.92 1332.96 825.112 1333.23 825.24C1333.51 825.368 1333.93 825.496 1334.51 825.624C1335.17 825.795 1335.71 825.965 1336.12 826.136C1336.54 826.296 1336.9 826.563 1337.21 826.936C1337.53 827.299 1337.7 827.789 1337.71 828.408C1337.71 828.931 1337.56 829.4 1337.26 829.816C1336.97 830.221 1336.55 830.541 1336 830.776C1335.45 831.011 1334.82 831.128 1334.09 831.128Z" fill="#262626"/>
<path d="M1313.34 534.657C1316.47 531.533 1321.53 531.533 1324.66 534.657L1383.34 593.343C1386.47 596.467 1386.47 601.533 1383.34 604.657L1324.66 663.343C1321.53 666.467 1316.47 666.467 1313.34 663.343L1254.66 604.657C1251.53 601.533 1251.53 596.467 1254.66 593.343L1313.34 534.657Z" fill="#09B709" style="mix-blend-mode:luminosity"/>
<path d="M1305.72 593.768V605H1302.98V600.376H1298.73V605H1295.99V593.768H1298.73V598.168H1302.98V593.768H1305.72ZM1311.76 605.128C1310.88 605.128 1310.1 604.941 1309.39 604.568C1308.7 604.195 1308.15 603.661 1307.74 602.968C1307.35 602.275 1307.15 601.464 1307.15 600.536C1307.15 599.619 1307.35 598.813 1307.76 598.12C1308.16 597.416 1308.72 596.877 1309.42 596.504C1310.13 596.131 1310.92 595.944 1311.79 595.944C1312.67 595.944 1313.46 596.131 1314.16 596.504C1314.86 596.877 1315.42 597.416 1315.82 598.12C1316.23 598.813 1316.43 599.619 1316.43 600.536C1316.43 601.453 1316.22 602.264 1315.81 602.968C1315.4 603.661 1314.84 604.195 1314.13 604.568C1313.42 604.941 1312.63 605.128 1311.76 605.128ZM1311.76 602.76C1312.28 602.76 1312.72 602.568 1313.09 602.184C1313.46 601.8 1313.65 601.251 1313.65 600.536C1313.65 599.821 1313.47 599.272 1313.1 598.888C1312.75 598.504 1312.31 598.312 1311.79 598.312C1311.26 598.312 1310.82 598.504 1310.46 598.888C1310.11 599.261 1309.94 599.811 1309.94 600.536C1309.94 601.251 1310.11 601.8 1310.45 602.184C1310.8 602.568 1311.24 602.76 1311.76 602.76ZM1329.27 595.976C1330.38 595.976 1331.26 596.312 1331.91 596.984C1332.58 597.656 1332.91 598.589 1332.91 599.784V605H1330.19V600.152C1330.19 599.576 1330.03 599.133 1329.72 598.824C1329.42 598.504 1329.01 598.344 1328.47 598.344C1327.94 598.344 1327.52 598.504 1327.21 598.824C1326.91 599.133 1326.76 599.576 1326.76 600.152V605H1324.04V600.152C1324.04 599.576 1323.89 599.133 1323.58 598.824C1323.28 598.504 1322.86 598.344 1322.33 598.344C1321.8 598.344 1321.38 598.504 1321.07 598.824C1320.77 599.133 1320.62 599.576 1320.62 600.152V605H1317.88V596.072H1320.62V597.192C1320.9 596.819 1321.26 596.525 1321.71 596.312C1322.15 596.088 1322.66 595.976 1323.23 595.976C1323.9 595.976 1324.5 596.12 1325.02 596.408C1325.55 596.696 1325.97 597.107 1326.27 597.64C1326.58 597.149 1327 596.749 1327.53 596.44C1328.06 596.131 1328.65 595.976 1329.27 595.976ZM1343.24 600.392C1343.24 600.648 1343.22 600.915 1343.19 601.192H1337C1337.04 601.747 1337.21 602.173 1337.52 602.472C1337.84 602.76 1338.23 602.904 1338.69 602.904C1339.37 602.904 1339.85 602.616 1340.12 602.04H1343.03C1342.88 602.627 1342.61 603.155 1342.21 603.624C1341.83 604.093 1341.34 604.461 1340.76 604.728C1340.17 604.995 1339.51 605.128 1338.79 605.128C1337.91 605.128 1337.13 604.941 1336.45 604.568C1335.77 604.195 1335.24 603.661 1334.85 602.968C1334.47 602.275 1334.28 601.464 1334.28 600.536C1334.28 599.608 1334.46 598.797 1334.84 598.104C1335.22 597.411 1335.75 596.877 1336.44 596.504C1337.12 596.131 1337.9 595.944 1338.79 595.944C1339.65 595.944 1340.42 596.125 1341.09 596.488C1341.76 596.851 1342.29 597.368 1342.66 598.04C1343.04 598.712 1343.24 599.496 1343.24 600.392ZM1340.44 599.672C1340.44 599.203 1340.28 598.829 1339.96 598.552C1339.64 598.275 1339.24 598.136 1338.76 598.136C1338.3 598.136 1337.91 598.269 1337.59 598.536C1337.28 598.803 1337.09 599.181 1337.01 599.672H1340.44Z" fill="#262626"/>
<path d="M1320.71 439.293C1320.32 438.902 1319.68 438.902 1319.29 439.293L1312.93 445.657C1312.54 446.047 1312.54 446.681 1312.93 447.071C1313.32 447.462 1313.95 447.462 1314.34 447.071L1320 441.414L1325.66 447.071C1326.05 447.462 1326.68 447.462 1327.07 447.071C1327.46 446.681 1327.46 446.047 1327.07 445.657L1320.71 439.293ZM1321 525L1321 440L1319 440L1319 525L1321 525Z" fill="#5451D8"/>
<path d="M1318.29 778.707C1318.68 779.098 1319.32 779.098 1319.71 778.707L1326.07 772.343C1326.46 771.953 1326.46 771.319 1326.07 770.929C1325.68 770.538 1325.05 770.538 1324.66 770.929L1319 776.586L1313.34 770.929C1312.95 770.538 1312.32 770.538 1311.93 770.929C1311.54 771.319 1311.54 771.953 1311.93 772.343L1318.29 778.707ZM1318 667V778H1320V667H1318Z" fill="#5451D8"/>
<path d="M1525.71 599.707C1526.1 599.317 1526.1 598.683 1525.71 598.293L1519.34 591.929C1518.95 591.538 1518.32 591.538 1517.93 591.929C1517.54 592.319 1517.54 592.953 1517.93 593.343L1523.59 599L1517.93 604.657C1517.54 605.047 1517.54 605.681 1517.93 606.071C1518.32 606.462 1518.95 606.462 1519.34 606.071L1525.71 599.707ZM1389 600H1525V598H1389V600Z" fill="#5451D8"/>
<path d="M1862.71 605.707C1863.1 605.317 1863.1 604.683 1862.71 604.293L1856.34 597.929C1855.95 597.538 1855.32 597.538 1854.93 597.929C1854.54 598.319 1854.54 598.953 1854.93 599.343L1860.59 605L1854.93 610.657C1854.54 611.047 1854.54 611.681 1854.93 612.071C1855.32 612.462 1855.95 612.462 1856.34 612.071L1862.71 605.707ZM1726 606H1862V604H1726V606Z" fill="#5451D8"/>
<path d="M1249.71 599.707C1250.1 599.317 1250.1 598.684 1249.71 598.293L1243.34 591.929C1242.95 591.539 1242.32 591.539 1241.93 591.929C1241.54 592.32 1241.54 592.953 1241.93 593.343L1247.58 599L1241.93 604.657C1241.54 605.047 1241.54 605.681 1241.93 606.071C1242.32 606.462 1242.95 606.462 1243.34 606.071L1249.71 599.707ZM926.998 600L1249 600V598L926.998 598V600Z" fill="#5451D8"/>
<defs>
<linearGradient id="paint0_linear_123_1100" x1="1395" y1="0" x2="1395" y2="1218" gradientUnits="userSpaceOnUse">
<stop stop-color="#EFF0A1" stop-opacity="0.75"/>
<stop offset="1" stop-color="#B0FF9C" stop-opacity="0.75"/>
</linearGradient>
</defs>
</svg>
