<svg width="2790" height="1218" viewBox="0 0 2790 1218" fill="none" xmlns="http://www.w3.org/2000/svg">
<rect width="2790" height="1218" rx="8" fill="url(#paint0_linear_217_1129)"/>
<g filter="url(#filter0_dd_217_1129)">
<rect x="1208" y="203" width="375" height="812" rx="24" fill="url(#paint1_linear_217_1129)"/>
<path d="M1243.21 226.004C1243.35 226.741 1243.78 227.11 1244.49 227.11C1244.99 227.11 1245.34 226.891 1245.54 226.452C1245.75 226.013 1245.85 225.299 1245.85 224.31C1245.65 224.599 1245.37 224.823 1245.01 224.982C1244.66 225.141 1244.26 225.22 1243.82 225.22C1243.22 225.22 1242.69 225.099 1242.23 224.856C1241.76 224.604 1241.39 224.235 1241.12 223.75C1240.86 223.255 1240.73 222.658 1240.73 221.958C1240.73 221.267 1240.87 220.665 1241.15 220.152C1241.44 219.639 1241.84 219.242 1242.37 218.962C1242.9 218.682 1243.52 218.542 1244.24 218.542C1245.62 218.542 1246.59 218.971 1247.14 219.83C1247.69 220.689 1247.97 221.953 1247.97 223.624C1247.97 224.837 1247.85 225.841 1247.63 226.634C1247.42 227.418 1247.05 228.015 1246.52 228.426C1246.01 228.837 1245.31 229.042 1244.41 229.042C1243.7 229.042 1243.09 228.902 1242.59 228.622C1242.1 228.342 1241.71 227.973 1241.44 227.516C1241.18 227.059 1241.03 226.555 1240.99 226.004H1243.21ZM1244.37 223.33C1244.76 223.33 1245.07 223.213 1245.31 222.98C1245.54 222.737 1245.66 222.411 1245.66 222C1245.66 221.552 1245.53 221.207 1245.29 220.964C1245.05 220.721 1244.72 220.6 1244.31 220.6C1243.9 220.6 1243.57 220.726 1243.33 220.978C1243.1 221.221 1242.98 221.557 1242.98 221.986C1242.98 222.387 1243.1 222.714 1243.33 222.966C1243.57 223.209 1243.92 223.33 1244.37 223.33ZM1251.02 229.112C1250.6 229.112 1250.26 228.991 1249.99 228.748C1249.72 228.496 1249.59 228.188 1249.59 227.824C1249.59 227.451 1249.72 227.138 1249.99 226.886C1250.26 226.634 1250.6 226.508 1251.02 226.508C1251.43 226.508 1251.77 226.634 1252.03 226.886C1252.3 227.138 1252.44 227.451 1252.44 227.824C1252.44 228.188 1252.3 228.496 1252.03 228.748C1251.77 228.991 1251.43 229.112 1251.02 229.112ZM1251.02 223.414C1250.6 223.414 1250.26 223.293 1249.99 223.05C1249.72 222.798 1249.59 222.49 1249.59 222.126C1249.59 221.753 1249.72 221.44 1249.99 221.188C1250.26 220.936 1250.6 220.81 1251.02 220.81C1251.43 220.81 1251.77 220.936 1252.03 221.188C1252.3 221.44 1252.44 221.753 1252.44 222.126C1252.44 222.49 1252.3 222.798 1252.03 223.05C1251.77 223.293 1251.43 223.414 1251.02 223.414ZM1253.98 227.082C1254.3 226.83 1254.44 226.713 1254.41 226.732C1255.33 225.976 1256.05 225.355 1256.57 224.87C1257.1 224.385 1257.55 223.876 1257.91 223.344C1258.28 222.812 1258.46 222.294 1258.46 221.79C1258.46 221.407 1258.37 221.109 1258.19 220.894C1258.01 220.679 1257.75 220.572 1257.39 220.572C1257.04 220.572 1256.76 220.707 1256.55 220.978C1256.36 221.239 1256.26 221.613 1256.26 222.098H1253.95C1253.97 221.305 1254.14 220.642 1254.45 220.11C1254.78 219.578 1255.21 219.186 1255.73 218.934C1256.26 218.682 1256.85 218.556 1257.49 218.556C1258.6 218.556 1259.44 218.841 1260 219.41C1260.57 219.979 1260.85 220.721 1260.85 221.636C1260.85 222.635 1260.51 223.563 1259.83 224.422C1259.15 225.271 1258.28 226.102 1257.23 226.914H1261.01V228.86H1253.98V227.082ZM1267.53 221.538C1267.46 221.193 1267.33 220.936 1267.14 220.768C1266.96 220.591 1266.69 220.502 1266.34 220.502C1265.81 220.502 1265.43 220.735 1265.2 221.202C1264.96 221.659 1264.84 222.387 1264.83 223.386C1265.04 223.059 1265.33 222.803 1265.71 222.616C1266.11 222.429 1266.54 222.336 1267 222.336C1267.92 222.336 1268.65 222.625 1269.2 223.204C1269.76 223.783 1270.04 224.59 1270.04 225.626C1270.04 226.307 1269.9 226.905 1269.62 227.418C1269.35 227.931 1268.95 228.333 1268.42 228.622C1267.89 228.911 1267.27 229.056 1266.55 229.056C1265.12 229.056 1264.12 228.608 1263.56 227.712C1263 226.807 1262.72 225.509 1262.72 223.82C1262.72 222.047 1263.01 220.731 1263.6 219.872C1264.2 219.004 1265.15 218.57 1266.46 218.57C1267.16 218.57 1267.74 218.71 1268.22 218.99C1268.71 219.261 1269.07 219.62 1269.31 220.068C1269.56 220.516 1269.71 221.006 1269.76 221.538H1267.53ZM1266.43 224.226C1266.03 224.226 1265.69 224.347 1265.42 224.59C1265.16 224.823 1265.03 225.159 1265.03 225.598C1265.03 226.046 1265.15 226.396 1265.39 226.648C1265.64 226.9 1266 227.026 1266.46 227.026C1266.87 227.026 1267.19 226.905 1267.42 226.662C1267.66 226.41 1267.79 226.069 1267.79 225.64C1267.79 225.201 1267.67 224.856 1267.44 224.604C1267.2 224.352 1266.87 224.226 1266.43 224.226ZM1271.79 225.136C1271.79 224.352 1271.94 223.666 1272.26 223.078C1272.58 222.481 1273.01 222.019 1273.56 221.692C1274.12 221.365 1274.74 221.202 1275.43 221.202C1276.1 221.202 1276.68 221.347 1277.18 221.636C1277.67 221.925 1278.04 222.289 1278.28 222.728V221.328H1279.57V229H1278.28V227.572C1278.03 228.02 1277.65 228.393 1277.15 228.692C1276.65 228.981 1276.07 229.126 1275.41 229.126C1274.73 229.126 1274.11 228.958 1273.56 228.622C1273.01 228.286 1272.58 227.815 1272.26 227.208C1271.94 226.601 1271.79 225.911 1271.79 225.136ZM1278.28 225.15C1278.28 224.571 1278.17 224.067 1277.93 223.638C1277.7 223.209 1277.38 222.882 1276.98 222.658C1276.59 222.425 1276.15 222.308 1275.68 222.308C1275.2 222.308 1274.77 222.42 1274.38 222.644C1273.98 222.868 1273.67 223.195 1273.44 223.624C1273.2 224.053 1273.09 224.557 1273.09 225.136C1273.09 225.724 1273.2 226.237 1273.44 226.676C1273.67 227.105 1273.98 227.437 1274.38 227.67C1274.77 227.894 1275.2 228.006 1275.68 228.006C1276.15 228.006 1276.59 227.894 1276.98 227.67C1277.38 227.437 1277.7 227.105 1277.93 226.676C1278.17 226.237 1278.28 225.729 1278.28 225.15ZM1291.37 221.188C1291.97 221.188 1292.5 221.314 1292.96 221.566C1293.43 221.809 1293.8 222.177 1294.07 222.672C1294.34 223.167 1294.48 223.769 1294.48 224.478V229H1293.22V224.66C1293.22 223.895 1293.03 223.311 1292.64 222.91C1292.27 222.499 1291.76 222.294 1291.12 222.294C1290.45 222.294 1289.93 222.509 1289.53 222.938C1289.14 223.358 1288.95 223.969 1288.95 224.772V229H1287.69V224.66C1287.69 223.895 1287.5 223.311 1287.11 222.91C1286.74 222.499 1286.23 222.294 1285.59 222.294C1284.92 222.294 1284.4 222.509 1284 222.938C1283.61 223.358 1283.42 223.969 1283.42 224.772V229H1282.14V221.328H1283.42V222.434C1283.67 222.033 1284 221.725 1284.42 221.51C1284.85 221.295 1285.33 221.188 1285.84 221.188C1286.48 221.188 1287.05 221.333 1287.55 221.622C1288.04 221.911 1288.41 222.336 1288.65 222.896C1288.87 222.355 1289.22 221.935 1289.72 221.636C1290.21 221.337 1290.76 221.188 1291.37 221.188Z" fill="#121212"/>
<path d="M1502.33 220.125C1502.33 219.893 1502.43 219.67 1502.59 219.506C1502.75 219.342 1502.98 219.25 1503.21 219.25H1504.37C1504.61 219.25 1504.83 219.342 1504.99 219.506C1505.16 219.67 1505.25 219.893 1505.25 220.125V228.875C1505.25 229.107 1505.16 229.33 1504.99 229.494C1504.83 229.658 1504.61 229.75 1504.37 229.75H1503.21C1502.98 229.75 1502.75 229.658 1502.59 229.494C1502.43 229.33 1502.33 229.107 1502.33 228.875V220.125ZM1498.54 223.625C1498.54 223.393 1498.63 223.17 1498.8 223.006C1498.96 222.842 1499.18 222.75 1499.42 222.75H1500.58C1500.82 222.75 1501.04 222.842 1501.2 223.006C1501.37 223.17 1501.46 223.393 1501.46 223.625V228.875C1501.46 229.107 1501.37 229.33 1501.2 229.494C1501.04 229.658 1500.82 229.75 1500.58 229.75H1499.42C1499.18 229.75 1498.96 229.658 1498.8 229.494C1498.63 229.33 1498.54 229.107 1498.54 228.875V223.625ZM1495.62 226.25C1495.39 226.25 1495.17 226.342 1495.01 226.506C1494.84 226.67 1494.75 226.893 1494.75 227.125V228.875C1494.75 229.107 1494.84 229.33 1495.01 229.494C1495.17 229.658 1495.39 229.75 1495.62 229.75H1496.79C1497.02 229.75 1497.25 229.658 1497.41 229.494C1497.57 229.33 1497.67 229.107 1497.67 228.875V227.125C1497.67 226.893 1497.57 226.67 1497.41 226.506C1497.25 226.342 1497.02 226.25 1496.79 226.25H1495.62Z" fill="#121212"/>
<path d="M1516.2 223.368C1516.5 223.666 1516.97 223.695 1517.29 223.427C1520.02 221.187 1523.97 221.187 1526.7 223.421C1527.03 223.689 1527.51 223.666 1527.8 223.368C1528.15 223.024 1528.12 222.453 1527.75 222.143C1524.41 219.419 1519.6 219.419 1516.26 222.143C1515.88 222.447 1515.85 223.018 1516.2 223.368ZM1520.73 227.895L1521.59 228.753C1521.81 228.98 1522.18 228.98 1522.41 228.753L1523.27 227.895C1523.54 227.621 1523.48 227.148 1523.13 226.968C1522.78 226.786 1522.39 226.692 1521.99 226.692C1521.59 226.692 1521.2 226.786 1520.85 226.968C1520.52 227.148 1520.45 227.621 1520.73 227.895ZM1518.55 225.719C1518.84 226.005 1519.29 226.034 1519.62 225.795C1520.32 225.303 1521.15 225.038 1522 225.038C1522.85 225.038 1523.68 225.303 1524.38 225.795C1524.71 226.028 1525.16 226.005 1525.45 225.719L1525.45 225.713C1525.8 225.363 1525.78 224.768 1525.38 224.483C1523.37 223.03 1520.63 223.03 1518.62 224.483C1518.22 224.774 1518.2 225.363 1518.55 225.719Z" fill="#121212"/>
<g clip-path="url(#clip0_217_1129)">
<path d="M1539.33 221C1539.02 221 1538.73 221.123 1538.51 221.342C1538.29 221.561 1538.17 221.857 1538.17 222.167V226.833C1538.17 227.143 1538.29 227.439 1538.51 227.658C1538.73 227.877 1539.02 228 1539.33 228H1547.5C1547.81 228 1548.11 227.877 1548.33 227.658C1548.54 227.439 1548.67 227.143 1548.67 226.833V226.25C1548.98 226.25 1549.27 226.127 1549.49 225.908C1549.71 225.689 1549.83 225.393 1549.83 225.083V223.917C1549.83 223.607 1549.71 223.311 1549.49 223.092C1549.27 222.873 1548.98 222.75 1548.67 222.75V222.167C1548.67 221.857 1548.54 221.561 1548.33 221.342C1548.11 221.123 1547.81 221 1547.5 221H1539.33Z" fill="#121212"/>
</g>
<path d="M1321.62 461.031L1342.84 475.625C1343.18 474.854 1343.54 474.271 1343.94 473.875C1344.35 473.479 1344.98 473.104 1345.81 472.75V474.031C1345.4 474.594 1345.12 475.104 1345 475.562C1344.88 476.021 1344.81 476.958 1344.81 478.375V499.406C1342.17 500.406 1340.2 501.281 1338.91 502.031C1337.61 502.76 1336.22 503.75 1334.72 505C1332.26 503.396 1330.08 502.229 1328.19 501.5C1326.29 500.771 1324.25 500.271 1322.06 500V499.406C1322.81 498.76 1323.29 498.115 1323.5 497.469C1323.73 496.802 1323.84 495.438 1323.84 493.375V477C1326.7 476.208 1328.72 475.312 1329.91 474.312L1321.62 468.656V461.031ZM1338.44 480.156L1332.03 475.719C1331.45 476.198 1330.85 476.615 1330.25 476.969V496.281L1338.44 499.906V480.156ZM1375.42 476.25V499.625C1372.3 500.896 1370.03 501.938 1368.64 502.75C1367.58 503.354 1366.56 504.104 1365.58 505C1362.56 503.167 1360.06 501.896 1358.08 501.188C1356.58 500.646 1354.88 500.333 1352.98 500.25L1352.67 499.625C1353.46 498.958 1353.96 498.354 1354.17 497.812C1354.46 497.104 1354.61 495.906 1354.61 494.219V477.062C1358.42 475.792 1361.68 474 1364.39 471.688C1367.35 473.646 1371.02 475.167 1375.42 476.25ZM1360.92 496.594L1369.08 499.938V480.062C1366.51 478.875 1364.7 478.094 1363.64 477.719C1362.89 477.448 1361.98 477.219 1360.92 477.031V496.594ZM1402.53 471.688L1407.65 476.469L1410.68 473.531L1411.56 474.375C1410.1 475.708 1409.22 476.719 1408.9 477.406C1408.49 478.323 1408.28 479.583 1408.28 481.188V496.031C1408.28 497.406 1408.5 498.427 1408.93 499.094C1409.2 499.531 1409.51 499.75 1409.84 499.75C1410.13 499.75 1410.82 499.344 1411.9 498.531L1412.65 499.5L1405.93 505C1404.2 503.688 1403.09 502.531 1402.59 501.531C1402.11 500.51 1401.87 498.875 1401.87 496.625V479.406L1398.47 476.469L1393.4 480.5V498.281L1395.65 500.531L1390.12 505L1384.56 500.531L1387 498.281V482.312C1387 480.042 1386.77 478.51 1386.31 477.719C1386 477.177 1385.64 476.906 1385.25 476.906C1384.83 476.906 1384.2 477.229 1383.37 477.875L1382.62 477L1389.28 471.688C1391.11 472.979 1392.26 474 1392.72 474.75C1393.17 475.5 1393.4 476.542 1393.4 477.875V478.938L1402.53 471.688ZM1440.57 476.25V499.625C1437.45 500.896 1435.19 501.938 1433.79 502.75C1432.73 503.354 1431.71 504.104 1430.73 505C1427.71 503.167 1425.21 501.896 1423.23 501.188C1421.73 500.646 1420.03 500.333 1418.14 500.25L1417.82 499.625C1418.61 498.958 1419.11 498.354 1419.32 497.812C1419.61 497.104 1419.76 495.906 1419.76 494.219V477.062C1423.57 475.792 1426.83 474 1429.54 471.688C1432.5 473.646 1436.18 475.167 1440.57 476.25ZM1426.07 496.594L1434.23 499.938V480.062C1431.67 478.875 1429.85 478.094 1428.79 477.719C1428.04 477.448 1427.14 477.219 1426.07 477.031V496.594ZM1465.93 471.688L1470.65 477.344L1465.93 481.531L1461.99 476.562L1458.9 479.375V497.594L1462.46 500.156L1465.68 497.594L1466.4 498.594L1458.4 505C1456.69 503.479 1455.25 502.385 1454.09 501.719C1452.94 501.052 1451.68 500.531 1450.31 500.156V499.469C1451.22 498.823 1451.82 498.177 1452.09 497.531C1452.38 496.865 1452.52 495.604 1452.52 493.75V481C1452.52 479.396 1452.34 478.333 1451.96 477.812C1451.61 477.271 1451.21 477 1450.77 477C1450.29 477 1449.64 477.417 1448.81 478.25L1448.06 477.344L1454.65 471.688C1456.42 473.042 1457.63 474.219 1458.27 475.219C1458.69 475.844 1458.9 476.708 1458.9 477.812L1465.93 471.688Z" fill="#E7DCDC"/>
<path d="M1271.52 609V592.2H1279.06C1280.99 592.2 1282.48 592.592 1283.52 593.376C1284.56 594.144 1285.08 595.2 1285.08 596.544C1285.08 597.456 1284.87 598.224 1284.46 598.848C1284.06 599.472 1283.51 599.952 1282.82 600.288C1282.14 600.624 1281.39 600.792 1280.59 600.792L1281.02 600.072C1281.98 600.072 1282.83 600.24 1283.57 600.576C1284.3 600.912 1284.89 601.408 1285.32 602.064C1285.75 602.704 1285.97 603.504 1285.97 604.464C1285.97 605.904 1285.42 607.024 1284.34 607.824C1283.26 608.608 1281.66 609 1279.54 609H1271.52ZM1273.92 607.056H1279.44C1280.77 607.056 1281.78 606.832 1282.49 606.384C1283.19 605.936 1283.54 605.232 1283.54 604.272C1283.54 603.296 1283.19 602.584 1282.49 602.136C1281.78 601.688 1280.77 601.464 1279.44 601.464H1273.7V599.52H1278.84C1280.06 599.52 1281 599.296 1281.67 598.848C1282.34 598.4 1282.68 597.728 1282.68 596.832C1282.68 595.936 1282.34 595.264 1281.67 594.816C1281 594.368 1280.06 594.144 1278.84 594.144H1273.92V607.056ZM1290.07 609V591.192H1292.37V609H1290.07ZM1302.94 609.144C1301.66 609.144 1300.52 608.864 1299.53 608.304C1298.54 607.744 1297.76 606.976 1297.18 606C1296.6 605.008 1296.32 603.888 1296.32 602.64C1296.32 601.376 1296.6 600.256 1297.18 599.28C1297.76 598.304 1298.54 597.544 1299.53 597C1300.52 596.44 1301.66 596.16 1302.94 596.16C1304.2 596.16 1305.33 596.44 1306.32 597C1307.33 597.544 1308.12 598.304 1308.68 599.28C1309.25 600.24 1309.54 601.36 1309.54 602.64C1309.54 603.904 1309.25 605.024 1308.68 606C1308.12 606.976 1307.33 607.744 1306.32 608.304C1305.33 608.864 1304.2 609.144 1302.94 609.144ZM1302.94 607.128C1303.76 607.128 1304.48 606.944 1305.12 606.576C1305.78 606.208 1306.29 605.688 1306.66 605.016C1307.03 604.328 1307.21 603.536 1307.21 602.64C1307.21 601.728 1307.03 600.944 1306.66 600.288C1306.29 599.616 1305.78 599.096 1305.12 598.728C1304.48 598.36 1303.76 598.176 1302.94 598.176C1302.12 598.176 1301.4 598.36 1300.76 598.728C1300.12 599.096 1299.6 599.616 1299.22 600.288C1298.84 600.944 1298.64 601.728 1298.64 602.64C1298.64 603.536 1298.84 604.328 1299.22 605.016C1299.6 605.688 1300.12 606.208 1300.76 606.576C1301.4 606.944 1302.12 607.128 1302.94 607.128ZM1318.89 609.144C1317.61 609.144 1316.48 608.864 1315.49 608.304C1314.49 607.744 1313.71 606.976 1313.13 606C1312.56 605.008 1312.27 603.888 1312.27 602.64C1312.27 601.376 1312.56 600.256 1313.13 599.28C1313.71 598.304 1314.49 597.544 1315.49 597C1316.48 596.44 1317.61 596.16 1318.89 596.16C1320.16 596.16 1321.29 596.44 1322.28 597C1323.29 597.544 1324.07 598.304 1324.63 599.28C1325.21 600.24 1325.49 601.36 1325.49 602.64C1325.49 603.904 1325.21 605.024 1324.63 606C1324.07 606.976 1323.29 607.744 1322.28 608.304C1321.29 608.864 1320.16 609.144 1318.89 609.144ZM1318.89 607.128C1319.71 607.128 1320.44 606.944 1321.08 606.576C1321.73 606.208 1322.25 605.688 1322.61 605.016C1322.98 604.328 1323.17 603.536 1323.17 602.64C1323.17 601.728 1322.98 600.944 1322.61 600.288C1322.25 599.616 1321.73 599.096 1321.08 598.728C1320.44 598.36 1319.71 598.176 1318.89 598.176C1318.08 598.176 1317.35 598.36 1316.71 598.728C1316.07 599.096 1315.56 599.616 1315.17 600.288C1314.79 600.944 1314.6 601.728 1314.6 602.64C1314.6 603.536 1314.79 604.328 1315.17 605.016C1315.56 605.688 1316.07 606.208 1316.71 606.576C1317.35 606.944 1318.08 607.128 1318.89 607.128ZM1334.66 609.144C1333.42 609.144 1332.32 608.872 1331.34 608.328C1330.38 607.784 1329.62 607.024 1329.06 606.048C1328.5 605.072 1328.22 603.936 1328.22 602.64C1328.22 601.344 1328.5 600.216 1329.06 599.256C1329.62 598.28 1330.38 597.52 1331.34 596.976C1332.32 596.432 1333.42 596.16 1334.66 596.16C1335.73 596.16 1336.7 596.4 1337.56 596.88C1338.42 597.36 1339.11 598.08 1339.62 599.04C1340.15 600 1340.42 601.2 1340.42 602.64C1340.42 604.08 1340.16 605.28 1339.65 606.24C1339.15 607.2 1338.47 607.928 1337.61 608.424C1336.74 608.904 1335.76 609.144 1334.66 609.144ZM1334.85 607.128C1335.65 607.128 1336.37 606.944 1337.01 606.576C1337.66 606.208 1338.18 605.688 1338.54 605.016C1338.93 604.328 1339.12 603.536 1339.12 602.64C1339.12 601.728 1338.93 600.944 1338.54 600.288C1338.18 599.616 1337.66 599.096 1337.01 598.728C1336.37 598.36 1335.65 598.176 1334.85 598.176C1334.03 598.176 1333.3 598.36 1332.66 598.728C1332.02 599.096 1331.51 599.616 1331.13 600.288C1330.74 600.944 1330.55 601.728 1330.55 602.64C1330.55 603.536 1330.74 604.328 1331.13 605.016C1331.51 605.688 1332.02 606.208 1332.66 606.576C1333.3 606.944 1334.03 607.128 1334.85 607.128ZM1339.19 609V605.568L1339.34 602.616L1339.1 599.664V591.192H1341.4V609H1339.19ZM1358.01 609.144C1356.73 609.144 1355.74 608.8 1355.04 608.112C1354.33 607.424 1353.98 606.44 1353.98 605.16V593.496H1356.28V605.064C1356.28 605.752 1356.45 606.28 1356.79 606.648C1357.14 607.016 1357.64 607.2 1358.28 607.2C1359 607.2 1359.6 607 1360.08 606.6L1360.8 608.256C1360.44 608.56 1360.02 608.784 1359.52 608.928C1359.04 609.072 1358.54 609.144 1358.01 609.144ZM1351.82 598.176V596.28H1359.93V598.176H1351.82ZM1371.09 596.16C1372.13 596.16 1373.05 596.36 1373.83 596.76C1374.63 597.16 1375.25 597.768 1375.7 598.584C1376.15 599.4 1376.37 600.432 1376.37 601.68V609H1374.07V601.944C1374.07 600.712 1373.77 599.784 1373.16 599.16C1372.57 598.536 1371.73 598.224 1370.64 598.224C1369.82 598.224 1369.11 598.384 1368.5 598.704C1367.89 599.024 1367.42 599.496 1367.09 600.12C1366.77 600.744 1366.61 601.52 1366.61 602.448V609H1364.3V591.192H1366.61V599.712L1366.15 598.8C1366.57 597.968 1367.21 597.32 1368.07 596.856C1368.93 596.392 1369.94 596.16 1371.09 596.16ZM1389.25 609V606.312L1389.13 605.808V601.224C1389.13 600.248 1388.85 599.496 1388.27 598.968C1387.71 598.424 1386.86 598.152 1385.73 598.152C1384.97 598.152 1384.24 598.28 1383.52 598.536C1382.8 598.776 1382.19 599.104 1381.69 599.52L1380.73 597.792C1381.39 597.264 1382.17 596.864 1383.09 596.592C1384.01 596.304 1384.98 596.16 1385.99 596.16C1387.73 596.16 1389.08 596.584 1390.02 597.432C1390.97 598.28 1391.44 599.576 1391.44 601.32V609H1389.25ZM1385.08 609.144C1384.13 609.144 1383.3 608.984 1382.58 608.664C1381.88 608.344 1381.33 607.904 1380.95 607.344C1380.57 606.768 1380.37 606.12 1380.37 605.4C1380.37 604.712 1380.53 604.088 1380.85 603.528C1381.19 602.968 1381.73 602.52 1382.46 602.184C1383.21 601.848 1384.22 601.68 1385.49 601.68H1389.52V603.336H1385.58C1384.43 603.336 1383.65 603.528 1383.25 603.912C1382.85 604.296 1382.65 604.76 1382.65 605.304C1382.65 605.928 1382.9 606.432 1383.4 606.816C1383.89 607.184 1384.58 607.368 1385.46 607.368C1386.33 607.368 1387.08 607.176 1387.72 606.792C1388.37 606.408 1388.85 605.848 1389.13 605.112L1389.59 606.696C1389.29 607.448 1388.75 608.048 1387.98 608.496C1387.21 608.928 1386.25 609.144 1385.08 609.144ZM1400.79 609.144C1399.51 609.144 1398.52 608.8 1397.81 608.112C1397.11 607.424 1396.76 606.44 1396.76 605.16V593.496H1399.06V605.064C1399.06 605.752 1399.23 606.28 1399.57 606.648C1399.92 607.016 1400.41 607.2 1401.05 607.2C1401.77 607.2 1402.37 607 1402.85 606.6L1403.57 608.256C1403.22 608.56 1402.8 608.784 1402.3 608.928C1401.82 609.072 1401.32 609.144 1400.79 609.144ZM1394.6 598.176V596.28H1402.71V598.176H1394.6ZM1417.89 609.144C1416.84 609.144 1415.83 609 1414.87 608.712C1413.92 608.424 1413.18 608.072 1412.64 607.656L1413.6 605.832C1414.14 606.2 1414.81 606.512 1415.61 606.768C1416.41 607.024 1417.23 607.152 1418.06 607.152C1419.13 607.152 1419.9 607 1420.36 606.696C1420.84 606.392 1421.08 605.968 1421.08 605.424C1421.08 605.024 1420.94 604.712 1420.65 604.488C1420.36 604.264 1419.98 604.096 1419.5 603.984C1419.04 603.872 1418.52 603.776 1417.94 603.696C1417.36 603.6 1416.79 603.488 1416.21 603.36C1415.64 603.216 1415.11 603.024 1414.63 602.784C1414.15 602.528 1413.76 602.184 1413.48 601.752C1413.19 601.304 1413.04 600.712 1413.04 599.976C1413.04 599.208 1413.26 598.536 1413.69 597.96C1414.12 597.384 1414.73 596.944 1415.52 596.64C1416.32 596.32 1417.26 596.16 1418.35 596.16C1419.18 596.16 1420.02 596.264 1420.87 596.472C1421.73 596.664 1422.44 596.944 1422.98 597.312L1422 599.136C1421.42 598.752 1420.82 598.488 1420.2 598.344C1419.57 598.2 1418.95 598.128 1418.32 598.128C1417.32 598.128 1416.56 598.296 1416.07 598.632C1415.57 598.952 1415.32 599.368 1415.32 599.88C1415.32 600.312 1415.47 600.648 1415.76 600.888C1416.06 601.112 1416.44 601.288 1416.91 601.416C1417.39 601.544 1417.92 601.656 1418.49 601.752C1419.07 601.832 1419.64 601.944 1420.22 602.088C1420.8 602.216 1421.32 602.4 1421.78 602.64C1422.26 602.88 1422.64 603.216 1422.93 603.648C1423.24 604.08 1423.39 604.656 1423.39 605.376C1423.39 606.144 1423.16 606.808 1422.72 607.368C1422.27 607.928 1421.64 608.368 1420.82 608.688C1420 608.992 1419.03 609.144 1417.89 609.144ZM1434.88 609V606.312L1434.76 605.808V601.224C1434.76 600.248 1434.48 599.496 1433.9 598.968C1433.34 598.424 1432.49 598.152 1431.36 598.152C1430.6 598.152 1429.87 598.28 1429.15 598.536C1428.43 598.776 1427.82 599.104 1427.32 599.52L1426.36 597.792C1427.02 597.264 1427.8 596.864 1428.72 596.592C1429.64 596.304 1430.61 596.16 1431.62 596.16C1433.36 596.16 1434.71 596.584 1435.65 597.432C1436.6 598.28 1437.07 599.576 1437.07 601.32V609H1434.88ZM1430.71 609.144C1429.76 609.144 1428.93 608.984 1428.21 608.664C1427.51 608.344 1426.96 607.904 1426.58 607.344C1426.2 606.768 1426 606.12 1426 605.4C1426 604.712 1426.16 604.088 1426.48 603.528C1426.82 602.968 1427.36 602.52 1428.09 602.184C1428.84 601.848 1429.85 601.68 1431.12 601.68H1435.15V603.336H1431.21C1430.06 603.336 1429.28 603.528 1428.88 603.912C1428.48 604.296 1428.28 604.76 1428.28 605.304C1428.28 605.928 1428.53 606.432 1429.03 606.816C1429.52 607.184 1430.21 607.368 1431.09 607.368C1431.96 607.368 1432.71 607.176 1433.35 606.792C1434 606.408 1434.48 605.848 1434.76 605.112L1435.22 606.696C1434.92 607.448 1434.38 608.048 1433.61 608.496C1432.84 608.928 1431.88 609.144 1430.71 609.144ZM1445.15 609L1439.59 596.28H1441.99L1446.93 607.8H1445.78L1450.82 596.28H1453.07L1447.51 609H1445.15ZM1461.26 609.144C1459.9 609.144 1458.7 608.864 1457.66 608.304C1456.63 607.744 1455.83 606.976 1455.26 606C1454.7 605.024 1454.42 603.904 1454.42 602.64C1454.42 601.376 1454.69 600.256 1455.23 599.28C1455.79 598.304 1456.55 597.544 1457.51 597C1458.49 596.44 1459.58 596.16 1460.8 596.16C1462.03 596.16 1463.12 596.432 1464.06 596.976C1465.01 597.52 1465.74 598.288 1466.27 599.28C1466.82 600.256 1467.09 601.4 1467.09 602.712C1467.09 602.808 1467.08 602.92 1467.06 603.048C1467.06 603.176 1467.06 603.296 1467.04 603.408H1456.22V601.752H1465.84L1464.9 602.328C1464.92 601.512 1464.75 600.784 1464.4 600.144C1464.05 599.504 1463.56 599.008 1462.94 598.656C1462.33 598.288 1461.62 598.104 1460.8 598.104C1460 598.104 1459.29 598.288 1458.66 598.656C1458.04 599.008 1457.55 599.512 1457.2 600.168C1456.85 600.808 1456.67 601.544 1456.67 602.376V602.76C1456.67 603.608 1456.86 604.368 1457.25 605.04C1457.65 605.696 1458.2 606.208 1458.9 606.576C1459.61 606.944 1460.42 607.128 1461.33 607.128C1462.08 607.128 1462.76 607 1463.37 606.744C1463.99 606.488 1464.54 606.104 1465 605.592L1466.27 607.08C1465.7 607.752 1464.98 608.264 1464.11 608.616C1463.26 608.968 1462.31 609.144 1461.26 609.144ZM1474.66 609.144C1473.6 609.144 1472.59 609 1471.63 608.712C1470.69 608.424 1469.94 608.072 1469.4 607.656L1470.36 605.832C1470.9 606.2 1471.58 606.512 1472.38 606.768C1473.18 607.024 1473.99 607.152 1474.82 607.152C1475.9 607.152 1476.66 607 1477.13 606.696C1477.61 606.392 1477.85 605.968 1477.85 605.424C1477.85 605.024 1477.7 604.712 1477.42 604.488C1477.13 604.264 1476.74 604.096 1476.26 603.984C1475.8 603.872 1475.28 603.776 1474.7 603.696C1474.13 603.6 1473.55 603.488 1472.98 603.36C1472.4 603.216 1471.87 603.024 1471.39 602.784C1470.91 602.528 1470.53 602.184 1470.24 601.752C1469.95 601.304 1469.81 600.712 1469.81 599.976C1469.81 599.208 1470.02 598.536 1470.46 597.96C1470.89 597.384 1471.5 596.944 1472.28 596.64C1473.08 596.32 1474.02 596.16 1475.11 596.16C1475.94 596.16 1476.78 596.264 1477.63 596.472C1478.5 596.664 1479.2 596.944 1479.74 597.312L1478.76 599.136C1478.18 598.752 1477.58 598.488 1476.96 598.344C1476.34 598.2 1475.71 598.128 1475.09 598.128C1474.08 598.128 1473.33 598.296 1472.83 598.632C1472.34 598.952 1472.09 599.368 1472.09 599.88C1472.09 600.312 1472.23 600.648 1472.52 600.888C1472.82 601.112 1473.21 601.288 1473.67 601.416C1474.15 601.544 1474.68 601.656 1475.26 601.752C1475.83 601.832 1476.41 601.944 1476.98 602.088C1477.56 602.216 1478.08 602.4 1478.54 602.64C1479.02 602.88 1479.41 603.216 1479.7 603.648C1480 604.08 1480.15 604.656 1480.15 605.376C1480.15 606.144 1479.93 606.808 1479.48 607.368C1479.03 607.928 1478.4 608.368 1477.58 608.688C1476.77 608.992 1475.79 609.144 1474.66 609.144ZM1490.92 609V591.192H1493.22V609H1490.92ZM1498.34 609V596.28H1500.64V609H1498.34ZM1499.49 593.832C1499.04 593.832 1498.67 593.688 1498.36 593.4C1498.08 593.112 1497.93 592.76 1497.93 592.344C1497.93 591.912 1498.08 591.552 1498.36 591.264C1498.67 590.976 1499.04 590.832 1499.49 590.832C1499.94 590.832 1500.31 590.976 1500.6 591.264C1500.9 591.536 1501.05 591.88 1501.05 592.296C1501.05 592.728 1500.91 593.096 1500.62 593.4C1500.33 593.688 1499.96 593.832 1499.49 593.832ZM1506.1 609V595.152C1506.1 593.904 1506.46 592.912 1507.18 592.176C1507.91 591.424 1508.95 591.048 1510.3 591.048C1510.79 591.048 1511.27 591.112 1511.71 591.24C1512.18 591.352 1512.57 591.536 1512.89 591.792L1512.19 593.544C1511.95 593.352 1511.68 593.208 1511.38 593.112C1511.07 593 1510.75 592.944 1510.42 592.944C1509.75 592.944 1509.23 593.136 1508.88 593.52C1508.53 593.888 1508.35 594.44 1508.35 595.176V596.88L1508.4 597.936V609H1506.1ZM1503.94 598.176V596.28H1512.05V598.176H1503.94ZM1520.42 609.144C1519.06 609.144 1517.86 608.864 1516.82 608.304C1515.8 607.744 1515 606.976 1514.42 606C1513.86 605.024 1513.58 603.904 1513.58 602.64C1513.58 601.376 1513.85 600.256 1514.4 599.28C1514.96 598.304 1515.72 597.544 1516.68 597C1517.65 596.44 1518.75 596.16 1519.96 596.16C1521.2 596.16 1522.28 596.432 1523.23 596.976C1524.17 597.52 1524.91 598.288 1525.44 599.28C1525.98 600.256 1526.25 601.4 1526.25 602.712C1526.25 602.808 1526.24 602.92 1526.23 603.048C1526.23 603.176 1526.22 603.296 1526.2 603.408H1515.38V601.752H1525L1524.07 602.328C1524.08 601.512 1523.92 600.784 1523.56 600.144C1523.21 599.504 1522.72 599.008 1522.1 598.656C1521.49 598.288 1520.78 598.104 1519.96 598.104C1519.16 598.104 1518.45 598.288 1517.83 598.656C1517.2 599.008 1516.72 599.512 1516.36 600.168C1516.01 600.808 1515.84 601.544 1515.84 602.376V602.76C1515.84 603.608 1516.03 604.368 1516.41 605.04C1516.81 605.696 1517.36 606.208 1518.07 606.576C1518.77 606.944 1519.58 607.128 1520.49 607.128C1521.24 607.128 1521.92 607 1522.53 606.744C1523.16 606.488 1523.7 606.104 1524.16 605.592L1525.44 607.08C1524.86 607.752 1524.14 608.264 1523.28 608.616C1522.43 608.968 1521.48 609.144 1520.42 609.144Z" fill="#F9F0F0"/>
<path d="M1304 1008H1488" stroke="#E7DCDC" stroke-width="9" stroke-linecap="round"/>
</g>
<defs>
<filter id="filter0_dd_217_1129" x="1168" y="163" width="460" height="897" filterUnits="userSpaceOnUse" color-interpolation-filters="sRGB">
<feFlood flood-opacity="0" result="BackgroundImageFix"/>
<feColorMatrix in="SourceAlpha" type="matrix" values="0 0 0 0 0 0 0 0 0 0 0 0 0 0 0 0 0 0 127 0" result="hardAlpha"/>
<feOffset dx="5" dy="5"/>
<feGaussianBlur stdDeviation="20"/>
<feComposite in2="hardAlpha" operator="out"/>
<feColorMatrix type="matrix" values="0 0 0 0 0 0 0 0 0 0 0 0 0 0 0 0 0 0 0.5 0"/>
<feBlend mode="normal" in2="BackgroundImageFix" result="effect1_dropShadow_217_1129"/>
<feColorMatrix in="SourceAlpha" type="matrix" values="0 0 0 0 0 0 0 0 0 0 0 0 0 0 0 0 0 0 127 0" result="hardAlpha"/>
<feOffset dx="-5" dy="-5"/>
<feGaussianBlur stdDeviation="17.5"/>
<feComposite in2="hardAlpha" operator="out"/>
<feColorMatrix type="matrix" values="0 0 0 0 0 0 0 0 0 0 0 0 0 0 0 0 0 0 0.5 0"/>
<feBlend mode="normal" in2="effect1_dropShadow_217_1129" result="effect2_dropShadow_217_1129"/>
<feBlend mode="normal" in="SourceGraphic" in2="effect2_dropShadow_217_1129" result="shape"/>
</filter>
<linearGradient id="paint0_linear_217_1129" x1="1395" y1="0" x2="1395" y2="1218" gradientUnits="userSpaceOnUse">
<stop stop-color="#A1F0BC" stop-opacity="0.75"/>
<stop offset="1" stop-color="#9CA0FF" stop-opacity="0.75"/>
</linearGradient>
<linearGradient id="paint1_linear_217_1129" x1="1395.5" y1="203" x2="1395.5" y2="1015" gradientUnits="userSpaceOnUse">
<stop stop-color="#DB1F1F"/>
<stop offset="1" stop-color="#A60000"/>
</linearGradient>
<clipPath id="clip0_217_1129">
<rect width="14" height="14" fill="white" transform="translate(1537 217.5)"/>
</clipPath>
</defs>
</svg>
