<svg width="32" height="32" viewBox="0 0 32 32" fill="none" xmlns="http://www.w3.org/2000/svg">
<path fill-rule="evenodd" clip-rule="evenodd" d="M21.1735 27.8933C21.2135 28.1067 21.0934 28.3333 20.8934 28.4133C19.3868 29.0133 17.7335 29.3333 16.0268 29.3333C13.0801 29.3333 10.3601 28.3867 8.16012 26.76C7.97345 26.6267 7.92016 26.36 8.04016 26.16C8.7735 24.8533 11.6401 20.6533 17.9734 18.3067C18.2134 18.2133 18.4801 18.3333 18.5601 18.5733C20.1468 22.8267 20.8935 26.4267 21.1735 27.8933Z" fill="#F9F0F0"/>
<path fill-rule="evenodd" clip-rule="evenodd" d="M29.0935 18.52C28.4802 21.8 26.6402 24.6533 24.0668 26.6C23.7868 26.8133 23.3868 26.6533 23.3202 26.32C23.0402 24.88 22.3602 21.7733 21.0535 18.08C20.9602 17.8 21.1469 17.4933 21.4402 17.4533C24.7602 17.0533 27.6669 17.6933 28.7602 17.9866C28.9869 18.0666 29.1335 18.2933 29.0935 18.52Z" fill="#F9F0F0"/>
<path fill-rule="evenodd" clip-rule="evenodd" d="M28.7867 15.76C27.4267 15.52 23.96 15.0133 20.4133 15.4C20.2 15.4266 20.0133 15.3066 19.92 15.1066C19.8666 14.9866 19.8266 14.8667 19.7733 14.7467C19.56 14.2533 19.3333 13.7467 19.1066 13.2533C18.9866 13.0133 19.1066 12.72 19.3466 12.6133C23.08 11 25.1599 8.91999 25.9733 7.98665C26.1733 7.75999 26.52 7.77334 26.7067 8.01334C28.24 10.0533 29.1866 12.5467 29.3333 15.24C29.3466 15.5733 29.08 15.8133 28.7867 15.76Z" fill="#F9F0F0"/>
<path fill-rule="evenodd" clip-rule="evenodd" d="M24.5866 6.38669C23.8933 7.22669 21.9466 9.22666 18.2533 10.6933C18.0399 10.7867 17.7866 10.6933 17.6666 10.48C15.9599 7.38666 14.1466 4.78667 13.3066 3.61333C13.1066 3.33333 13.2666 2.93335 13.6 2.88002C14.3733 2.74668 15.1866 2.68002 16.0133 2.68002C19.24 2.68002 22.2133 3.82667 24.52 5.74667C24.72 5.89334 24.7466 6.18669 24.5866 6.38669Z" fill="#F9F0F0"/>
<path fill-rule="evenodd" clip-rule="evenodd" d="M14.6934 11.7867C9.64003 13.0533 5.1733 13.2267 3.54663 13.2534C3.23997 13.2534 3.01335 12.96 3.09335 12.6667C4.05335 8.93335 6.61332 5.81336 9.98666 4.09336C10.1867 3.98669 10.44 4.05334 10.5733 4.24001C11.2667 5.20001 13.1467 7.90669 14.9867 11.0934C15.1333 11.36 15 11.7067 14.6934 11.7867Z" fill="#F9F0F0"/>
<path fill-rule="evenodd" clip-rule="evenodd" d="M17.2268 15.4667C17.3468 15.72 17.2002 16.0266 16.9335 16.12C11.0268 18.0266 7.49351 22.76 6.42684 24.3867C6.25351 24.6533 5.88018 24.6667 5.68018 24.4267C3.81351 22.1333 2.68018 19.5066 2.68018 16.32V16.08C2.68018 15.8133 2.89349 15.6 3.16016 15.6133C4.84016 15.68 10.3202 15.4533 16.0135 13.8133C16.2268 13.7466 16.4668 13.8533 16.5601 14.0533C16.7868 14.52 17.0135 14.9867 17.2268 15.4667Z" fill="#F9F0F0"/>
</svg>
