<svg width="28" height="28" viewBox="0 0 28 28" fill="none" xmlns="http://www.w3.org/2000/svg">
<path d="M2.3335 7.00002C2.3335 6.38118 2.57933 5.78769 3.01691 5.3501C3.4545 4.91252 4.04799 4.66669 4.66683 4.66669H23.3335C23.9523 4.66669 24.5458 4.91252 24.9834 5.3501C25.421 5.78769 25.6668 6.38118 25.6668 7.00002V21C25.6668 21.6189 25.421 22.2124 24.9834 22.6499C24.5458 23.0875 23.9523 23.3334 23.3335 23.3334H4.66683C4.04799 23.3334 3.4545 23.0875 3.01691 22.6499C2.57933 22.2124 2.3335 21.6189 2.3335 21V7.00002Z" stroke="#F9F0F0" stroke-width="2" stroke-linecap="round" stroke-linejoin="round"/>
<path d="M2.3335 9.33337L11.0847 16.3345C11.9122 16.9966 12.9404 17.3574 14.0002 17.3574C15.0599 17.3574 16.0882 16.9966 16.9157 16.3345L25.6668 9.33337" stroke="#F9F0F0" stroke-width="2" stroke-linejoin="round"/>
</svg>
