<svg width="765" height="275" viewBox="0 0 765 275" fill="none" xmlns="http://www.w3.org/2000/svg">
<rect width="765" height="275" fill="#B2BCB2"/>
<path d="M148.778 137.043H178.936" stroke="#242424" stroke-miterlimit="10"/>
<path d="M183.962 137.043L176.925 139.784L178.684 137.043L176.925 134.302L183.962 137.043Z" fill="#242424" stroke="#242424" stroke-miterlimit="10"/>
<path d="M148.778 115.116H40.2102V158.97H148.778V115.116Z" stroke="#242424"/>
<path d="M81.1209 141.586H80.013L83.2175 132.859H84.3084L87.513 141.586H86.405L83.797 134.24H83.7289L81.1209 141.586ZM81.53 138.177H85.9959V139.115H81.53V138.177ZM88.736 144.041V135.041H89.7076V136.081H89.8269C89.9007 135.967 90.003 135.822 90.1337 135.646C90.2672 135.467 90.4576 135.308 90.7047 135.169C90.9547 135.027 91.2928 134.956 91.7189 134.956C92.2701 134.956 92.7559 135.094 93.1763 135.369C93.5968 135.645 93.9249 136.035 94.1607 136.541C94.3965 137.047 94.5144 137.643 94.5144 138.331C94.5144 139.024 94.3965 139.625 94.1607 140.133C93.9249 140.639 93.5982 141.031 93.1806 141.309C92.763 141.585 92.2814 141.723 91.736 141.723C91.3155 141.723 90.9789 141.653 90.726 141.514C90.4732 141.372 90.2786 141.211 90.1422 141.032C90.0059 140.851 89.9007 140.7 89.8269 140.581H89.7416V144.041H88.736ZM89.7246 138.314C89.7246 138.808 89.797 139.244 89.9419 139.622C90.0868 139.997 90.2985 140.291 90.5769 140.504C90.8553 140.714 91.1962 140.819 91.5996 140.819C92.0201 140.819 92.3709 140.709 92.6522 140.487C92.9362 140.263 93.1493 139.961 93.2914 139.584C93.4362 139.203 93.5087 138.78 93.5087 138.314C93.5087 137.853 93.4377 137.439 93.2956 137.069C93.1564 136.697 92.9448 136.403 92.6607 136.187C92.3794 135.969 92.0257 135.859 91.5996 135.859C91.1905 135.859 90.8468 135.963 90.5684 136.17C90.2899 136.375 90.0797 136.662 89.9377 137.031C89.7956 137.398 89.7246 137.825 89.7246 138.314ZM96.0485 144.041V135.041H97.0201V136.081H97.1394C97.2132 135.967 97.3155 135.822 97.4462 135.646C97.5797 135.467 97.7701 135.308 98.0172 135.169C98.2672 135.027 98.6053 134.956 99.0314 134.956C99.5826 134.956 100.068 135.094 100.489 135.369C100.909 135.645 101.237 136.035 101.473 136.541C101.709 137.047 101.827 137.643 101.827 138.331C101.827 139.024 101.709 139.625 101.473 140.133C101.237 140.639 100.911 141.031 100.493 141.309C100.075 141.585 99.5939 141.723 99.0485 141.723C98.628 141.723 98.2914 141.653 98.0385 141.514C97.7857 141.372 97.5911 141.211 97.4547 141.032C97.3184 140.851 97.2132 140.7 97.1394 140.581H97.0541V144.041H96.0485ZM97.0371 138.314C97.0371 138.808 97.1095 139.244 97.2544 139.622C97.3993 139.997 97.611 140.291 97.8894 140.504C98.1678 140.714 98.5087 140.819 98.9121 140.819C99.3326 140.819 99.6834 140.709 99.9647 140.487C100.249 140.263 100.462 139.961 100.604 139.584C100.749 139.203 100.821 138.78 100.821 138.314C100.821 137.853 100.75 137.439 100.608 137.069C100.469 136.697 100.257 136.403 99.9732 136.187C99.6919 135.969 99.3382 135.859 98.9121 135.859C98.503 135.859 98.1593 135.963 97.8809 136.17C97.6024 136.375 97.3922 136.662 97.2502 137.031C97.1081 137.398 97.0371 137.825 97.0371 138.314Z" fill="#242424"/>
<path d="M238.246 115.116V75.8306" stroke="#242424" stroke-miterlimit="10"/>
<path d="M238.748 71.2625L242.267 76.7442L238.748 75.3737L235.23 76.7442L238.748 71.2625Z" fill="#242424" stroke="#242424" stroke-miterlimit="10"/>
<path d="M265.388 115.116V93.1403H410.144V75.8306" stroke="#242424" stroke-miterlimit="10"/>
<path d="M410.145 71.2625L413.16 76.7442L410.145 75.3737L407.129 76.7442L410.145 71.2625Z" fill="#242424" stroke="#242424" stroke-miterlimit="10"/>
<path d="M292.53 137.043H322.687" stroke="#242424" stroke-miterlimit="10"/>
<path d="M327.713 137.043L321.682 139.784L323.19 137.043L321.682 134.302L327.713 137.043Z" fill="#242424" stroke="#242424" stroke-miterlimit="10"/>
<path d="M238.246 158.97V190.947" stroke="#242424" stroke-miterlimit="10"/>
<path d="M238.748 195.515L235.23 190.033L238.748 191.404L242.267 190.033L238.748 195.515Z" fill="#242424" stroke="#242424" stroke-miterlimit="10"/>
<path d="M265.388 158.97H238.246V180.946H446.334V198.256" stroke="#242424" stroke-miterlimit="10"/>
<path d="M446.334 202.824L443.318 197.342L446.334 198.713L449.35 197.342L446.334 202.824Z" fill="#242424" stroke="#242424" stroke-miterlimit="10"/>
<path d="M292.529 115.116H184.967V158.97H292.529V115.116Z" stroke="#242424"/>
<path d="M224.882 140.993H223.528V136.01H218.449V140.993H217.096V130.815H218.449V134.807H223.528V130.815H224.882V140.993ZM234.028 137.179C234.028 138.423 233.709 139.405 233.071 140.125C232.433 140.845 231.579 141.205 230.508 141.205C229.428 141.205 228.569 140.845 227.931 140.125C227.297 139.405 226.98 138.423 226.98 137.179C226.98 135.935 227.297 134.953 227.931 134.233C228.569 133.508 229.428 133.146 230.508 133.146C231.579 133.146 232.433 133.508 233.071 134.233C233.709 134.953 234.028 135.935 234.028 137.179ZM232.702 137.179C232.702 136.19 232.508 135.456 232.121 134.978C231.734 134.495 231.196 134.253 230.508 134.253C229.81 134.253 229.268 134.495 228.881 134.978C228.498 135.456 228.307 136.19 228.307 137.179C228.307 138.136 228.5 138.863 228.888 139.36C229.275 139.852 229.815 140.098 230.508 140.098C231.191 140.098 231.727 139.854 232.114 139.366C232.506 138.874 232.702 138.145 232.702 137.179ZM247.167 140.993H245.882V136.646C245.882 136.318 245.866 136.001 245.834 135.696C245.807 135.39 245.745 135.146 245.649 134.964C245.545 134.768 245.394 134.62 245.198 134.52C245.002 134.42 244.72 134.369 244.351 134.369C243.99 134.369 243.63 134.461 243.27 134.643C242.91 134.821 242.55 135.048 242.19 135.326C242.204 135.431 242.215 135.554 242.225 135.696C242.234 135.832 242.238 135.969 242.238 136.106V140.993H240.953V136.646C240.953 136.309 240.937 135.99 240.905 135.689C240.878 135.383 240.816 135.14 240.721 134.957C240.616 134.761 240.465 134.615 240.269 134.52C240.073 134.42 239.791 134.369 239.422 134.369C239.071 134.369 238.718 134.456 238.362 134.629C238.011 134.802 237.66 135.023 237.31 135.292V140.993H236.024V133.358H237.31V134.205C237.711 133.873 238.109 133.613 238.506 133.426C238.907 133.239 239.333 133.146 239.784 133.146C240.304 133.146 240.743 133.255 241.103 133.474C241.468 133.693 241.739 133.996 241.917 134.383C242.436 133.946 242.91 133.631 243.339 133.44C243.767 133.244 244.225 133.146 244.713 133.146C245.551 133.146 246.169 133.401 246.565 133.911C246.966 134.417 247.167 135.126 247.167 136.037V140.993ZM256.033 137.309H250.407C250.407 137.778 250.478 138.188 250.619 138.539C250.76 138.886 250.954 139.17 251.2 139.394C251.437 139.613 251.717 139.777 252.041 139.886C252.369 139.995 252.729 140.05 253.121 140.05C253.641 140.05 254.162 139.948 254.686 139.742C255.215 139.533 255.591 139.328 255.814 139.127H255.883V140.529C255.45 140.711 255.008 140.864 254.557 140.987C254.105 141.11 253.631 141.171 253.135 141.171C251.868 141.171 250.879 140.829 250.168 140.146C249.457 139.458 249.101 138.482 249.101 137.22C249.101 135.971 249.441 134.98 250.12 134.246C250.804 133.513 251.701 133.146 252.813 133.146C253.843 133.146 254.636 133.447 255.192 134.048C255.753 134.65 256.033 135.504 256.033 136.612V137.309ZM254.782 136.324C254.778 135.65 254.607 135.128 254.269 134.759C253.937 134.39 253.429 134.205 252.745 134.205C252.057 134.205 251.508 134.408 251.098 134.814C250.692 135.219 250.462 135.723 250.407 136.324H254.782Z" fill="#242424"/>
<path d="M309.619 26.4951H184.967V70.3489H309.619V26.4951Z" stroke="#242424"/>
<path d="M217.854 40.6558H214.217V49.6313H212.863V40.6558H209.227V39.4526H217.854V40.6558ZM222.516 43.397H222.447C222.256 43.3514 222.069 43.3195 221.887 43.3013C221.709 43.2785 221.497 43.2671 221.251 43.2671C220.855 43.2671 220.472 43.356 220.103 43.5337C219.733 43.7069 219.378 43.9325 219.036 44.2104V49.6313H217.751V41.9956H219.036V43.1235C219.547 42.7134 219.996 42.424 220.383 42.2554C220.775 42.0822 221.174 41.9956 221.579 41.9956C221.803 41.9956 221.964 42.0024 222.065 42.0161C222.165 42.0252 222.315 42.0457 222.516 42.0776V43.397ZM229.413 49.6313H228.135V48.8179C228.021 48.8953 227.866 49.0047 227.67 49.146C227.479 49.2827 227.292 49.3921 227.109 49.4741C226.895 49.5789 226.649 49.6655 226.371 49.7339C226.093 49.8068 225.767 49.8433 225.394 49.8433C224.706 49.8433 224.122 49.6154 223.644 49.1597C223.165 48.7039 222.926 48.1229 222.926 47.4165C222.926 46.8377 223.049 46.3706 223.295 46.0151C223.546 45.6551 223.901 45.3726 224.361 45.1675C224.826 44.9624 225.385 44.8234 226.036 44.7505C226.688 44.6776 227.387 44.6229 228.135 44.5864V44.3882C228.135 44.0965 228.082 43.855 227.978 43.6636C227.877 43.4722 227.732 43.3218 227.54 43.2124C227.358 43.1076 227.139 43.0369 226.884 43.0005C226.629 42.964 226.362 42.9458 226.084 42.9458C225.747 42.9458 225.371 42.9914 224.956 43.0825C224.541 43.1691 224.113 43.2967 223.671 43.4653H223.603V42.1597C223.853 42.0913 224.216 42.0161 224.69 41.9341C225.164 41.8521 225.631 41.811 226.091 41.811C226.629 41.811 227.096 41.8566 227.492 41.9478C227.893 42.0343 228.24 42.1847 228.531 42.3989C228.818 42.6086 229.037 42.8797 229.188 43.2124C229.338 43.5451 229.413 43.9575 229.413 44.4497V49.6313ZM228.135 47.7515V45.6255C227.743 45.6483 227.28 45.6825 226.747 45.728C226.219 45.7736 225.799 45.8397 225.489 45.9263C225.12 46.0311 224.822 46.1951 224.594 46.4185C224.366 46.6372 224.252 46.9403 224.252 47.3276C224.252 47.7651 224.384 48.0955 224.649 48.3188C224.913 48.5376 225.316 48.647 225.858 48.647C226.31 48.647 226.722 48.5604 227.096 48.3872C227.47 48.2095 227.816 47.9976 228.135 47.7515ZM238.273 49.6313H236.987V45.2837C236.987 44.9328 236.967 44.6047 236.926 44.2993C236.885 43.9894 236.81 43.7479 236.7 43.5747C236.586 43.3833 236.422 43.242 236.208 43.1509C235.994 43.0552 235.716 43.0073 235.374 43.0073C235.023 43.0073 234.656 43.0939 234.274 43.2671C233.891 43.4403 233.524 43.6613 233.173 43.9302V49.6313H231.888V41.9956H233.173V42.8433C233.574 42.5106 233.989 42.2508 234.417 42.064C234.845 41.8771 235.285 41.7837 235.736 41.7837C236.561 41.7837 237.19 42.0321 237.623 42.5288C238.056 43.0256 238.273 43.741 238.273 44.6753V49.6313ZM246.202 47.4302C246.202 48.1274 245.913 48.6994 245.334 49.146C244.76 49.5926 243.974 49.8159 242.976 49.8159C242.411 49.8159 241.891 49.7498 241.417 49.6177C240.948 49.481 240.553 49.3328 240.234 49.1733V47.731H240.303C240.708 48.0363 241.16 48.2801 241.656 48.4624C242.153 48.6401 242.629 48.729 243.085 48.729C243.65 48.729 244.092 48.6379 244.411 48.4556C244.73 48.2733 244.89 47.9862 244.89 47.5942C244.89 47.2935 244.803 47.0656 244.63 46.9106C244.457 46.7557 244.124 46.6235 243.632 46.5142C243.45 46.4731 243.21 46.4253 242.914 46.3706C242.622 46.3159 242.356 46.2567 242.114 46.1929C241.444 46.0151 240.968 45.7554 240.686 45.4136C240.408 45.0672 240.269 44.6434 240.269 44.1421C240.269 43.8276 240.332 43.5314 240.46 43.2534C240.592 42.9754 240.79 42.7271 241.055 42.5083C241.31 42.2941 241.634 42.1255 242.025 42.0024C242.422 41.8748 242.864 41.811 243.352 41.811C243.807 41.811 244.268 41.868 244.733 41.9819C245.202 42.0913 245.592 42.2257 245.901 42.3853V43.7593H245.833C245.505 43.5177 245.106 43.3149 244.637 43.1509C244.167 42.9823 243.707 42.8979 243.256 42.8979C242.787 42.8979 242.39 42.9891 242.067 43.1714C241.743 43.3491 241.581 43.6157 241.581 43.9712C241.581 44.2856 241.679 44.5226 241.875 44.6821C242.067 44.8416 242.376 44.9715 242.805 45.0718C243.042 45.1265 243.306 45.1812 243.598 45.2358C243.894 45.2905 244.14 45.3407 244.336 45.3862C244.933 45.5229 245.393 45.7576 245.717 46.0903C246.04 46.4276 246.202 46.8742 246.202 47.4302ZM253.982 49.6313H252.703V48.8179C252.589 48.8953 252.434 49.0047 252.238 49.146C252.047 49.2827 251.86 49.3921 251.678 49.4741C251.464 49.5789 251.218 49.6655 250.94 49.7339C250.662 49.8068 250.336 49.8433 249.962 49.8433C249.274 49.8433 248.691 49.6154 248.212 49.1597C247.733 48.7039 247.494 48.1229 247.494 47.4165C247.494 46.8377 247.617 46.3706 247.863 46.0151C248.114 45.6551 248.47 45.3726 248.93 45.1675C249.395 44.9624 249.953 44.8234 250.605 44.7505C251.256 44.6776 251.956 44.6229 252.703 44.5864V44.3882C252.703 44.0965 252.651 43.855 252.546 43.6636C252.446 43.4722 252.3 43.3218 252.108 43.2124C251.926 43.1076 251.707 43.0369 251.452 43.0005C251.197 42.964 250.93 42.9458 250.652 42.9458C250.315 42.9458 249.939 42.9914 249.525 43.0825C249.11 43.1691 248.681 43.2967 248.239 43.4653H248.171V42.1597C248.422 42.0913 248.784 42.0161 249.258 41.9341C249.732 41.8521 250.199 41.811 250.659 41.811C251.197 41.811 251.664 41.8566 252.061 41.9478C252.462 42.0343 252.808 42.1847 253.1 42.3989C253.387 42.6086 253.606 42.8797 253.756 43.2124C253.906 43.5451 253.982 43.9575 253.982 44.4497V49.6313ZM252.703 47.7515V45.6255C252.311 45.6483 251.849 45.6825 251.316 45.728C250.787 45.7736 250.368 45.8397 250.058 45.9263C249.689 46.0311 249.39 46.1951 249.162 46.4185C248.934 46.6372 248.82 46.9403 248.82 47.3276C248.82 47.7651 248.953 48.0955 249.217 48.3188C249.481 48.5376 249.885 48.647 250.427 48.647C250.878 48.647 251.29 48.5604 251.664 48.3872C252.038 48.2095 252.384 47.9976 252.703 47.7515ZM262.103 49.1528C261.674 49.3579 261.266 49.5174 260.879 49.6313C260.496 49.7453 260.088 49.8022 259.655 49.8022C259.104 49.8022 258.598 49.7225 258.138 49.563C257.678 49.3989 257.283 49.1528 256.955 48.8247C256.622 48.4966 256.365 48.0819 256.183 47.5806C256 47.0793 255.909 46.4937 255.909 45.8237C255.909 44.575 256.251 43.5952 256.935 42.8843C257.623 42.1733 258.53 41.8179 259.655 41.8179C260.093 41.8179 260.521 41.8794 260.941 42.0024C261.364 42.1255 261.752 42.2759 262.103 42.4536V43.8823H262.034C261.642 43.577 261.237 43.3423 260.817 43.1782C260.403 43.0142 259.997 42.9321 259.601 42.9321C258.872 42.9321 258.295 43.1782 257.871 43.6704C257.452 44.158 257.242 44.8758 257.242 45.8237C257.242 46.7443 257.447 47.453 257.858 47.9497C258.272 48.4419 258.853 48.688 259.601 48.688C259.86 48.688 260.125 48.6538 260.394 48.5854C260.663 48.5171 260.904 48.4282 261.118 48.3188C261.305 48.2231 261.481 48.1229 261.645 48.0181C261.809 47.9087 261.939 47.8153 262.034 47.7378H262.103V49.1528ZM267.722 49.563C267.48 49.6268 267.216 49.6792 266.929 49.7202C266.646 49.7612 266.393 49.7817 266.17 49.7817C265.391 49.7817 264.798 49.5721 264.393 49.1528C263.987 48.7336 263.784 48.0614 263.784 47.1362V43.0757H262.916V41.9956H263.784V39.8013H265.069V41.9956H267.722V43.0757H265.069V46.5552C265.069 46.9562 265.079 47.2707 265.097 47.4985C265.115 47.7218 265.179 47.9315 265.288 48.1274C265.388 48.3097 265.525 48.4442 265.698 48.5308C265.876 48.6128 266.145 48.6538 266.505 48.6538C266.715 48.6538 266.933 48.6242 267.161 48.5649C267.389 48.5011 267.553 48.4487 267.653 48.4077H267.722V49.563ZM270.661 40.7173H269.212V39.3843H270.661V40.7173ZM270.579 49.6313H269.294V41.9956H270.579V49.6313ZM279.63 45.8169C279.63 47.061 279.311 48.0431 278.673 48.7632C278.035 49.4832 277.18 49.8433 276.109 49.8433C275.029 49.8433 274.17 49.4832 273.532 48.7632C272.899 48.0431 272.582 47.061 272.582 45.8169C272.582 44.5728 272.899 43.5907 273.532 42.8706C274.17 42.146 275.029 41.7837 276.109 41.7837C277.18 41.7837 278.035 42.146 278.673 42.8706C279.311 43.5907 279.63 44.5728 279.63 45.8169ZM278.304 45.8169C278.304 44.828 278.11 44.0942 277.723 43.6157C277.335 43.1326 276.798 42.8911 276.109 42.8911C275.412 42.8911 274.87 43.1326 274.483 43.6157C274.1 44.0942 273.908 44.828 273.908 45.8169C273.908 46.7739 274.102 47.5008 274.489 47.9976C274.877 48.4897 275.417 48.7358 276.109 48.7358C276.793 48.7358 277.329 48.492 277.716 48.0044C278.108 47.5122 278.304 46.783 278.304 45.8169ZM288.011 49.6313H286.726V45.2837C286.726 44.9328 286.705 44.6047 286.664 44.2993C286.623 43.9894 286.548 43.7479 286.439 43.5747C286.325 43.3833 286.161 43.242 285.946 43.1509C285.732 43.0552 285.454 43.0073 285.112 43.0073C284.761 43.0073 284.395 43.0939 284.012 43.2671C283.629 43.4403 283.262 43.6613 282.911 43.9302V49.6313H281.626V41.9956H282.911V42.8433C283.312 42.5106 283.727 42.2508 284.155 42.064C284.584 41.8771 285.024 41.7837 285.475 41.7837C286.3 41.7837 286.928 42.0321 287.361 42.5288C287.794 43.0256 288.011 43.741 288.011 44.6753V49.6313ZM295.941 47.4302C295.941 48.1274 295.651 48.6994 295.072 49.146C294.498 49.5926 293.712 49.8159 292.714 49.8159C292.149 49.8159 291.629 49.7498 291.155 49.6177C290.686 49.481 290.292 49.3328 289.973 49.1733V47.731H290.041C290.447 48.0363 290.898 48.2801 291.395 48.4624C291.891 48.6401 292.368 48.729 292.823 48.729C293.388 48.729 293.831 48.6379 294.15 48.4556C294.469 48.2733 294.628 47.9862 294.628 47.5942C294.628 47.2935 294.541 47.0656 294.368 46.9106C294.195 46.7557 293.862 46.6235 293.37 46.5142C293.188 46.4731 292.949 46.4253 292.652 46.3706C292.361 46.3159 292.094 46.2567 291.853 46.1929C291.183 46.0151 290.706 45.7554 290.424 45.4136C290.146 45.0672 290.007 44.6434 290.007 44.1421C290.007 43.8276 290.071 43.5314 290.198 43.2534C290.331 42.9754 290.529 42.7271 290.793 42.5083C291.048 42.2941 291.372 42.1255 291.764 42.0024C292.16 41.8748 292.602 41.811 293.09 41.811C293.546 41.811 294.006 41.868 294.471 41.9819C294.94 42.0913 295.33 42.2257 295.64 42.3853V43.7593H295.571C295.243 43.5177 294.845 43.3149 294.375 43.1509C293.906 42.9823 293.445 42.8979 292.994 42.8979C292.525 42.8979 292.128 42.9891 291.805 43.1714C291.481 43.3491 291.319 43.6157 291.319 43.9712C291.319 44.2856 291.417 44.5226 291.613 44.6821C291.805 44.8416 292.115 44.9715 292.543 45.0718C292.78 45.1265 293.044 45.1812 293.336 45.2358C293.632 45.2905 293.878 45.3407 294.074 45.3862C294.671 45.5229 295.132 45.7576 295.455 46.0903C295.779 46.4276 295.941 46.8742 295.941 47.4302ZM238.129 63.7261C238.129 64.1226 238.036 64.5145 237.849 64.9019C237.666 65.2892 237.409 65.6174 237.076 65.8862C236.712 66.1779 236.286 66.4058 235.798 66.5698C235.315 66.7339 234.732 66.8159 234.048 66.8159C233.314 66.8159 232.653 66.7476 232.066 66.6108C231.482 66.4741 230.887 66.2713 230.281 66.0024V64.3071H230.377C230.892 64.7355 231.487 65.0659 232.161 65.2983C232.836 65.5308 233.469 65.647 234.062 65.647C234.9 65.647 235.552 65.4897 236.017 65.1753C236.486 64.8608 236.721 64.4416 236.721 63.9175C236.721 63.4663 236.609 63.1336 236.386 62.9194C236.167 62.7052 235.832 62.5389 235.381 62.4204C235.039 62.3293 234.668 62.2541 234.267 62.1948C233.87 62.1356 233.449 62.0604 233.002 61.9692C232.1 61.7778 231.43 61.452 230.992 60.9917C230.559 60.5269 230.343 59.923 230.343 59.1802C230.343 58.328 230.703 57.6307 231.423 57.0884C232.143 56.5415 233.057 56.2681 234.164 56.2681C234.88 56.2681 235.536 56.3364 236.133 56.4731C236.73 56.6099 237.259 56.7785 237.719 56.979V58.5786H237.623C237.236 58.2505 236.725 57.9793 236.092 57.7651C235.463 57.5464 234.818 57.437 234.157 57.437C233.433 57.437 232.849 57.5874 232.407 57.8882C231.97 58.189 231.751 58.5763 231.751 59.0503C231.751 59.4741 231.86 59.8068 232.079 60.0483C232.298 60.2899 232.683 60.4744 233.234 60.6021C233.526 60.6659 233.941 60.7433 234.479 60.8345C235.016 60.9256 235.472 61.019 235.846 61.1147C236.602 61.3153 237.172 61.6183 237.555 62.0239C237.938 62.4295 238.129 62.9969 238.129 63.7261ZM246.592 62.9468H240.966C240.966 63.4162 241.037 63.8263 241.178 64.1772C241.319 64.5236 241.513 64.8084 241.759 65.0317C241.996 65.2505 242.276 65.4146 242.6 65.5239C242.928 65.6333 243.288 65.688 243.68 65.688C244.199 65.688 244.721 65.5854 245.245 65.3804C245.774 65.1707 246.15 64.9657 246.373 64.7651H246.442V66.1665C246.009 66.3488 245.567 66.5015 245.115 66.6245C244.664 66.7476 244.19 66.8091 243.693 66.8091C242.427 66.8091 241.438 66.4673 240.727 65.7837C240.016 65.0955 239.66 64.1203 239.66 62.8579C239.66 61.6092 240 60.618 240.679 59.8843C241.362 59.1506 242.26 58.7837 243.372 58.7837C244.402 58.7837 245.195 59.0845 245.751 59.686C246.312 60.2876 246.592 61.1421 246.592 62.2495V62.9468ZM245.341 61.9624C245.336 61.2879 245.165 60.7661 244.828 60.397C244.496 60.0278 243.987 59.8433 243.304 59.8433C242.616 59.8433 242.067 60.0461 241.656 60.4517C241.251 60.8573 241.021 61.3608 240.966 61.9624H245.341ZM254.187 66.1528C253.758 66.3579 253.35 66.5174 252.963 66.6313C252.58 66.7453 252.172 66.8022 251.739 66.8022C251.188 66.8022 250.682 66.7225 250.222 66.563C249.761 66.3989 249.367 66.1528 249.039 65.8247C248.706 65.4966 248.449 65.0819 248.267 64.5806C248.084 64.0793 247.993 63.4937 247.993 62.8237C247.993 61.575 248.335 60.5952 249.019 59.8843C249.707 59.1733 250.614 58.8179 251.739 58.8179C252.177 58.8179 252.605 58.8794 253.025 59.0024C253.448 59.1255 253.836 59.2759 254.187 59.4536V60.8823H254.118C253.726 60.577 253.321 60.3423 252.901 60.1782C252.487 60.0142 252.081 59.9321 251.685 59.9321C250.956 59.9321 250.379 60.1782 249.955 60.6704C249.536 61.158 249.326 61.8758 249.326 62.8237C249.326 63.7443 249.531 64.453 249.942 64.9497C250.356 65.4419 250.937 65.688 251.685 65.688C251.944 65.688 252.209 65.6538 252.478 65.5854C252.747 65.5171 252.988 65.4282 253.202 65.3188C253.389 65.2231 253.565 65.1229 253.729 65.0181C253.893 64.9087 254.023 64.8153 254.118 64.7378H254.187V66.1528ZM259.806 66.563C259.564 66.6268 259.3 66.6792 259.013 66.7202C258.73 66.7612 258.477 66.7817 258.254 66.7817C257.475 66.7817 256.882 66.5721 256.477 66.1528C256.071 65.7336 255.868 65.0614 255.868 64.1362V60.0757H255V58.9956H255.868V56.8013H257.153V58.9956H259.806V60.0757H257.153V63.5552C257.153 63.9562 257.163 64.2707 257.181 64.4985C257.199 64.7218 257.263 64.9315 257.372 65.1274C257.472 65.3097 257.609 65.4442 257.782 65.5308C257.96 65.6128 258.229 65.6538 258.589 65.6538C258.799 65.6538 259.017 65.6242 259.245 65.5649C259.473 65.5011 259.637 65.4487 259.737 65.4077H259.806V66.563ZM262.745 57.7173H261.296V56.3843H262.745V57.7173ZM262.663 66.6313H261.378V58.9956H262.663V66.6313ZM271.714 62.8169C271.714 64.061 271.395 65.0431 270.757 65.7632C270.119 66.4832 269.264 66.8433 268.193 66.8433C267.113 66.8433 266.254 66.4832 265.616 65.7632C264.983 65.0431 264.666 64.061 264.666 62.8169C264.666 61.5728 264.983 60.5907 265.616 59.8706C266.254 59.146 267.113 58.7837 268.193 58.7837C269.264 58.7837 270.119 59.146 270.757 59.8706C271.395 60.5907 271.714 61.5728 271.714 62.8169ZM270.388 62.8169C270.388 61.828 270.194 61.0942 269.807 60.6157C269.419 60.1326 268.882 59.8911 268.193 59.8911C267.496 59.8911 266.954 60.1326 266.567 60.6157C266.184 61.0942 265.992 61.828 265.992 62.8169C265.992 63.7739 266.186 64.5008 266.573 64.9976C266.961 65.4897 267.501 65.7358 268.193 65.7358C268.877 65.7358 269.413 65.492 269.8 65.0044C270.192 64.5122 270.388 63.783 270.388 62.8169ZM280.095 66.6313H278.81V62.2837C278.81 61.9328 278.789 61.6047 278.748 61.2993C278.707 60.9894 278.632 60.7479 278.523 60.5747C278.409 60.3833 278.245 60.242 278.03 60.1509C277.816 60.0552 277.538 60.0073 277.196 60.0073C276.845 60.0073 276.479 60.0939 276.096 60.2671C275.713 60.4403 275.346 60.6613 274.995 60.9302V66.6313H273.71V58.9956H274.995V59.8433C275.396 59.5106 275.811 59.2508 276.239 59.064C276.668 58.8771 277.108 58.7837 277.559 58.7837C278.384 58.7837 279.012 59.0321 279.445 59.5288C279.878 60.0256 280.095 60.741 280.095 61.6753V66.6313Z" fill="#242424"/>
<path d="M292.529 196.429H184.967V240.283H292.529V196.429Z" stroke="#242424"/>
<path d="M223.324 221.468C223.324 221.865 223.231 222.257 223.044 222.644C222.862 223.031 222.604 223.36 222.272 223.628C221.907 223.92 221.481 224.148 220.993 224.312C220.51 224.476 219.927 224.558 219.243 224.558C218.51 224.558 217.849 224.49 217.261 224.353C216.678 224.216 216.083 224.014 215.477 223.745V222.049H215.572C216.087 222.478 216.682 222.808 217.357 223.041C218.031 223.273 218.665 223.389 219.257 223.389C220.096 223.389 220.747 223.232 221.212 222.917C221.682 222.603 221.916 222.184 221.916 221.66C221.916 221.208 221.805 220.876 221.581 220.662C221.363 220.447 221.028 220.281 220.576 220.163C220.235 220.071 219.863 219.996 219.462 219.937C219.066 219.878 218.644 219.803 218.197 219.711C217.295 219.52 216.625 219.194 216.188 218.734C215.755 218.269 215.538 217.665 215.538 216.922C215.538 216.07 215.898 215.373 216.618 214.831C217.338 214.284 218.252 214.01 219.36 214.01C220.075 214.01 220.731 214.079 221.328 214.215C221.925 214.352 222.454 214.521 222.914 214.721V216.321H222.819C222.431 215.993 221.921 215.722 221.287 215.507C220.658 215.289 220.014 215.179 219.353 215.179C218.628 215.179 218.045 215.33 217.603 215.63C217.165 215.931 216.947 216.319 216.947 216.792C216.947 217.216 217.056 217.549 217.275 217.791C217.493 218.032 217.878 218.217 218.43 218.344C218.722 218.408 219.136 218.486 219.674 218.577C220.212 218.668 220.668 218.761 221.041 218.857C221.798 219.057 222.367 219.361 222.75 219.766C223.133 220.172 223.324 220.739 223.324 221.468ZM231.787 220.689H226.161C226.161 221.158 226.232 221.569 226.373 221.919C226.515 222.266 226.708 222.551 226.954 222.774C227.191 222.993 227.472 223.157 227.795 223.266C228.123 223.375 228.483 223.43 228.875 223.43C229.395 223.43 229.917 223.328 230.441 223.123C230.969 222.913 231.345 222.708 231.569 222.507H231.637V223.909C231.204 224.091 230.762 224.244 230.311 224.367C229.86 224.49 229.386 224.551 228.889 224.551C227.622 224.551 226.633 224.209 225.922 223.526C225.211 222.838 224.856 221.862 224.856 220.6C224.856 219.351 225.195 218.36 225.874 217.626C226.558 216.893 227.456 216.526 228.568 216.526C229.598 216.526 230.391 216.827 230.947 217.428C231.507 218.03 231.787 218.884 231.787 219.992V220.689ZM230.536 219.705C230.532 219.03 230.361 218.508 230.024 218.139C229.691 217.77 229.183 217.585 228.499 217.585C227.811 217.585 227.262 217.788 226.852 218.194C226.446 218.599 226.216 219.103 226.161 219.705H230.536ZM237.7 224.305C237.459 224.369 237.195 224.421 236.907 224.462C236.625 224.503 236.372 224.524 236.149 224.524C235.369 224.524 234.777 224.314 234.371 223.895C233.966 223.476 233.763 222.804 233.763 221.878V217.818H232.895V216.738H233.763V214.543H235.048V216.738H237.7V217.818H235.048V221.297C235.048 221.698 235.057 222.013 235.075 222.241C235.094 222.464 235.157 222.674 235.267 222.87C235.367 223.052 235.504 223.186 235.677 223.273C235.855 223.355 236.124 223.396 236.484 223.396C236.693 223.396 236.912 223.366 237.14 223.307C237.368 223.243 237.532 223.191 237.632 223.15H237.7V224.305ZM243.224 224.305C242.982 224.369 242.718 224.421 242.431 224.462C242.148 224.503 241.895 224.524 241.672 224.524C240.893 224.524 240.3 224.314 239.895 223.895C239.489 223.476 239.286 222.804 239.286 221.878V217.818H238.418V216.738H239.286V214.543H240.572V216.738H243.224V217.818H240.572V221.297C240.572 221.698 240.581 222.013 240.599 222.241C240.617 222.464 240.681 222.674 240.79 222.87C240.891 223.052 241.027 223.186 241.2 223.273C241.378 223.355 241.647 223.396 242.007 223.396C242.217 223.396 242.435 223.366 242.663 223.307C242.891 223.243 243.055 223.191 243.155 223.15H243.224V224.305ZM246.163 215.459H244.714V214.126H246.163V215.459ZM246.081 224.374H244.796V216.738H246.081V224.374ZM255.009 224.374H253.724V220.026C253.724 219.675 253.703 219.347 253.662 219.042C253.621 218.732 253.546 218.49 253.437 218.317C253.323 218.125 253.159 217.984 252.945 217.893C252.73 217.797 252.452 217.75 252.111 217.75C251.76 217.75 251.393 217.836 251.01 218.009C250.627 218.182 250.26 218.403 249.909 218.672V224.374H248.624V216.738H249.909V217.585C250.31 217.253 250.725 216.993 251.154 216.806C251.582 216.619 252.022 216.526 252.473 216.526C253.298 216.526 253.927 216.774 254.36 217.271C254.793 217.768 255.009 218.483 255.009 219.417V224.374ZM263.677 223.505C263.677 224.8 263.383 225.75 262.795 226.356C262.207 226.962 261.303 227.265 260.081 227.265C259.676 227.265 259.279 227.236 258.892 227.176C258.509 227.122 258.131 227.042 257.757 226.937V225.625H257.825C258.035 225.707 258.368 225.807 258.823 225.925C259.279 226.048 259.735 226.11 260.191 226.11C260.628 226.11 260.99 226.057 261.278 225.953C261.565 225.848 261.788 225.702 261.947 225.515C262.107 225.337 262.221 225.123 262.289 224.873C262.358 224.622 262.392 224.342 262.392 224.032V223.334C262.004 223.644 261.633 223.877 261.278 224.032C260.927 224.182 260.478 224.257 259.931 224.257C259.019 224.257 258.295 223.929 257.757 223.273C257.224 222.612 256.957 221.682 256.957 220.484C256.957 219.828 257.048 219.263 257.231 218.789C257.418 218.31 257.67 217.898 257.989 217.551C258.286 217.228 258.646 216.977 259.07 216.799C259.493 216.617 259.915 216.526 260.334 216.526C260.776 216.526 261.145 216.571 261.442 216.663C261.742 216.749 262.059 216.884 262.392 217.066L262.474 216.738H263.677V223.505ZM262.392 222.275V218.112C262.05 217.957 261.731 217.847 261.435 217.784C261.143 217.715 260.851 217.681 260.56 217.681C259.853 217.681 259.297 217.918 258.892 218.392C258.486 218.866 258.283 219.554 258.283 220.457C258.283 221.313 258.434 221.963 258.735 222.405C259.035 222.847 259.534 223.068 260.232 223.068C260.605 223.068 260.979 222.997 261.353 222.856C261.731 222.71 262.077 222.516 262.392 222.275ZM271.661 222.172C271.661 222.87 271.372 223.442 270.793 223.888C270.219 224.335 269.433 224.558 268.435 224.558C267.87 224.558 267.35 224.492 266.876 224.36C266.407 224.223 266.013 224.075 265.694 223.916V222.473H265.762C266.168 222.778 266.619 223.022 267.115 223.205C267.612 223.382 268.088 223.471 268.544 223.471C269.109 223.471 269.551 223.38 269.87 223.198C270.189 223.015 270.349 222.728 270.349 222.336C270.349 222.036 270.262 221.808 270.089 221.653C269.916 221.498 269.583 221.366 269.091 221.256C268.909 221.215 268.669 221.167 268.373 221.113C268.082 221.058 267.815 220.999 267.573 220.935C266.904 220.757 266.427 220.498 266.145 220.156C265.867 219.809 265.728 219.386 265.728 218.884C265.728 218.57 265.792 218.274 265.919 217.996C266.051 217.718 266.25 217.469 266.514 217.25C266.769 217.036 267.093 216.868 267.485 216.745C267.881 216.617 268.323 216.553 268.811 216.553C269.266 216.553 269.727 216.61 270.192 216.724C270.661 216.833 271.051 216.968 271.361 217.127V218.501H271.292C270.964 218.26 270.565 218.057 270.096 217.893C269.627 217.724 269.166 217.64 268.715 217.64C268.246 217.64 267.849 217.731 267.526 217.914C267.202 218.091 267.04 218.358 267.04 218.713C267.04 219.028 267.138 219.265 267.334 219.424C267.526 219.584 267.836 219.714 268.264 219.814C268.501 219.869 268.765 219.923 269.057 219.978C269.353 220.033 269.599 220.083 269.795 220.128C270.392 220.265 270.852 220.5 271.176 220.833C271.5 221.17 271.661 221.616 271.661 222.172Z" fill="#242424"/>
<path d="M437.286 137.043H467.444" stroke="#242424" stroke-miterlimit="10"/>
<path d="M472.47 137.043L465.434 139.784L467.193 137.043L465.434 134.302L472.47 137.043Z" fill="#242424" stroke="#242424" stroke-miterlimit="10"/>
<path d="M410.145 115.116V93.1403H590.085V75.8306" stroke="#242424" stroke-miterlimit="10"/>
<path d="M590.588 71.2625L594.106 76.7442L590.588 75.3737L587.07 76.7442L590.588 71.2625Z" fill="#242424" stroke="#242424" stroke-miterlimit="10"/>
<path d="M383.003 158.97V180.946H446.334V198.256" stroke="#242424" stroke-miterlimit="10"/>
<path d="M446.334 202.824L443.318 197.342L446.334 198.713L449.35 197.342L446.334 202.824Z" fill="#242424" stroke="#242424" stroke-miterlimit="10"/>
<path d="M437.286 115.116H328.719V158.97H437.286V115.116Z" stroke="#242424"/>
<path d="M371.198 137.545C371.198 137.997 371.118 138.416 370.959 138.803C370.804 139.186 370.585 139.519 370.302 139.801C369.951 140.152 369.537 140.417 369.058 140.594C368.58 140.767 367.976 140.854 367.247 140.854H365.893V144.648H364.54V134.469H367.301C367.912 134.469 368.429 134.522 368.853 134.626C369.277 134.727 369.653 134.886 369.981 135.105C370.368 135.365 370.667 135.688 370.877 136.076C371.091 136.463 371.198 136.953 371.198 137.545ZM369.79 137.58C369.79 137.229 369.728 136.923 369.605 136.664C369.482 136.404 369.295 136.192 369.045 136.028C368.826 135.887 368.575 135.786 368.293 135.727C368.015 135.663 367.661 135.631 367.233 135.631H365.893V139.699H367.035C367.582 139.699 368.026 139.651 368.368 139.555C368.71 139.455 368.988 139.298 369.202 139.083C369.416 138.865 369.566 138.635 369.653 138.393C369.744 138.152 369.79 137.88 369.79 137.58ZM377.651 138.414H377.583C377.391 138.368 377.204 138.336 377.022 138.318C376.844 138.295 376.632 138.284 376.386 138.284C375.99 138.284 375.607 138.373 375.238 138.55C374.869 138.723 374.513 138.949 374.172 139.227V144.648H372.886V137.012H374.172V138.14C374.682 137.73 375.131 137.441 375.518 137.272C375.91 137.099 376.309 137.012 376.714 137.012C376.938 137.012 377.1 137.019 377.2 137.033C377.3 137.042 377.45 137.062 377.651 137.094V138.414ZM385.369 140.833C385.369 142.078 385.05 143.06 384.412 143.78C383.774 144.5 382.919 144.86 381.848 144.86C380.768 144.86 379.909 144.5 379.271 143.78C378.638 143.06 378.321 142.078 378.321 140.833C378.321 139.589 378.638 138.607 379.271 137.887C379.909 137.163 380.768 136.8 381.848 136.8C382.919 136.8 383.774 137.163 384.412 137.887C385.05 138.607 385.369 139.589 385.369 140.833ZM384.043 140.833C384.043 139.845 383.849 139.111 383.462 138.632C383.074 138.149 382.536 137.908 381.848 137.908C381.151 137.908 380.609 138.149 380.221 138.632C379.839 139.111 379.647 139.845 379.647 140.833C379.647 141.791 379.841 142.517 380.228 143.014C380.616 143.506 381.156 143.752 381.848 143.752C382.532 143.752 383.067 143.509 383.455 143.021C383.847 142.529 384.043 141.8 384.043 140.833ZM391.473 135.255H391.405C391.264 135.214 391.079 135.173 390.851 135.132C390.623 135.087 390.423 135.064 390.25 135.064C389.698 135.064 389.297 135.187 389.047 135.433C388.8 135.675 388.677 136.114 388.677 136.752V137.012H390.995V138.092H388.718V144.648H387.433V138.092H386.565V137.012H387.433V136.759C387.433 135.852 387.659 135.157 388.11 134.674C388.561 134.187 389.213 133.943 390.065 133.943C390.352 133.943 390.61 133.957 390.838 133.984C391.07 134.011 391.282 134.043 391.473 134.08V135.255ZM393.668 135.734H392.218V134.401H393.668V135.734ZM393.586 144.648H392.3V137.012H393.586V144.648ZM397.427 144.648H396.142V134.011H397.427V144.648ZM406.362 140.963H400.736C400.736 141.433 400.807 141.843 400.948 142.194C401.089 142.54 401.283 142.825 401.529 143.048C401.766 143.267 402.046 143.431 402.37 143.541C402.698 143.65 403.058 143.705 403.45 143.705C403.969 143.705 404.491 143.602 405.015 143.397C405.544 143.187 405.92 142.982 406.143 142.782H406.212V144.183C405.779 144.365 405.337 144.518 404.885 144.641C404.434 144.764 403.96 144.826 403.464 144.826C402.197 144.826 401.208 144.484 400.497 143.8C399.786 143.112 399.43 142.137 399.43 140.875C399.43 139.626 399.77 138.635 400.449 137.901C401.132 137.167 402.03 136.8 403.142 136.8C404.172 136.8 404.965 137.101 405.521 137.703C406.082 138.304 406.362 139.159 406.362 140.266V140.963ZM405.111 139.979C405.106 139.305 404.936 138.783 404.598 138.414C404.266 138.044 403.757 137.86 403.074 137.86C402.386 137.86 401.837 138.063 401.426 138.468C401.021 138.874 400.791 139.377 400.736 139.979H405.111Z" fill="#242424"/>
<path d="M581.038 137.043H612.201" stroke="#242424" stroke-miterlimit="10"/>
<path d="M616.222 137.043L610.19 139.784L611.698 137.043L610.19 134.302L616.222 137.043Z" fill="#242424" stroke="#242424" stroke-miterlimit="10"/>
<path d="M581.038 115.116H473.476V158.97H581.038V115.116Z" stroke="#242424"/>
<path d="M507.698 143.305H506.256L505.258 140.468H500.855L499.857 143.305H498.483L502.188 133.126H503.993L507.698 143.305ZM504.841 139.306L503.057 134.309L501.266 139.306H504.841ZM515.86 139.429C515.86 140.067 515.769 140.641 515.587 141.152C515.409 141.662 515.168 142.09 514.862 142.437C514.539 142.797 514.183 143.068 513.796 143.25C513.409 143.428 512.982 143.517 512.518 143.517C512.085 143.517 511.706 143.464 511.383 143.36C511.059 143.259 510.74 143.123 510.426 142.949L510.344 143.305H509.141V132.668H510.426V136.469C510.786 136.173 511.169 135.931 511.574 135.744C511.98 135.553 512.436 135.457 512.941 135.457C513.844 135.457 514.555 135.804 515.074 136.496C515.598 137.189 515.86 138.167 515.86 139.429ZM514.534 139.463C514.534 138.552 514.384 137.861 514.083 137.392C513.782 136.918 513.297 136.681 512.627 136.681C512.253 136.681 511.875 136.763 511.492 136.927C511.109 137.087 510.754 137.294 510.426 137.549V141.924C510.79 142.088 511.103 142.202 511.362 142.266C511.627 142.33 511.925 142.362 512.258 142.362C512.969 142.362 513.525 142.129 513.926 141.664C514.331 141.195 514.534 140.461 514.534 139.463ZM524.371 139.49C524.371 140.735 524.052 141.717 523.414 142.437C522.776 143.157 521.922 143.517 520.851 143.517C519.77 143.517 518.911 143.157 518.273 142.437C517.64 141.717 517.323 140.735 517.323 139.49C517.323 138.246 517.64 137.264 518.273 136.544C518.911 135.82 519.77 135.457 520.851 135.457C521.922 135.457 522.776 135.82 523.414 136.544C524.052 137.264 524.371 138.246 524.371 139.49ZM523.045 139.49C523.045 138.502 522.851 137.768 522.464 137.289C522.076 136.806 521.539 136.565 520.851 136.565C520.153 136.565 519.611 136.806 519.224 137.289C518.841 137.768 518.649 138.502 518.649 139.49C518.649 140.448 518.843 141.174 519.23 141.671C519.618 142.163 520.158 142.409 520.851 142.409C521.534 142.409 522.07 142.166 522.457 141.678C522.849 141.186 523.045 140.457 523.045 139.49ZM532.697 143.305H531.412V142.457C530.979 142.799 530.564 143.061 530.168 143.243C529.771 143.426 529.334 143.517 528.855 143.517C528.053 143.517 527.429 143.273 526.982 142.785C526.536 142.293 526.312 141.573 526.312 140.625V135.669H527.598V140.017C527.598 140.404 527.616 140.737 527.652 141.015C527.689 141.288 527.766 141.523 527.885 141.719C528.008 141.92 528.167 142.065 528.363 142.156C528.559 142.248 528.844 142.293 529.218 142.293C529.55 142.293 529.913 142.207 530.305 142.033C530.701 141.86 531.07 141.639 531.412 141.37V135.669H532.697V143.305ZM539.191 143.237C538.95 143.3 538.686 143.353 538.398 143.394C538.116 143.435 537.863 143.455 537.64 143.455C536.86 143.455 536.268 143.246 535.862 142.826C535.457 142.407 535.254 141.735 535.254 140.81V136.749H534.386V135.669H535.254V133.475H536.539V135.669H539.191V136.749H536.539V140.229C536.539 140.63 536.548 140.944 536.566 141.172C536.585 141.395 536.648 141.605 536.758 141.801C536.858 141.983 536.995 142.118 537.168 142.204C537.346 142.286 537.615 142.327 537.975 142.327C538.184 142.327 538.403 142.298 538.631 142.239C538.859 142.175 539.023 142.122 539.123 142.081H539.191V143.237ZM553.437 139.217C553.437 139.955 553.355 140.6 553.191 141.152C553.032 141.698 552.768 142.154 552.398 142.519C552.048 142.865 551.637 143.118 551.168 143.278C550.699 143.437 550.152 143.517 549.527 143.517C548.889 143.517 548.333 143.433 547.859 143.264C547.385 143.095 546.987 142.847 546.663 142.519C546.294 142.145 546.027 141.694 545.863 141.165C545.704 140.637 545.624 139.987 545.624 139.217V133.126H546.978V139.285C546.978 139.837 547.014 140.272 547.087 140.591C547.164 140.91 547.292 141.199 547.47 141.459C547.67 141.755 547.941 141.979 548.283 142.129C548.63 142.28 549.044 142.355 549.527 142.355C550.015 142.355 550.43 142.282 550.771 142.136C551.113 141.986 551.387 141.76 551.592 141.459C551.77 141.199 551.895 140.903 551.968 140.571C552.045 140.233 552.084 139.816 552.084 139.32V133.126H553.437V139.217ZM561.381 141.104C561.381 141.801 561.091 142.373 560.513 142.82C559.938 143.266 559.152 143.49 558.154 143.49C557.589 143.49 557.07 143.423 556.596 143.291C556.126 143.155 555.732 143.006 555.413 142.847V141.405H555.481C555.887 141.71 556.338 141.954 556.835 142.136C557.332 142.314 557.808 142.403 558.264 142.403C558.829 142.403 559.271 142.311 559.59 142.129C559.909 141.947 560.068 141.66 560.068 141.268C560.068 140.967 559.982 140.739 559.809 140.584C559.635 140.429 559.303 140.297 558.811 140.188C558.628 140.147 558.389 140.099 558.093 140.044C557.801 139.99 557.534 139.93 557.293 139.866C556.623 139.689 556.147 139.429 555.864 139.087C555.586 138.741 555.447 138.317 555.447 137.816C555.447 137.501 555.511 137.205 555.639 136.927C555.771 136.649 555.969 136.401 556.233 136.182C556.489 135.968 556.812 135.799 557.204 135.676C557.601 135.548 558.043 135.485 558.53 135.485C558.986 135.485 559.446 135.542 559.911 135.656C560.381 135.765 560.77 135.899 561.08 136.059V137.433H561.012C560.684 137.191 560.285 136.989 559.815 136.824C559.346 136.656 558.886 136.572 558.435 136.572C557.965 136.572 557.569 136.663 557.245 136.845C556.922 137.023 556.76 137.289 556.76 137.645C556.76 137.959 556.858 138.196 557.054 138.356C557.245 138.515 557.555 138.645 557.983 138.745C558.22 138.8 558.485 138.855 558.776 138.909C559.073 138.964 559.319 139.014 559.515 139.06C560.112 139.197 560.572 139.431 560.895 139.764C561.219 140.101 561.381 140.548 561.381 141.104Z" fill="#242424"/>
<path d="M725.795 115.116H617.227V158.97H725.795V115.116Z" stroke="#242424"/>
<path d="M658.68 138.253H657.327V133.269H652.248V138.253H650.894V128.074H652.248V132.066H657.327V128.074H658.68V138.253ZM667.711 134.568H662.085C662.085 135.038 662.155 135.448 662.296 135.799C662.438 136.145 662.631 136.43 662.878 136.653C663.115 136.872 663.395 137.036 663.718 137.145C664.046 137.255 664.407 137.309 664.798 137.309C665.318 137.309 665.84 137.207 666.364 137.002C666.893 136.792 667.268 136.587 667.492 136.386H667.56V137.788C667.127 137.97 666.685 138.123 666.234 138.246C665.783 138.369 665.309 138.43 664.812 138.43C663.545 138.43 662.556 138.089 661.845 137.405C661.134 136.717 660.779 135.742 660.779 134.479C660.779 133.231 661.118 132.239 661.797 131.506C662.481 130.772 663.379 130.405 664.491 130.405C665.521 130.405 666.314 130.706 666.87 131.307C667.43 131.909 667.711 132.763 667.711 133.871V134.568ZM666.46 133.584C666.455 132.909 666.284 132.387 665.947 132.018C665.614 131.649 665.106 131.465 664.422 131.465C663.734 131.465 663.185 131.667 662.775 132.073C662.369 132.479 662.139 132.982 662.085 133.584H666.46ZM670.958 138.253H669.672V127.616H670.958V138.253ZM680.22 134.343C680.22 134.962 680.131 135.53 679.954 136.045C679.776 136.555 679.525 136.988 679.202 137.344C678.901 137.681 678.546 137.943 678.135 138.13C677.73 138.312 677.299 138.403 676.843 138.403C676.447 138.403 676.087 138.36 675.763 138.273C675.444 138.187 675.118 138.052 674.786 137.87V141.069H673.501V130.617H674.786V131.417C675.128 131.13 675.51 130.89 675.934 130.699C676.363 130.503 676.818 130.405 677.301 130.405C678.222 130.405 678.937 130.754 679.448 131.451C679.963 132.144 680.22 133.108 680.22 134.343ZM678.894 134.377C678.894 133.456 678.737 132.768 678.422 132.312C678.108 131.857 677.625 131.629 676.973 131.629C676.604 131.629 676.233 131.708 675.859 131.868C675.485 132.027 675.128 132.237 674.786 132.497V136.824C675.15 136.988 675.462 137.1 675.722 137.159C675.987 137.218 676.285 137.248 676.618 137.248C677.333 137.248 677.892 137.006 678.293 136.523C678.694 136.04 678.894 135.325 678.894 134.377ZM691.295 130.111C691.295 129.678 691.165 129.339 690.905 129.093C690.65 128.842 690.322 128.717 689.921 128.717C689.501 128.717 689.159 128.858 688.895 129.14C688.631 129.418 688.499 129.76 688.499 130.166C688.499 130.508 688.587 130.811 688.765 131.075C688.948 131.339 689.337 131.651 689.934 132.011C690.381 131.852 690.718 131.62 690.946 131.314C691.178 131.004 691.295 130.603 691.295 130.111ZM692.621 136.099L689.353 132.914C689.212 132.982 689.071 133.073 688.929 133.187C688.788 133.297 688.647 133.447 688.505 133.638C688.378 133.816 688.273 134.03 688.191 134.281C688.109 134.532 688.068 134.814 688.068 135.129C688.068 135.794 688.262 136.332 688.649 136.742C689.041 137.148 689.595 137.35 690.31 137.35C690.734 137.35 691.153 137.248 691.568 137.043C691.987 136.833 692.338 136.519 692.621 136.099ZM694.678 132.039V132.695C694.678 133.133 694.621 133.625 694.507 134.172C694.393 134.719 694.2 135.24 693.926 135.737L696.51 138.253H694.829L693.263 136.721C692.739 137.369 692.204 137.822 691.657 138.082C691.11 138.337 690.547 138.465 689.968 138.465C689.02 138.465 688.232 138.189 687.603 137.637C686.979 137.081 686.667 136.355 686.667 135.457C686.667 135.038 686.726 134.675 686.844 134.37C686.963 134.065 687.102 133.8 687.261 133.577C687.421 133.363 687.619 133.162 687.856 132.975C688.093 132.784 688.332 132.618 688.574 132.476C688.073 132.148 687.71 131.818 687.487 131.485C687.268 131.152 687.159 130.733 687.159 130.227C687.159 129.922 687.218 129.633 687.337 129.359C687.46 129.081 687.642 128.828 687.883 128.6C688.111 128.382 688.407 128.204 688.772 128.067C689.141 127.93 689.547 127.862 689.989 127.862C690.777 127.862 691.415 128.063 691.903 128.464C692.391 128.86 692.634 129.364 692.634 129.974C692.634 130.175 692.607 130.403 692.552 130.658C692.498 130.909 692.404 131.134 692.272 131.335C692.126 131.558 691.919 131.772 691.65 131.977C691.381 132.182 691.032 132.358 690.604 132.504L693.14 134.978C693.204 134.796 693.252 134.595 693.284 134.377C693.316 134.158 693.334 133.93 693.338 133.693C693.348 133.438 693.35 133.153 693.345 132.839C693.345 132.524 693.345 132.258 693.345 132.039H694.678ZM651.154 152.347C651.154 152.744 651.06 153.136 650.874 153.523C650.691 153.911 650.434 154.239 650.101 154.508C649.737 154.799 649.31 155.027 648.823 155.191C648.34 155.355 647.756 155.437 647.073 155.437C646.339 155.437 645.678 155.369 645.09 155.232C644.507 155.095 643.912 154.893 643.306 154.624V152.928H643.402C643.917 153.357 644.512 153.687 645.186 153.92C645.861 154.152 646.494 154.268 647.087 154.268C647.925 154.268 648.577 154.111 649.042 153.797C649.511 153.482 649.746 153.063 649.746 152.539C649.746 152.088 649.634 151.755 649.411 151.541C649.192 151.327 648.857 151.16 648.406 151.042C648.064 150.951 647.693 150.875 647.292 150.816C646.895 150.757 646.474 150.682 646.027 150.591C645.125 150.399 644.455 150.073 644.017 149.613C643.584 149.148 643.368 148.544 643.368 147.802C643.368 146.949 643.728 146.252 644.448 145.71C645.168 145.163 646.082 144.889 647.189 144.889C647.905 144.889 648.561 144.958 649.158 145.094C649.755 145.231 650.283 145.4 650.744 145.6V147.2H650.648C650.261 146.872 649.75 146.601 649.117 146.386C648.488 146.168 647.843 146.058 647.182 146.058C646.458 146.058 645.874 146.209 645.432 146.51C644.995 146.81 644.776 147.198 644.776 147.672C644.776 148.095 644.885 148.428 645.104 148.67C645.323 148.911 645.708 149.096 646.259 149.223C646.551 149.287 646.966 149.365 647.504 149.456C648.041 149.547 648.497 149.64 648.871 149.736C649.627 149.937 650.197 150.24 650.58 150.645C650.962 151.051 651.154 151.618 651.154 152.347ZM659.555 155.253H658.27V154.405C657.837 154.747 657.422 155.009 657.026 155.191C656.629 155.373 656.192 155.465 655.713 155.465C654.911 155.465 654.287 155.221 653.84 154.733C653.394 154.241 653.171 153.521 653.171 152.573V147.617H654.456V151.965C654.456 152.352 654.474 152.685 654.51 152.963C654.547 153.236 654.624 153.471 654.743 153.667C654.866 153.867 655.025 154.013 655.221 154.104C655.417 154.195 655.702 154.241 656.076 154.241C656.408 154.241 656.771 154.154 657.163 153.981C657.559 153.808 657.928 153.587 658.27 153.318V147.617H659.555V155.253ZM668.804 151.343C668.804 151.962 668.715 152.53 668.538 153.045C668.36 153.555 668.109 153.988 667.786 154.344C667.485 154.681 667.129 154.943 666.719 155.13C666.314 155.312 665.883 155.403 665.427 155.403C665.031 155.403 664.671 155.36 664.347 155.273C664.028 155.187 663.702 155.052 663.37 154.87V158.069H662.085V147.617H663.37V148.417C663.712 148.13 664.094 147.89 664.518 147.699C664.947 147.503 665.402 147.405 665.885 147.405C666.806 147.405 667.521 147.754 668.032 148.451C668.547 149.144 668.804 150.108 668.804 151.343ZM667.478 151.377C667.478 150.456 667.321 149.768 667.006 149.312C666.692 148.857 666.209 148.629 665.557 148.629C665.188 148.629 664.817 148.708 664.443 148.868C664.069 149.027 663.712 149.237 663.37 149.497V153.824C663.734 153.988 664.046 154.1 664.306 154.159C664.571 154.218 664.869 154.248 665.202 154.248C665.917 154.248 666.476 154.006 666.877 153.523C667.278 153.04 667.478 152.325 667.478 151.377ZM677.527 151.343C677.527 151.962 677.438 152.53 677.26 153.045C677.083 153.555 676.832 153.988 676.508 154.344C676.208 154.681 675.852 154.943 675.442 155.13C675.036 155.312 674.606 155.403 674.15 155.403C673.754 155.403 673.393 155.36 673.07 155.273C672.751 155.187 672.425 155.052 672.092 154.87V158.069H670.807V147.617H672.092V148.417C672.434 148.13 672.817 147.89 673.241 147.699C673.669 147.503 674.125 147.405 674.608 147.405C675.529 147.405 676.244 147.754 676.754 148.451C677.269 149.144 677.527 150.108 677.527 151.343ZM676.201 151.377C676.201 150.456 676.044 149.768 675.729 149.312C675.415 148.857 674.932 148.629 674.28 148.629C673.911 148.629 673.539 148.708 673.166 148.868C672.792 149.027 672.434 149.237 672.092 149.497V153.824C672.457 153.988 672.769 154.1 673.029 154.159C673.293 154.218 673.592 154.248 673.924 154.248C674.64 154.248 675.198 154.006 675.599 153.523C676 153.04 676.201 152.325 676.201 151.377ZM686.038 151.438C686.038 152.682 685.719 153.664 685.081 154.385C684.443 155.105 683.588 155.465 682.517 155.465C681.437 155.465 680.578 155.105 679.94 154.385C679.307 153.664 678.99 152.682 678.99 151.438C678.99 150.194 679.307 149.212 679.94 148.492C680.578 147.767 681.437 147.405 682.517 147.405C683.588 147.405 684.443 147.767 685.081 148.492C685.719 149.212 686.038 150.194 686.038 151.438ZM684.712 151.438C684.712 150.449 684.518 149.716 684.13 149.237C683.743 148.754 683.205 148.512 682.517 148.512C681.82 148.512 681.278 148.754 680.89 149.237C680.507 149.716 680.316 150.449 680.316 151.438C680.316 152.395 680.51 153.122 680.897 153.619C681.284 154.111 681.824 154.357 682.517 154.357C683.201 154.357 683.736 154.113 684.124 153.626C684.516 153.134 684.712 152.404 684.712 151.438ZM692.798 149.018H692.73C692.539 148.973 692.352 148.941 692.17 148.923C691.992 148.9 691.78 148.888 691.534 148.888C691.137 148.888 690.754 148.977 690.385 149.155C690.016 149.328 689.661 149.554 689.319 149.832V155.253H688.034V147.617H689.319V148.745C689.829 148.335 690.278 148.045 690.666 147.877C691.058 147.704 691.456 147.617 691.862 147.617C692.085 147.617 692.247 147.624 692.347 147.637C692.448 147.647 692.598 147.667 692.798 147.699V149.018ZM697.973 155.184C697.732 155.248 697.467 155.301 697.18 155.342C696.898 155.383 696.645 155.403 696.421 155.403C695.642 155.403 695.05 155.193 694.644 154.774C694.239 154.355 694.036 153.683 694.036 152.758V148.697H693.168V147.617H694.036V145.423H695.321V147.617H697.973V148.697H695.321V152.177C695.321 152.578 695.33 152.892 695.348 153.12C695.366 153.343 695.43 153.553 695.54 153.749C695.64 153.931 695.777 154.066 695.95 154.152C696.128 154.234 696.396 154.275 696.756 154.275C696.966 154.275 697.185 154.246 697.413 154.186C697.641 154.122 697.805 154.07 697.905 154.029H697.973V155.184Z" fill="#242424"/>
<path d="M500.618 203.738H392.05V247.591H500.618V203.738Z" stroke="#242424"/>
<path d="M432.776 231.744H426.337V221.565H427.69V230.541H432.776V231.744ZM440.535 227.929C440.535 229.173 440.216 230.155 439.578 230.875C438.94 231.596 438.086 231.956 437.015 231.956C435.935 231.956 435.076 231.596 434.438 230.875C433.804 230.155 433.487 229.173 433.487 227.929C433.487 226.685 433.804 225.703 434.438 224.983C435.076 224.258 435.935 223.896 437.015 223.896C438.086 223.896 438.94 224.258 439.578 224.983C440.216 225.703 440.535 226.685 440.535 227.929ZM439.209 227.929C439.209 226.94 439.015 226.207 438.628 225.728C438.241 225.245 437.703 225.003 437.015 225.003C436.317 225.003 435.775 225.245 435.388 225.728C435.005 226.207 434.813 226.94 434.813 227.929C434.813 228.886 435.007 229.613 435.395 230.11C435.782 230.602 436.322 230.848 437.015 230.848C437.698 230.848 438.234 230.604 438.621 230.117C439.013 229.625 439.209 228.895 439.209 227.929ZM448.725 230.875C448.725 232.17 448.431 233.12 447.843 233.726C447.255 234.332 446.35 234.635 445.129 234.635C444.723 234.635 444.327 234.606 443.939 234.546C443.557 234.492 443.178 234.412 442.805 234.307V232.995H442.873C443.083 233.077 443.415 233.177 443.871 233.295C444.327 233.418 444.783 233.48 445.238 233.48C445.676 233.48 446.038 233.428 446.325 233.323C446.612 233.218 446.836 233.072 446.995 232.885C447.155 232.708 447.269 232.493 447.337 232.243C447.405 231.992 447.439 231.712 447.439 231.402V230.705C447.052 231.014 446.681 231.247 446.325 231.402C445.974 231.552 445.525 231.627 444.979 231.627C444.067 231.627 443.342 231.299 442.805 230.643C442.271 229.982 442.005 229.053 442.005 227.854C442.005 227.198 442.096 226.633 442.278 226.159C442.465 225.68 442.718 225.268 443.037 224.921C443.333 224.598 443.693 224.347 444.117 224.169C444.541 223.987 444.963 223.896 445.382 223.896C445.824 223.896 446.193 223.942 446.489 224.033C446.79 224.119 447.107 224.254 447.439 224.436L447.521 224.108H448.725V230.875ZM447.439 229.645V225.482C447.098 225.327 446.779 225.218 446.482 225.154C446.191 225.085 445.899 225.051 445.607 225.051C444.901 225.051 444.345 225.288 443.939 225.762C443.534 226.236 443.331 226.924 443.331 227.827C443.331 228.683 443.481 229.333 443.782 229.775C444.083 230.217 444.582 230.438 445.279 230.438C445.653 230.438 446.027 230.367 446.4 230.226C446.779 230.08 447.125 229.887 447.439 229.645ZM463.866 222.734C464.281 223.19 464.598 223.748 464.816 224.409C465.04 225.069 465.151 225.819 465.151 226.658C465.151 227.496 465.037 228.248 464.81 228.914C464.586 229.574 464.272 230.126 463.866 230.568C463.447 231.028 462.95 231.375 462.376 231.607C461.806 231.839 461.155 231.956 460.421 231.956C459.705 231.956 459.054 231.837 458.466 231.6C457.882 231.363 457.386 231.019 456.976 230.568C456.565 230.117 456.249 229.563 456.025 228.907C455.807 228.25 455.697 227.501 455.697 226.658C455.697 225.828 455.807 225.085 456.025 224.429C456.244 223.768 456.563 223.203 456.982 222.734C457.383 222.287 457.88 221.945 458.473 221.708C459.07 221.472 459.719 221.353 460.421 221.353C461.15 221.353 461.804 221.474 462.383 221.715C462.966 221.952 463.461 222.292 463.866 222.734ZM463.743 226.658C463.743 225.336 463.447 224.318 462.854 223.602C462.262 222.882 461.453 222.522 460.428 222.522C459.393 222.522 458.58 222.882 457.987 223.602C457.399 224.318 457.105 225.336 457.105 226.658C457.105 227.993 457.406 229.016 458.008 229.727C458.609 230.433 459.416 230.787 460.428 230.787C461.439 230.787 462.244 230.433 462.841 229.727C463.442 229.016 463.743 227.993 463.743 226.658ZM473.525 231.744H472.24V230.896C471.807 231.238 471.393 231.5 470.996 231.682C470.6 231.864 470.162 231.956 469.684 231.956C468.882 231.956 468.257 231.712 467.811 231.224C467.364 230.732 467.141 230.012 467.141 229.064V224.108H468.426V228.456C468.426 228.843 468.444 229.176 468.48 229.454C468.517 229.727 468.594 229.962 468.713 230.158C468.836 230.358 468.995 230.504 469.191 230.595C469.387 230.686 469.672 230.732 470.046 230.732C470.379 230.732 470.741 230.645 471.133 230.472C471.529 230.299 471.898 230.078 472.24 229.809V224.108H473.525V231.744ZM480.02 231.675C479.778 231.739 479.514 231.792 479.227 231.833C478.944 231.874 478.691 231.894 478.468 231.894C477.688 231.894 477.096 231.684 476.69 231.265C476.285 230.846 476.082 230.174 476.082 229.249V225.188H475.214V224.108H476.082V221.914H477.367V224.108H480.02V225.188H477.367V228.667C477.367 229.069 477.376 229.383 477.395 229.611C477.413 229.834 477.477 230.044 477.586 230.24C477.686 230.422 477.823 230.556 477.996 230.643C478.174 230.725 478.443 230.766 478.803 230.766C479.012 230.766 479.231 230.736 479.459 230.677C479.687 230.613 479.851 230.561 479.951 230.52H480.02V231.675Z" fill="#242424"/>
<path d="M644.369 26.4951H536.807V70.3489H644.369V26.4951Z" stroke="#242424"/>
<path d="M565.374 46.1375H560.226V49.0085H564.649V50.2117H560.226V55.113H558.873V44.9343H565.374V46.1375ZM572.873 51.4285H567.247C567.247 51.8979 567.317 52.308 567.459 52.6589C567.6 53.0053 567.794 53.2901 568.04 53.5134C568.277 53.7322 568.557 53.8962 568.881 54.0056C569.209 54.115 569.569 54.1697 569.961 54.1697C570.48 54.1697 571.002 54.0671 571.526 53.8621C572.055 53.6524 572.431 53.4473 572.654 53.2468H572.722V54.6482C572.289 54.8305 571.847 54.9832 571.396 55.1062C570.945 55.2292 570.471 55.2908 569.974 55.2908C568.707 55.2908 567.718 54.949 567.008 54.2654C566.297 53.5772 565.941 52.602 565.941 51.3396C565.941 50.0909 566.281 49.0997 566.96 48.366C567.643 47.6322 568.541 47.2654 569.653 47.2654C570.683 47.2654 571.476 47.5662 572.032 48.1677C572.592 48.7693 572.873 49.6238 572.873 50.7312V51.4285ZM571.622 50.4441C571.617 49.7696 571.446 49.2478 571.109 48.8787C570.776 48.5095 570.268 48.325 569.585 48.325C568.897 48.325 568.347 48.5278 567.937 48.9333C567.532 49.3389 567.301 49.8425 567.247 50.4441H571.622ZM581.213 51.4285H575.587C575.587 51.8979 575.657 52.308 575.799 52.6589C575.94 53.0053 576.133 53.2901 576.38 53.5134C576.617 53.7322 576.897 53.8962 577.22 54.0056C577.549 54.115 577.909 54.1697 578.3 54.1697C578.82 54.1697 579.342 54.0671 579.866 53.8621C580.395 53.6524 580.771 53.4473 580.994 53.2468H581.062V54.6482C580.629 54.8305 580.187 54.9832 579.736 55.1062C579.285 55.2292 578.811 55.2908 578.314 55.2908C577.047 55.2908 576.058 54.949 575.347 54.2654C574.636 53.5772 574.281 52.602 574.281 51.3396C574.281 50.0909 574.62 49.0997 575.3 48.366C575.983 47.6322 576.881 47.2654 577.993 47.2654C579.023 47.2654 579.816 47.5662 580.372 48.1677C580.932 48.7693 581.213 49.6238 581.213 50.7312V51.4285ZM579.962 50.4441C579.957 49.7696 579.786 49.2478 579.449 48.8787C579.116 48.5095 578.608 48.325 577.925 48.325C577.236 48.325 576.687 48.5278 576.277 48.9333C575.871 49.3389 575.641 49.8425 575.587 50.4441H579.962ZM589.354 55.113H588.069V54.3132C587.7 54.6322 587.315 54.8806 586.914 55.0583C586.513 55.2361 586.078 55.325 585.608 55.325C584.697 55.325 583.972 54.974 583.434 54.2722C582.901 53.5704 582.634 52.5974 582.634 51.3533C582.634 50.7061 582.726 50.1296 582.908 49.6238C583.095 49.1179 583.345 48.6873 583.66 48.3318C583.97 47.9854 584.33 47.7211 584.74 47.5388C585.155 47.3565 585.583 47.2654 586.025 47.2654C586.426 47.2654 586.782 47.3087 587.091 47.3953C587.401 47.4773 587.727 47.6072 588.069 47.7849V44.4763H589.354V55.113ZM588.069 53.2332V48.8513C587.723 48.6964 587.413 48.5893 587.139 48.53C586.866 48.4708 586.567 48.4412 586.244 48.4412C585.524 48.4412 584.963 48.6918 584.562 49.1931C584.161 49.6944 583.961 50.4054 583.961 51.3259C583.961 52.2328 584.116 52.9233 584.425 53.3972C584.735 53.8666 585.232 54.1013 585.916 54.1013C586.28 54.1013 586.649 54.0216 587.023 53.8621C587.397 53.698 587.745 53.4884 588.069 53.2332ZM598.603 51.2371C598.603 51.8751 598.512 52.4493 598.33 52.9597C598.152 53.4701 597.911 53.8985 597.605 54.2449C597.282 54.6049 596.926 54.8761 596.539 55.0583C596.151 55.2361 595.725 55.325 595.26 55.325C594.828 55.325 594.449 55.2725 594.126 55.1677C593.802 55.0675 593.483 54.9307 593.169 54.7576L593.087 55.113H591.883V44.4763H593.169V48.2771C593.529 47.9809 593.911 47.7393 594.317 47.5525C594.723 47.3611 595.178 47.2654 595.684 47.2654C596.587 47.2654 597.298 47.6117 597.817 48.3044C598.341 48.9972 598.603 49.9747 598.603 51.2371ZM597.277 51.2712C597.277 50.3598 597.127 49.6694 596.826 49.2C596.525 48.726 596.04 48.489 595.37 48.489C594.996 48.489 594.618 48.571 594.235 48.7351C593.852 48.8946 593.497 49.102 593.169 49.3572V53.7322C593.533 53.8962 593.845 54.0102 594.105 54.074C594.369 54.1378 594.668 54.1697 595.001 54.1697C595.712 54.1697 596.268 53.9373 596.669 53.4724C597.074 53.003 597.277 52.2693 597.277 51.2712ZM606.54 55.113H605.261V54.2996C605.147 54.377 604.993 54.4864 604.797 54.6277C604.605 54.7644 604.418 54.8738 604.236 54.9558C604.022 55.0606 603.776 55.1472 603.498 55.2156C603.22 55.2885 602.894 55.325 602.52 55.325C601.832 55.325 601.249 55.0971 600.77 54.6414C600.292 54.1856 600.052 53.6046 600.052 52.8982C600.052 52.3194 600.175 51.8523 600.422 51.4968C600.672 51.1368 601.028 50.8542 601.488 50.6492C601.953 50.4441 602.511 50.3051 603.163 50.2322C603.814 50.1593 604.514 50.1046 605.261 50.0681V49.8699C605.261 49.5782 605.209 49.3367 605.104 49.1453C605.004 48.9539 604.858 48.8035 604.667 48.6941C604.484 48.5893 604.266 48.5186 604.01 48.4822C603.755 48.4457 603.489 48.4275 603.211 48.4275C602.873 48.4275 602.497 48.4731 602.083 48.5642C601.668 48.6508 601.24 48.7784 600.798 48.947H600.729V47.6414C600.98 47.573 601.342 47.4978 601.816 47.4158C602.29 47.3337 602.757 47.2927 603.217 47.2927C603.755 47.2927 604.222 47.3383 604.619 47.4294C605.02 47.516 605.366 47.6664 605.658 47.8806C605.945 48.0903 606.164 48.3614 606.314 48.6941C606.465 49.0268 606.54 49.4392 606.54 49.9314V55.113ZM605.261 53.2332V51.1072C604.869 51.13 604.407 51.1641 603.874 51.2097C603.345 51.2553 602.926 51.3214 602.616 51.408C602.247 51.5128 601.948 51.6768 601.72 51.9001C601.493 52.1189 601.379 52.422 601.379 52.8093C601.379 53.2468 601.511 53.5772 601.775 53.8005C602.039 54.0193 602.443 54.1287 602.985 54.1287C603.436 54.1287 603.849 54.0421 604.222 53.8689C604.596 53.6912 604.942 53.4792 605.261 53.2332ZM614.661 54.6345C614.232 54.8396 613.825 54.9991 613.437 55.113C613.054 55.227 612.647 55.2839 612.214 55.2839C611.662 55.2839 611.156 55.2042 610.696 55.0447C610.236 54.8806 609.841 54.6345 609.513 54.3064C609.181 53.9783 608.923 53.5636 608.741 53.0623C608.559 52.561 608.467 51.9753 608.467 51.3054C608.467 50.0567 608.809 49.0769 609.493 48.366C610.181 47.655 611.088 47.2996 612.214 47.2996C612.651 47.2996 613.079 47.3611 613.499 47.4841C613.923 47.6072 614.31 47.7576 614.661 47.9353V49.364H614.592C614.201 49.0587 613.795 48.824 613.376 48.6599C612.961 48.4958 612.555 48.4138 612.159 48.4138C611.43 48.4138 610.853 48.6599 610.429 49.1521C610.01 49.6397 609.8 50.3575 609.8 51.3054C609.8 52.226 610.006 52.9347 610.416 53.4314C610.83 53.9236 611.411 54.1697 612.159 54.1697C612.419 54.1697 612.683 54.1355 612.952 54.0671C613.221 53.9988 613.462 53.9099 613.676 53.8005C613.863 53.7048 614.039 53.6046 614.203 53.4998C614.367 53.3904 614.497 53.297 614.592 53.2195H614.661V54.6345ZM623.247 55.113H621.551L618.489 51.7703L617.655 52.5632V55.113H616.37V44.4763H617.655V51.2986L621.367 47.4773H622.987L619.439 51.0046L623.247 55.113Z" fill="#242424"/>
<path d="M467.444 26.4951H359.882V70.3489H467.444V26.4951Z" stroke="#242424"/>
<path d="M384.161 55.113H382.487L377.66 46.0076V55.113H376.396V44.9343H378.494L382.897 53.2468V44.9343H384.161V55.113ZM393.274 51.2986C393.274 52.5427 392.955 53.5248 392.317 54.2449C391.679 54.9649 390.824 55.325 389.753 55.325C388.673 55.325 387.814 54.9649 387.176 54.2449C386.542 53.5248 386.226 52.5427 386.226 51.2986C386.226 50.0544 386.542 49.0723 387.176 48.3523C387.814 47.6277 388.673 47.2654 389.753 47.2654C390.824 47.2654 391.679 47.6277 392.317 48.3523C392.955 49.0723 393.274 50.0544 393.274 51.2986ZM391.947 51.2986C391.947 50.3097 391.754 49.5759 391.366 49.0974C390.979 48.6143 390.441 48.3728 389.753 48.3728C389.056 48.3728 388.514 48.6143 388.126 49.0974C387.743 49.5759 387.552 50.3097 387.552 51.2986C387.552 52.2556 387.746 52.9825 388.133 53.4792C388.52 53.9714 389.06 54.2175 389.753 54.2175C390.437 54.2175 390.972 53.9737 391.36 53.4861C391.751 52.9939 391.947 52.2647 391.947 51.2986ZM399.235 55.0447C398.993 55.1085 398.729 55.1609 398.442 55.2019C398.159 55.2429 397.906 55.2634 397.683 55.2634C396.903 55.2634 396.311 55.0538 395.905 54.6345C395.5 54.2153 395.297 53.5431 395.297 52.6179V48.5574H394.429V47.4773H395.297V45.283H396.582V47.4773H399.235V48.5574H396.582V52.0369C396.582 52.4379 396.591 52.7524 396.61 52.9802C396.628 53.2035 396.692 53.4132 396.801 53.6091C396.901 53.7914 397.038 53.9259 397.211 54.0125C397.389 54.0945 397.658 54.1355 398.018 54.1355C398.227 54.1355 398.446 54.1059 398.674 54.0466C398.902 53.9828 399.066 53.9304 399.166 53.8894H399.235V55.0447ZM402.174 46.199H400.725V44.866H402.174V46.199ZM402.092 55.113H400.807V47.4773H402.092V55.113ZM408.743 45.7205H408.675C408.534 45.6794 408.349 45.6384 408.121 45.5974C407.893 45.5518 407.693 45.5291 407.52 45.5291C406.968 45.5291 406.567 45.6521 406.317 45.8982C406.07 46.1397 405.947 46.5795 405.947 47.2175V47.4773H408.265V48.5574H405.988V55.113H404.703V48.5574H403.835V47.4773H404.703V47.2244C404.703 46.3175 404.929 45.6225 405.38 45.1394C405.831 44.6518 406.483 44.408 407.335 44.408C407.622 44.408 407.88 44.4216 408.108 44.449C408.34 44.4763 408.552 44.5082 408.743 44.5447V45.7205ZM410.938 46.199H409.488V44.866H410.938V46.199ZM410.856 55.113H409.57V47.4773H410.856V55.113ZM419.045 54.6345C418.617 54.8396 418.209 54.9991 417.821 55.113C417.439 55.227 417.031 55.2839 416.598 55.2839C416.046 55.2839 415.541 55.2042 415.08 55.0447C414.62 54.8806 414.226 54.6345 413.898 54.3064C413.565 53.9783 413.307 53.5636 413.125 53.0623C412.943 52.561 412.852 51.9753 412.852 51.3054C412.852 50.0567 413.194 49.0769 413.877 48.366C414.565 47.655 415.472 47.2996 416.598 47.2996C417.035 47.2996 417.464 47.3611 417.883 47.4841C418.307 47.6072 418.694 47.7576 419.045 47.9353V49.364H418.977C418.585 49.0587 418.179 48.824 417.76 48.6599C417.345 48.4958 416.94 48.4138 416.543 48.4138C415.814 48.4138 415.237 48.6599 414.814 49.1521C414.394 49.6397 414.185 50.3575 414.185 51.3054C414.185 52.226 414.39 52.9347 414.8 53.4314C415.215 53.9236 415.796 54.1697 416.543 54.1697C416.803 54.1697 417.067 54.1355 417.336 54.0671C417.605 53.9988 417.847 53.9099 418.061 53.8005C418.248 53.7048 418.423 53.6046 418.587 53.4998C418.751 53.3904 418.881 53.297 418.977 53.2195H419.045V54.6345ZM426.633 55.113H425.355V54.2996C425.241 54.377 425.086 54.4864 424.89 54.6277C424.698 54.7644 424.512 54.8738 424.329 54.9558C424.115 55.0606 423.869 55.1472 423.591 55.2156C423.313 55.2885 422.987 55.325 422.613 55.325C421.925 55.325 421.342 55.0971 420.863 54.6414C420.385 54.1856 420.146 53.6046 420.146 52.8982C420.146 52.3194 420.269 51.8523 420.515 51.4968C420.765 51.1368 421.121 50.8542 421.581 50.6492C422.046 50.4441 422.604 50.3051 423.256 50.2322C423.908 50.1593 424.607 50.1046 425.355 50.0681V49.8699C425.355 49.5782 425.302 49.3367 425.197 49.1453C425.097 48.9539 424.951 48.8035 424.76 48.6941C424.578 48.5893 424.359 48.5186 424.104 48.4822C423.848 48.4457 423.582 48.4275 423.304 48.4275C422.967 48.4275 422.591 48.4731 422.176 48.5642C421.761 48.6508 421.333 48.7784 420.891 48.947H420.822V47.6414C421.073 47.573 421.435 47.4978 421.909 47.4158C422.383 47.3337 422.85 47.2927 423.311 47.2927C423.848 47.2927 424.316 47.3383 424.712 47.4294C425.113 47.516 425.459 47.6664 425.751 47.8806C426.038 48.0903 426.257 48.3614 426.407 48.6941C426.558 49.0268 426.633 49.4392 426.633 49.9314V55.113ZM425.355 53.2332V51.1072C424.963 51.13 424.5 51.1641 423.967 51.2097C423.438 51.2553 423.019 51.3214 422.709 51.408C422.34 51.5128 422.042 51.6768 421.814 51.9001C421.586 52.1189 421.472 52.422 421.472 52.8093C421.472 53.2468 421.604 53.5772 421.868 53.8005C422.133 54.0193 422.536 54.1287 423.078 54.1287C423.529 54.1287 423.942 54.0421 424.316 53.8689C424.689 53.6912 425.036 53.4792 425.355 53.2332ZM433.072 55.0447C432.831 55.1085 432.567 55.1609 432.279 55.2019C431.997 55.2429 431.744 55.2634 431.521 55.2634C430.741 55.2634 430.149 55.0538 429.743 54.6345C429.338 54.2153 429.135 53.5431 429.135 52.6179V48.5574H428.267V47.4773H429.135V45.283H430.42V47.4773H433.072V48.5574H430.42V52.0369C430.42 52.4379 430.429 52.7524 430.447 52.9802C430.466 53.2035 430.529 53.4132 430.639 53.6091C430.739 53.7914 430.876 53.9259 431.049 54.0125C431.227 54.0945 431.496 54.1355 431.856 54.1355C432.065 54.1355 432.284 54.1059 432.512 54.0466C432.74 53.9828 432.904 53.9304 433.004 53.8894H433.072V55.0447ZM436.012 46.199H434.563V44.866H436.012V46.199ZM435.93 55.113H434.645V47.4773H435.93V55.113ZM444.981 51.2986C444.981 52.5427 444.662 53.5248 444.024 54.2449C443.386 54.9649 442.531 55.325 441.46 55.325C440.38 55.325 439.521 54.9649 438.883 54.2449C438.25 53.5248 437.933 52.5427 437.933 51.2986C437.933 50.0544 438.25 49.0723 438.883 48.3523C439.521 47.6277 440.38 47.2654 441.46 47.2654C442.531 47.2654 443.386 47.6277 444.024 48.3523C444.662 49.0723 444.981 50.0544 444.981 51.2986ZM443.654 51.2986C443.654 50.3097 443.461 49.5759 443.073 49.0974C442.686 48.6143 442.148 48.3728 441.46 48.3728C440.763 48.3728 440.221 48.6143 439.833 49.0974C439.45 49.5759 439.259 50.3097 439.259 51.2986C439.259 52.2556 439.453 52.9825 439.84 53.4792C440.227 53.9714 440.767 54.2175 441.46 54.2175C442.144 54.2175 442.679 53.9737 443.067 53.4861C443.459 52.9939 443.654 52.2647 443.654 51.2986ZM453.362 55.113H452.076V50.7654C452.076 50.4145 452.056 50.0863 452.015 49.781C451.974 49.4711 451.899 49.2296 451.789 49.0564C451.675 48.865 451.511 48.7237 451.297 48.6326C451.083 48.5369 450.805 48.489 450.463 48.489C450.112 48.489 449.745 48.5756 449.362 48.7488C448.98 48.922 448.613 49.143 448.262 49.4119V55.113H446.977V47.4773H448.262V48.325C448.663 47.9923 449.078 47.7325 449.506 47.5457C449.934 47.3588 450.374 47.2654 450.825 47.2654C451.65 47.2654 452.279 47.5138 452.712 48.0105C453.145 48.5072 453.362 49.2227 453.362 50.157V55.113ZM461.291 52.9119C461.291 53.6091 461.002 54.1811 460.423 54.6277C459.849 55.0743 459.063 55.2976 458.065 55.2976C457.5 55.2976 456.98 55.2315 456.506 55.0994C456.037 54.9626 455.642 54.8145 455.323 54.655V53.2126H455.392C455.797 53.518 456.249 53.7618 456.745 53.9441C457.242 54.1218 457.718 54.2107 458.174 54.2107C458.739 54.2107 459.181 54.1195 459.5 53.9373C459.819 53.755 459.979 53.4679 459.979 53.0759C459.979 52.7751 459.892 52.5473 459.719 52.3923C459.546 52.2374 459.213 52.1052 458.721 51.9958C458.539 51.9548 458.299 51.907 458.003 51.8523C457.711 51.7976 457.445 51.7384 457.203 51.6746C456.533 51.4968 456.057 51.2371 455.775 50.8953C455.497 50.5489 455.358 50.1251 455.358 49.6238C455.358 49.3093 455.421 49.0131 455.549 48.7351C455.681 48.4571 455.879 48.2087 456.144 47.99C456.399 47.7758 456.723 47.6072 457.114 47.4841C457.511 47.3565 457.953 47.2927 458.441 47.2927C458.896 47.2927 459.357 47.3497 459.821 47.4636C460.291 47.573 460.681 47.7074 460.99 47.8669V49.241H460.922C460.594 48.9994 460.195 48.7966 459.726 48.6326C459.256 48.4639 458.796 48.3796 458.345 48.3796C457.876 48.3796 457.479 48.4708 457.155 48.6531C456.832 48.8308 456.67 49.0974 456.67 49.4529C456.67 49.7673 456.768 50.0043 456.964 50.1638C457.155 50.3233 457.465 50.4532 457.894 50.5535C458.131 50.6082 458.395 50.6628 458.687 50.7175C458.983 50.7722 459.229 50.8223 459.425 50.8679C460.022 51.0046 460.482 51.2393 460.806 51.572C461.129 51.9093 461.291 52.3559 461.291 52.9119Z" fill="#242424"/>
<path d="M19.7726 42.24C18.4606 42.24 17.2046 42.056 16.0046 41.688C14.8046 41.304 13.8526 40.816 13.1486 40.224L14.2286 37.8C14.9006 38.328 15.7326 38.768 16.7246 39.12C17.7166 39.472 18.7326 39.648 19.7726 39.648C20.6526 39.648 21.3646 39.552 21.9086 39.36C22.4526 39.168 22.8526 38.912 23.1086 38.592C23.3646 38.256 23.4926 37.88 23.4926 37.464C23.4926 36.952 23.3086 36.544 22.9406 36.24C22.5726 35.92 22.0926 35.672 21.5006 35.496C20.9246 35.304 20.2766 35.128 19.5566 34.968C18.8526 34.808 18.1406 34.624 17.4206 34.416C16.7166 34.192 16.0686 33.912 15.4766 33.576C14.9006 33.224 14.4286 32.76 14.0606 32.184C13.6926 31.608 13.5086 30.872 13.5086 29.976C13.5086 29.064 13.7486 28.232 14.2286 27.48C14.7246 26.712 15.4686 26.104 16.4606 25.656C17.4686 25.192 18.7406 24.96 20.2766 24.96C21.2846 24.96 22.2846 25.088 23.2766 25.344C24.2686 25.6 25.1326 25.968 25.8686 26.448L24.8846 28.872C24.1326 28.424 23.3566 28.096 22.5566 27.888C21.7566 27.664 20.9886 27.552 20.2526 27.552C19.3886 27.552 18.6846 27.656 18.1406 27.864C17.6126 28.072 17.2206 28.344 16.9646 28.68C16.7246 29.016 16.6046 29.4 16.6046 29.832C16.6046 30.344 16.7806 30.76 17.1326 31.08C17.5006 31.384 17.9726 31.624 18.5486 31.8C19.1406 31.976 19.7966 32.152 20.5166 32.328C21.2366 32.488 21.9486 32.672 22.6526 32.88C23.3726 33.088 24.0206 33.36 24.5966 33.696C25.1886 34.032 25.6606 34.488 26.0126 35.064C26.3806 35.64 26.5646 36.368 26.5646 37.248C26.5646 38.144 26.3166 38.976 25.8206 39.744C25.3406 40.496 24.5966 41.104 23.5886 41.568C22.5806 42.016 21.3086 42.24 19.7726 42.24ZM29.6583 42V25.2H32.7783V42H29.6583ZM40.7304 42V27.84H35.1624V25.2H49.4184V27.84H43.8504V42H40.7304ZM54.6399 32.184H62.9919V34.752H54.6399V32.184ZM54.8799 39.384H64.3599V42H51.7599V25.2H64.0239V27.816H54.8799V39.384ZM77.3268 32.928H85.7028V35.568H77.3268V32.928ZM77.5908 42H74.4708V25.2H86.7348V27.816H77.5908V42ZM89.7521 42V25.2H92.8721V39.36H101.656V42H89.7521ZM111.687 42.24C110.375 42.24 109.167 42.024 108.063 41.592C106.959 41.16 105.999 40.56 105.183 39.792C104.367 39.008 103.735 38.096 103.287 37.056C102.839 36 102.615 34.848 102.615 33.6C102.615 32.352 102.839 31.208 103.287 30.168C103.735 29.112 104.367 28.2 105.183 27.432C105.999 26.648 106.959 26.04 108.063 25.608C109.167 25.176 110.367 24.96 111.663 24.96C112.975 24.96 114.175 25.176 115.263 25.608C116.367 26.04 117.327 26.648 118.143 27.432C118.959 28.2 119.591 29.112 120.039 30.168C120.487 31.208 120.711 32.352 120.711 33.6C120.711 34.848 120.487 36 120.039 37.056C119.591 38.112 118.959 39.024 118.143 39.792C117.327 40.56 116.367 41.16 115.263 41.592C114.175 42.024 112.983 42.24 111.687 42.24ZM111.663 39.504C112.511 39.504 113.295 39.36 114.015 39.072C114.735 38.784 115.359 38.376 115.887 37.848C116.415 37.304 116.823 36.68 117.111 35.976C117.415 35.256 117.567 34.464 117.567 33.6C117.567 32.736 117.415 31.952 117.111 31.248C116.823 30.528 116.415 29.904 115.887 29.376C115.359 28.832 114.735 28.416 114.015 28.128C113.295 27.84 112.511 27.696 111.663 27.696C110.815 27.696 110.031 27.84 109.311 28.128C108.607 28.416 107.983 28.832 107.439 29.376C106.911 29.904 106.495 30.528 106.191 31.248C105.903 31.952 105.759 32.736 105.759 33.6C105.759 34.448 105.903 35.232 106.191 35.952C106.495 36.672 106.911 37.304 107.439 37.848C107.967 38.376 108.591 38.784 109.311 39.072C110.031 39.36 110.815 39.504 111.663 39.504ZM127.462 42L121.894 25.2H125.134L130.102 40.392H128.494L133.654 25.2H136.534L141.55 40.392H139.99L145.078 25.2H148.054L142.486 42H139.174L134.59 28.296H135.454L130.798 42H127.462Z" fill="#242424"/>
</svg>
