<?xml version="1.0" encoding="UTF-8"?>
<svg id="Layer_1" data-name="Layer 1" xmlns="http://www.w3.org/2000/svg" xmlns:xlink="http://www.w3.org/1999/xlink" viewBox="0 0 324.77 261.45">
  <defs>
    <style>
      .cls-1, .cls-2, .cls-3 {
        stroke-width: 0px;
      }

      .cls-1, .cls-4 {
        fill: #2b3990;
      }

      .cls-2 {
        fill: url(#linear-gradient);
      }

      .cls-5 {
        letter-spacing: 0em;
      }

      .cls-3 {
        fill: #daf0f6;
      }

      .cls-4 {
        font-family: Garamond-Bold, Garamond;
        font-size: 39.14px;
        font-weight: 700;
      }
    </style>
    <linearGradient id="linear-gradient" x1="0" y1="130.72" x2="324.77" y2="130.72" gradientUnits="userSpaceOnUse">
      <stop offset="0" stop-color="#fff2c0"/>
      <stop offset="1" stop-color="#c2c6e4"/>
    </linearGradient>
  </defs>
  <rect class="cls-2" width="324.77" height="261.45"/>
  <g>
    <g>
      <path class="cls-1" d="m223,62.64c-2.95-4.95-6.94-9.09-11.96-12.43-5.03-3.35-11.53-5.57-19.49-6.69-7.98-1.11-18.36-1.67-31.15-1.67l-92.22.21v3.34c1.93.14,3.99.25,6.19.32,2.19.07,4.81.31,7.84.73,3.02.41,5.36,1.53,7.01,3.34s2.68,4.94,3.09,9.4l.41,9.61v44.56h50.75V45.61c2.33.14,5.02.28,8.04.42s6.47.77,10.32,1.88c3.85,1.12,7.15,4.98,9.9,11.59,2.76,6.62,4.13,13.34,4.13,20.16,0,8.36-1.34,15.95-4.02,22.77-2.3,5.84-5.52,9.48-9.68,10.93h45.68c3.48-1.71,6.5-3.82,9.08-6.33,3.58-3.48,6.22-7.66,7.94-12.54,1.72-4.87,2.59-9.74,2.59-14.62,0-6.54-1.48-12.29-4.44-17.23Z"/>
      <polygon class="cls-1" points="181.65 146.47 203.02 154.37 247.45 153.72 226.08 145.81 181.65 146.47"/>
      <g>
        <polygon class="cls-1" points="182.07 146.69 227.45 146.69 208.44 113.36 163.06 113.36 182.07 146.69"/>
        <polygon class="cls-3" points="182.63 144.71 224.63 144.71 207.88 115.34 165.88 115.34 182.63 144.71"/>
      </g>
    </g>
    <text class="cls-4" transform="translate(91.14 191.56) scale(.85 1)"><tspan x="0" y="0">Digi </tspan><tspan class="cls-5" x="83.58" y="0">R</tspan><tspan x="111.27" y="0">afiki</tspan></text>
  </g>
</svg>