<?xml version="1.0" encoding="UTF-8"?>
<svg id="Layer_1" data-name="Layer 1" xmlns="http://www.w3.org/2000/svg" xmlns:xlink="http://www.w3.org/1999/xlink" viewBox="0 0 324.766 261.4468">
  <defs>
    <style>
      .cls-1 {
        fill: url(#linear-gradient);
      }

      .cls-1, .cls-2 {
        stroke-width: 0px;
      }

      .cls-2 {
        fill: #d52027;
      }

      .cls-3 {
        fill: #ed1c26;
        font-family: LucidaBright, 'Lucida Bright';
        font-size: 29.9291px;
      }
    </style>
    <linearGradient id="linear-gradient" x1="0" y1="130.7234" x2="324.766" y2="130.7234" gradientUnits="userSpaceOnUse">
      <stop offset="0" stop-color="#eaf0be"/>
      <stop offset=".1816" stop-color="#dfedc2"/>
      <stop offset=".4959" stop-color="#c3e5cf"/>
      <stop offset=".9029" stop-color="#95d8e4"/>
      <stop offset="1" stop-color="#8ad5ea"/>
    </linearGradient>
  </defs>
  <rect class="cls-1" width="324.766" height="261.4468"/>
  <g>
    <path class="cls-2" d="m144.5346,64.0322l-.9041,1.36c-.043-.06-.086-.11-.1363-.17-2.7194-3.5-9.9019-11.26-20.4279-12.1-9.9736-.78-17.3426,4.89-20.9016,8.42-.0358.03-.0645.06-.0932.09l-.775-1.5099c.3372-.34.7032-.69,1.105-1.05,3.9967-3.66,11.2293-8.56,20.7436-7.8,9.9449.79,17.0197,7.51,20.349,11.47.4019.48.7463.91,1.0404,1.29Z"/>
    <path class="cls-2" d="m218.1024,121.3022c-.1363.66-.2869,1.31-.4592,1.96-5.9626,24.65-19.696,42.92-36.3784,48.09-3.2146,1-6.5007,1.49-9.8014,1.49-8.5959,0-17.321-3.35-25.2999-9.83-11.057-8.98-19.7247-23.32-24.4676-40.44-.0789-.27-.1507-.54-.2224-.81l2.174-1.13.5167-.27c.0215.09.0502.18.0716.27.1794.65.3588,1.3.5525,1.94,9.5647,32.65,33.2932,51.86,55.8521,44.88,15.4124-4.78,28.1628-21.5,33.9747-44.19.165-.65.3229-1.3.4736-1.96h3.0136Z"/>
    <path class="cls-2" d="m226.0167,41.6422h-14.6375c-8.1367,0-14.7523,9.22-14.7523,20.56v40.49c0,11.34,6.6156,20.57,14.7523,20.57h14.6375c8.1367,0,14.7595-9.23,14.7595-20.57v-40.49c0-11.34-6.6228-20.56-14.7595-20.56Zm13.3531,61.05c0,10.26-5.9841,18.61-13.3531,18.61h-14.6375c-7.3618,0-13.3531-8.35-13.3531-18.61v-40.49c0-10.26,5.9913-18.61,13.3531-18.61h14.6375c7.369,0,13.3531,8.35,13.3531,18.61v40.49Z"/>
    <g>
      <path class="cls-2" d="m130.2559,42.3222h-14.8743c-8.0721,0-14.6304,9.15-14.6304,20.39v39.47c0,5.45,1.5212,10.5699,4.2836,14.42,3.9751,5.54,8.919,5.97,10.3468,5.97h14.8743c8.065,0,14.6302-9.15,14.6302-20.39v-39.47c0-11.24-6.5653-20.39-14.6302-20.39Zm13.2383,59.86c0,10.18-5.9339,18.45-13.2383,18.45h-14.8743c-1.2916,0-5.7689-.39-9.3637-5.4-2.5042-3.49-3.8818-8.12-3.8818-13.05v-39.47c0-.39.0072-.78.0286-1.17.0359-.84.1149-1.66.2368-2.47,1.2054-8.43,6.5654-14.81,12.9801-14.81h14.8743c7.3043,0,13.2383,8.28,13.2383,18.45v39.47Z"/>
      <path class="cls-2" d="m143.4942,65.2222v36.96c0,10.18-5.9339,18.45-13.2383,18.45h-6.0201c-.0215-.09-.0502-.18-.0716-.27l-.5167.27h-8.2658c-1.2916,0-5.7689-.39-9.3637-5.4-2.5042-3.49-3.8818-8.12-3.8818-13.05v-39.47c0-.39.0072-.78.0286-1.17,3.559-3.53,10.928-9.2,20.9016-8.42,10.526.84,17.7084,8.6,20.4279,12.1Z"/>
    </g>
    <path class="cls-2" d="m270.0654,58.1622c-5.4746,0-9.586,3.89-12.327,11.68h-.2439v-10.78h-9.909v59.95h10.2319v-30.09c0-5.76,1.1336-10.19,3.3867-13.3,2.2529-3.1,5.0729-4.6201,8.4595-4.55,1.0189,0,1.9589.15,2.8199.45h.3229v-12.8c-.5955-.37-1.5068-.56-2.741-.56Z"/>
    <path class="cls-2" d="m186.23,63.0522c-2.6119-3.71-6.2497-5.56-10.9208-5.56-3.0638,0-5.7043.88-7.9358,2.64-2.2244,1.76-4.0398,4.32-5.4389,7.69h-.2368v-8.7599h-9.988v59.95h10.2247v-35.14c0-2.09.244-4.04.7247-5.84.488-1.79,1.1553-3.34,2.0163-4.66.861-1.3,1.8799-2.31,3.0638-3.03,1.1767-.71,2.497-1.06,3.9464-1.06,2.6333,0,4.6567,1.01,6.0846,3.03,1.4207,2.02,2.131,4.83,2.131,8.42v38.28h10.2319v-40.64c0-6.51-1.3059-11.6201-3.9033-15.32Z"/>
    <path class="cls-2" d="m83.6957,35.4822v19.76c0,2.25.0287,4.48.0862,6.68.0502,2.21.1291,4.14.2368,5.78h-.1578c-1.3992-3.14-3.2002-5.63-5.3958-7.46-2.2028-1.83-4.8075-2.75-7.8138-2.75-2.741,0-5.2523.75-7.534,2.24-2.2817,1.5-4.2621,3.63-5.9196,6.4-1.6719,2.77-2.9562,6.11-3.8675,10-.9184,3.89-1.3705,8.23-1.3705,13.02,0,4.87.4378,9.26,1.3275,13.19.8897,3.93,2.1382,7.28,3.7455,10.05,1.6144,2.77,3.5733,4.88,5.8837,6.34,2.3032,1.46,4.8864,2.19,7.7349,2.19,2.949,0,5.5536-.89,7.8138-2.69,2.253-1.8,4.054-4.45,5.3958-7.97h.1578v8.75h9.909V35.4822h-10.2319Zm-.3229,61.75c-.4807,2.47-1.191,4.61-2.131,6.4-.94,1.8-2.1238,3.19-3.5445,4.16-1.4207.97-3.0782,1.46-4.9581,1.46-3.4872,0-6.0919-1.87-7.8138-5.62-1.7149-3.74-2.576-8.6-2.576-14.59,0-2.92.2153-5.63.6459-8.14.4304-2.51,1.0763-4.68,1.9301-6.51.861-1.84,1.9516-3.26,3.2648-4.27,1.313-1.01,2.8342-1.52,4.5491-1.52,1.8799,0,3.5374.51,4.9581,1.52,1.4207,1.0099,2.6045,2.43,3.5445,4.27.94,1.83,1.6503,4,2.131,6.51.488,2.51.7319,5.26.7319,8.25,0,2.92-.2439,5.61-.7319,8.08Z"/>
  </g>
  <text class="cls-3" transform="translate(5.9602 208.4599) scale(.8067 1)"><tspan x="0" y="0">Your Blood can Save a Life!</tspan></text>
</svg>